<?xml version="1.0" encoding="utf-8"?>
<!-- Generator: Adobe Illustrator 22.0.0, SVG Export Plug-In . SVG Version: 6.00 Build 0)  -->
<svg version="1.1" id="Layer_1" xmlns="http://www.w3.org/2000/svg" xmlns:xlink="http://www.w3.org/1999/xlink" x="0px" y="0px"
	 viewBox="0 0 348.8 296.6" style="enable-background:new 0 0 348.8 296.6;" xml:space="preserve">
<style type="text/css">
	.st0{clip-path:url(#SVGID_2_);}
	.st1{fill:#FFFFFF;}
</style>
<g>
	<g>
		<defs>
			<path id="SVGID_1_" d="M23,276"/>
		</defs>
		<use xlink:href="#SVGID_1_"  style="overflow:visible;fill:#FFFFFF;"/>
		<clipPath id="SVGID_2_">
			<use xlink:href="#SVGID_1_"  style="overflow:visible;"/>
		</clipPath>
		<g class="st0">
			<defs>
				<rect id="SVGID_3_" x="23" y="14.4" width="261.7" height="261.5"/>
			</defs>
			<use xlink:href="#SVGID_3_"  style="overflow:visible;fill:#FFFFFF;"/>
			<clipPath id="SVGID_4_">
				<use xlink:href="#SVGID_3_"  style="overflow:visible;"/>
			</clipPath>
		</g>
	</g>
	<path class="st1" d="M71,212.7v-68.8v-0.1v-66c0-8.4,4.6-13.3,12.6-13.3c8,0,12.6,4.8,12.6,13.3v64.6v1.4v68.8
		c0,8.4-4.6,13.3-12.6,13.3C75.6,225.9,71,221.1,71,212.7 M23.5,74.7v69.1v0.1v71.9c0,35.1,23.8,59.6,60,59.6
		c36.2,0,60-24.5,60-59.6v-71.9v-1.4V74.7c0-34.7-23.8-59.6-60-59.6C47.3,15,23.5,39.9,23.5,74.7"/>
	<path class="st1" d="M223.8,146.9v21.9c0,1.3,0.1,3.6-0.7,3.6c-0.6,0-1-1.5-1.2-2.4c-2.7-7.9-6.1-19.6-7.1-23.1
		c-0.4-1.6-0.8-1.7-5.9-1.7c-6.3,0-6,0-6,1.6V206c0,1.2-0.4,1.3,6,1.3c6.8,0,6.9-0.1,6.9-1.5v-23c0-1.8-0.2-4.4,0.6-4.4
		c0.7,0,1.4,2.4,1.9,3.9c3.4,11.4,4,14.4,7.3,23.7c0.5,1.5,1.3,1.3,4.6,1.3c6.8,0,6.6-0.1,6.6-1.5V147c0-1.6,0.4-1.7-6.6-1.7
		C223.9,145.3,223.8,145.3,223.8,146.9 M240.3,146.9V206c0,1.2,0,1.3,6.4,1.3c6.8,0,6.9-0.1,6.9-1.5V147c0-1.6,0-1.7-6.9-1.7
		C240.4,145.3,240.3,145.3,240.3,146.9 M185.9,147c0,10-0.1,32.1,0,42.1c0,2.5,0.4,5.3-2.2,5.3c-2.7,0-2.2-2.8-2.2-5.3V147
		c0-1.8-0.9-1.8-6.1-1.8c-7,0-7.2,0-7.2,1.8v45.8c0,8.8,6.6,14.5,15.5,14.5c9.3,0,15.5-5.4,15.5-14.5V147c0-1.3-0.2-1.8-7.2-1.8
		C186.2,145.3,185.9,145.3,185.9,147 M257.1,145.2c-1.1,0-1.2,0.5-1.2,6.1c0,5.5,0.3,6.3,1.6,6.3h3.3c1.2,0,2.8,0,3.3,0.2
		c0.8,0.6,0.6,2.1,0.6,3.3v45.3c0,0.9,0.5,0.9,6.3,0.9c6.6,0,7.1-0.1,7.1-0.9v-45.3c0-1.2-0.2-2.7,0.6-3.3c0.4-0.2,2-0.2,3.4-0.2
		h3.8c1,0,1.1-0.5,1.1-6.7c0-5.1-0.1-5.7-1.2-5.7H257.1z M291.8,145.2c-0.9,0-1.5,0-2,0.7c-0.5,0.7-0.6,0.8-0.6,2v56
		c0,1.1-0.2,2.4,0.5,3c0.6,0.5,2.1,0.4,3.5,0.4H314c1,0,1.1-0.1,1.1-6.5c0-5.8-0.1-5.9-1.2-5.9h-8.4c-1,0-2.2-0.1-2.7-0.4
		c-0.4-0.3-0.4-2-0.4-3.1v-7.4c0-1.2-0.2-2,0.6-2.6c0.4-0.2,1.3-0.3,2.2-0.3h4c1.2,0,1-0.4,1-6c0-5.9,0.1-6.3-1-6.3h-4.3
		c-0.7,0-1.3,0.1-2-0.4c-0.7-0.5-0.5-1.5-0.5-2.3v-6.5c0-1.2,0-1.1,0.4-1.7c0.3-0.4,1.3-0.4,2-0.4h8.9c1.2,0,1.2-0.4,1.2-6.7
		c0-5.4,0-5.7-1.1-5.7H291.8z"/>
	<path class="st1" d="M320.3,83.4v21.9c0,1.3,0.1,3.6-0.7,3.6c-0.6,0-1-1.5-1.2-2.4c-2.7-7.9-6.1-19.6-7.1-23.1
		c-0.4-1.6-0.8-1.7-5.9-1.7c-6.3,0-6,0-6,1.6v59.1c0,1.2-0.4,1.3,6,1.3c6.8,0,6.9-0.1,6.9-1.5v-23c0-1.8-0.2-4.4,0.6-4.4
		c0.7,0,1.4,2.4,1.9,3.9c3.4,11.3,4,14.4,7.3,23.7c0.5,1.5,1.3,1.3,4.6,1.3c6.8,0,6.6-0.1,6.6-1.5V83.5c0-0.1,0-0.2,0-0.3V83
		c0-1.2-0.4-1.2-6.6-1.2C320.4,81.8,320.3,81.8,320.3,83.4 M181.6,125.6V99.9c0-2.5-0.4-5.3,2.2-5.3c2.6,0,2.2,2.8,2.2,5.3
		c0,10-0.1,15.7,0,25.7c0,2.5,0.4,5.3-2.2,5.3C181.1,130.9,181.6,128.1,181.6,125.6 M168.3,96.2v33c0,8.8,6.6,14.5,15.5,14.5
		c9.3,0,15.5-5.4,15.5-14.5v-33c0-9.1-6.2-14.5-15.5-14.5C174.8,81.7,168.3,87.5,168.3,96.2 M202.8,96.2v33
		c0,8.8,6.6,14.5,15.5,14.5c9.3,0,14.8-5.4,14.8-14.5v-3.8c0-2.3-0.6-2.6-5.9-2.6c-6.2,0-6.7-0.2-6.7,1.5v4c0,0.4-0.1,2.6-2.2,2.6
		c-2.2,0-2.2-2.8-2.2-5.3V99.9c0-2.5-0.4-5.3,2.2-5.3c2,0,2.2,2,2.2,2.6v5.1c0,1.2,1.8,0.9,5.9,0.9c6.6,0,6.7-0.4,6.7-1.2v-5.7
		c0-9.1-5.5-14.5-14.8-14.5C209.4,81.7,202.8,87.5,202.8,96.2 M239.1,81.7c-0.9,0-1.5,0-2,0.7c-0.5,0.7-0.6,0.8-0.6,2v56
		c0,1.1-0.2,2.4,0.5,3c0.6,0.5,2.1,0.4,3.6,0.4h20.8c1,0,1.1-0.1,1.1-6.5c0-5.8-0.1-5.9-1.2-5.9h-8.4c-1,0-2.2-0.1-2.7-0.4
		c-0.4-0.3-0.4-2-0.4-3.1v-7.4c0-1.2-0.2-2,0.6-2.6c0.4-0.2,1.3-0.3,2.2-0.3h4c1.2,0,1-0.4,1-6c0-5.9,0.1-6.3-1-6.3h-4.3
		c-0.7,0-1.3,0.1-2-0.4c-0.7-0.5-0.5-1.5-0.5-2.3v-6.5c0-1.2,0-1.1,0.4-1.7c0.3-0.4,1.3-0.4,2-0.4h8.9c1.1,0,1.1-0.4,1.1-6.7
		c0-5.4,0-5.7-1.1-5.7H239.1z M280.5,121.5c-1.5,0-1.7,0-1.7-0.7c0.3-5.4,0.6-8.1,1-14.5c0-0.4,0.3-4.3,0.8-4.3
		c0.6,0,0.9,3.4,0.9,3.8c0.4,7,0.7,9.7,1,15c0,0.6-0.3,0.7-0.8,0.7C281.3,121.5,280.9,121.5,280.5,121.5 M273.8,82.9
		c-3.4,22.9-5.6,36.7-9.4,60c-0.1,0.8,5.1,0.8,6.4,0.8c2.8,0,5.9,0.1,6-0.9c0.4-5.1,0.7-7.3,1.2-12.2c0.1-0.9,1-0.7,2.7-0.7
		c1.4,0,2.2-0.2,2.3,0.7c0.7,4.9,1,7.1,1.7,12.1c0.2,1.2,3.1,1.1,5.7,1.1c2.4,0,7.2,0.1,7-0.9c-4.2-23.2-6.6-37-10.4-59.7
		c-0.3-1.5-4.3-1.6-6.5-1.6C278.6,81.6,274,81.7,273.8,82.9"/>
</g>
</svg>
