<svg class="default-logo" xmlns="http://www.w3.org/2000/svg" width="305" height="78" fill="none" viewBox="0 0 305 78">
				<path fill="currentColor" fill-rule="evenodd" d="M96.46 30.24c-2.84 0-4.741 2.295-4.741 5.734 0 3.721 2.064 5.945 4.811 5.945 2.065 0 4.716-1.498 4.787-5.477.069-3.228-1.595-6.201-4.858-6.201zm-.026 14.535c-2.087 0-4.013-.587-5.702-2.529-1.643-1.895-2.207-4.049-2.207-6.133 0-5.053 3.425-8.704 7.957-8.704 4.108 0 7.957 3.043 7.933 8.682-.022 4.728-2.888 8.684-7.98 8.684zM114.3 36.792c-.213-.772-1.033-1.989-2.652-1.989-1.622 0-2.91 1.288-2.91 3.628 0 2.106 1.103 3.65 2.957 3.65 1.784 0 2.463-1.355 2.817-2.292l2.417 1.264c-.916 2.526-3.238 3.652-5.281 3.652-3.262 0-5.822-2.505-5.822-6.203 0-3.582 2.584-6.204 5.914-6.204 2.957 0 4.46 1.97 5.071 3.324l-2.511 1.17zM126.131 37.005c-.257-1.826-1.386-2.457-2.63-2.457-1.501 0-2.534.863-2.861 2.457h5.491zm3.193 4.725c-1.455 1.945-3.334 2.975-5.729 2.975-3.074 0-6.031-1.945-6.031-6.25 0-3.934 2.535-6.154 5.846-6.154 3.097 0 4.388 1.848 4.621 2.197.962 1.36 1.174 3.395 1.197 4.567h-8.684c.329 1.846 1.481 2.9 3.335 2.9 1.924 0 2.699-1.123 3.05-1.615l2.395 1.38zM138.361 38.526c-.564.28-1.197.49-2.464.702-1.01.14-2.348.372-2.348 1.613 0 .915.776 1.381 1.901 1.381 1.432 0 2.442-.654 2.747-1.356.164-.351.164-.704.164-1.055v-1.285zm-7.253-2.436c.048-.583.094-1.076.469-1.754 1.128-2.035 3.921-2.035 4.673-2.035 1.126 0 2.488.14 3.521.748 1.383.84 1.407 1.942 1.407 3.204v6.205c0 .888 0 1.192.517 1.894h-3.334c-.023-.28-.071-.747-.071-.913-.61.515-1.855 1.194-3.473 1.194-2.653 0-4.249-1.638-4.249-3.652 0-.583.142-1.122.378-1.592.843-1.682 2.65-2.058 3.777-2.269 2.418-.49 2.605-.539 3.638-.867 0-.583-.045-1.776-1.995-1.776-1.174 0-1.807.374-2.089.75-.306.373-.281.702-.281 1.026l-2.888-.163zM144.161 32.651H147v1.382c.141-.211.424-.587.914-.915.706-.513 1.786-.818 2.701-.818 1.339 0 2.488.607 3.076 1.405.728.98.728 2.246.728 3.767v6.88h-2.794v-5.967c0-.865 0-1.45-.094-1.78-.258-1.03-1.01-1.569-1.926-1.569-.914 0-1.76.54-2.158 1.312-.447.867-.447 2.06-.447 2.927v5.078h-2.839V32.65zM175.169 39.742c-.212.54-.612 1.498-1.432 2.48-1.172 1.359-3.026 2.552-5.727 2.552-4.388 0-7.747-3.209-7.747-8.73 0-5.616 3.641-8.635 7.864-8.635 5.164 0 6.386 3.955 6.759 5.1l-3.097.82c-.047-.304-.187-1.006-.61-1.637-.352-.516-1.268-1.452-2.982-1.452-2.699 0-4.575 2.225-4.575 5.758 0 3.768 1.995 5.849 4.598 5.849 1.55 0 2.491-.747 3.169-1.613.54-.727.752-1.334.869-1.708l2.911 1.216zM183.504 34.827c-1.76 0-3.028 1.404-3.028 3.557 0 2.41 1.479 3.746 3.169 3.746 2.039 0 3.072-1.78 3.001-3.721-.044-1.944-1.172-3.582-3.142-3.582zm.141 9.877c-3.662 0-6.103-2.668-6.103-6.25 0-3.58 2.486-6.155 5.985-6.155 3.261 0 6.056 2.271 6.078 6.156 0 3.65-2.417 6.249-5.96 6.249zM191.649 32.651h2.84v1.382c.142-.211.423-.587.914-.915.706-.513 1.785-.818 2.701-.818 1.339 0 2.489.607 3.076 1.405.727.98.727 2.246.727 3.767v6.88h-2.793v-5.967c0-.865 0-1.45-.094-1.78-.258-1.03-1.009-1.569-1.924-1.569-.916 0-1.762.54-2.161 1.312-.446.867-.446 2.06-.446 2.927v5.078h-2.84V32.65zM205.734 40.888c.704.866 1.761 1.498 3.38 1.498 1.62 0 2.324-.794 2.324-1.38 0-.749-.846-.937-1.221-1.008-.398-.092-2.324-.443-2.746-.562-2.793-.652-3.31-2.269-3.31-3.32 0-1.991 1.808-3.817 5.025-3.817 1.783 0 3.074.562 3.871 1.125.588.373.963.772 1.198 1.052l-1.995 1.849c-.329-.631-1.127-1.778-3.193-1.778-1.338 0-1.948.585-1.948 1.193 0 .844.868 1.076 2.371 1.335 2.441.443 3.122.56 3.872 1.147.728.562 1.199 1.496 1.199 2.48 0 1.825-1.643 4.002-5.283 4.002-2.089 0-4.154-.656-5.633-2.082l2.089-1.734zM224.489 37.005c-.258-1.826-1.385-2.457-2.63-2.457-1.5 0-2.533.863-2.862 2.457h5.492zm3.194 4.725c-1.457 1.945-3.334 2.975-5.729 2.975-3.075 0-6.032-1.945-6.032-6.25 0-3.934 2.537-6.154 5.847-6.154 3.097 0 4.386 1.848 4.621 2.197.962 1.36 1.174 3.395 1.198 4.567h-8.686c.329 1.846 1.481 2.9 3.334 2.9 1.924 0 2.701-1.123 3.052-1.615l2.395 1.38zM232.307 32.651v1.662c.352-.608 1.129-1.99 3.755-1.919v2.88c-.61.02-1.664.044-2.534.701-1.197.91-1.221 2.107-1.221 4.048v4.33h-2.721V32.65h2.721zM248.316 32.651l-3.85 11.701h-3.026l-3.805-11.7h2.914l2.438 8.05 2.397-8.05h2.932zM256.743 38.526c-.563.28-1.196.49-2.462.702-1.012.14-2.347.372-2.347 1.613 0 .915.773 1.381 1.899 1.381 1.431 0 2.443-.654 2.747-1.356.163-.351.163-.704.163-1.055v-1.285zm-7.252-2.436c.047-.583.094-1.076.469-1.754 1.127-2.035 3.922-2.035 4.673-2.035 1.124 0 2.487.14 3.52.748 1.384.84 1.407 1.942 1.407 3.204v6.205c0 .888 0 1.192.517 1.894h-3.334c-.023-.28-.071-.747-.071-.913-.61.515-1.854 1.194-3.472 1.194-2.653 0-4.25-1.638-4.25-3.652 0-.583.142-1.122.379-1.592.843-1.682 2.649-2.058 3.778-2.269 2.417-.49 2.603-.539 3.636-.867 0-.583-.044-1.776-1.995-1.776-1.173 0-1.808.374-2.089.75-.304.373-.281.702-.281 1.026l-2.887-.163zM262.895 32.651h2.84v1.382c.14-.211.423-.587.915-.915.705-.513 1.784-.818 2.7-.818 1.337 0 2.489.607 3.074 1.405.729.98.729 2.246.729 3.767v6.88h-2.793v-5.967c0-.865 0-1.45-.095-1.78-.259-1.03-1.01-1.569-1.924-1.569-.915 0-1.762.54-2.16 1.312-.446.867-.446 2.06-.446 2.927v5.078h-2.84V32.65zM283.411 36.792c-.212-.772-1.031-1.989-2.651-1.989-1.622 0-2.911 1.288-2.911 3.628 0 2.106 1.102 3.65 2.957 3.65 1.783 0 2.464-1.355 2.817-2.292l2.418 1.264c-.916 2.526-3.24 3.652-5.281 3.652-3.263 0-5.823-2.505-5.823-6.203 0-3.582 2.585-6.204 5.915-6.204 2.959 0 4.46 1.97 5.073 3.324l-2.514 1.17zM296.91 32.651l-2.983 10.202-.655 2.2c-.8 2.46-1.668 3.326-3.849 3.326-.918 0-1.362-.096-1.693-.14V45.78c.261.045.471.07.752.07.212 0 .822 0 1.268-.305.329-.211.656-.725.656-.96l-4.248-11.934h3.028l2.605 8.73 2.232-8.73h2.887zM50.691 15.45c-.05-.06-.173-.002-.233-.107-.058-.105-.21-.237-.324-.295-.09-.048-.203-.072-.26-.138-.097-.103-.075-.09-.183-.274-.053-.086-.205-.107-.266-.163-.097-.087-.231-.242-.296-.315-.064-.076-.139-.278-.08-.514.04-.163.122-.259.206-.39.038-.06-.035-.095.086-.22l.008-.003c-.061-.119.233-.328.303-.387-.066-.132.304-.17.264-.325.063-.026.12-.119.19-.185-.026-.036.101-.156.124-.161.02-.056.083-.158.076-.24-.106-.204.05-.365-.31-.335-.07.006-.146.011-.176.066-.04.023-.076.046-.117.067-.05.015-.243.124-.37.267-.048.017-.425.155-.48.265-.054.11-.42.221-.46.236-.042.048-.323.063-.364.11-.38-.008-.348-.158-.543-.232-.195-.074-.104-.517-.262-.65-.16-.138-.083-.538-.209-.688-.124-.152.008-.147-.041-.234-.05-.084-.076-.198-.056-.214-.018-.1.028-.135.026-.252-.007-.005-.02-.09-.028-.096-.028-.033.028-.096-.013-.203-.035-.085-.073-.03-.094-.148-.01 0-.123-.045-.134-.045-.025-.003-.065-.064-.09-.067-.079-.031-.118.036-.165.09-.038.048-.094.076-.139.149-.023.034.01.102-.001.14-.03.089-.086.155-.121.252-.026.068-.015.14-.03.188-.023.094-.063.137-.08.181.05.135-.095.383-.04.54.03.075.089.387.043.55-.045.161.06.443.033.608-.03.166-.134.099-.247.229-.11.128-.221.1-.34.13-.114.03-.301-.03-.372-.003-.245.036-.088.069-.33.026-.02-.023-.098.048-.258-.041-.04-.023-.166-.012-.199.002-.002-.004-.074-.025-.076-.029 0 0-.116.02-.117.017 0 0-.169-.053-.2-.035l-.012-.005-.17-.011c-.051-.015-.218-.076-.27-.092-.157.014-.368.113-.338.225.021.073-.002.081-.032.16-.036.08.048.056.07.1.122.128.105.159.315.212.184.14.313.2.51.207.056.083.201.11.277.167.068.118.261-.005.36.076.04.084.136.074.204.128.086.063.377.004.646.277.032.061.093.086.154.112.015-.005.18.152.192.191.105.205-.03.23.084.353.041.08-.028.344-.053.415.015.056-.022.155-.01.206.017.061.038.307-.051.427-.041.203-.101.257-.096.38.005.121-.14.358-.127.525.011.168-.058.283-.104.483-.052.095.09.173.044.318-.048.14.06.21.122.259.163.121.458.093.536-.055.1-.03.245-.374.24-.468-.012-.112.256-.217.26-.328.037-.214.145-.39.148-.448.162-.046.149-.445.28-.524.168-.104.093-.49.298-.562.148-.041.192-.221.202-.2.142-.042.27.08.395.058.078-.021.202.162.28.14.089.022.24.16.414.2.2.046.376.095.422.173.041.075.226.145.363.188.267.04.37.087.52.217.38.29.763.318.791.152.035-.18.285-.203.237-.409-.085-.36-.15-.135-.356-.37zM39.255 54.718c.329-.473.816-.163 1.04-.2.218-.04 1.53-.273 2.8-.016.912.186 2.086.697 3.267 1.295.987.505 1.63.651 1.63.651s.346-.2.906.047c.544.247.982.402 2.31.509.5.04 1.444-.04 2.2-.24.392-.101 1.204-.492 1.382-.326.186.167-.018.19-.2.236-.104.026-.206.117-.42.216-.178.084-.346.27-.457.308-.184.06-.425.035-.63.094-.215.066-.392.213-.547.233-.192.028-.352-.009-.627.046-.147.028-.312.153-.572.173-.512.034-.669.146-.669.146l-.18.132s1.198.658 2.539 2.924c1.719 2.75.767 6.68 1.56 7.142.542.315 1.803.564 2.643.907.402.168 1.44.582 1.676 1.092.258.57.055.879-.112 1.106-.165.228-.503.149-.475-.047.05-.304-.372-.345-.806-.256-.465.097-.96.226-1.746.326-1.006.129-1.349-.534-1.382-.336-.03.198-.163.6-.426.798-.38.293-.727.34-1.417.595-.803.305-1.338.616-1.41.792-.07.165-.206.28-.386.27-.149-.01-.379-.184-.29-.686.068-.381.12-.909 1.065-2.16.428-.566.856-.907 1.041-1.428.143-.394.293-.785.076-1.614-.117-.453-.3-1.186-1.464-2.117-1.093-.869-1.803-1.058-2.805-1.93-1.375-1.198-1.767-1.428-1.59-.83.116.288-.018.258.053.635.024.135-.035.264-.03.41.007.23.063.485.041.708-.021.206-.117.385-.14.555-.033.242.01.445.023.517.041.207-.003.396-.139.401-.41.008-.28-.966-.578-1.77-.443-1.183-.954-2.024-1.83-2.914-.549-.553-.481-.87-.481-.87s-.734-.547-2.261-1.715c-1.526-1.164-1.75-2.522-1.94-2.693-.188-.169-.602-.607-.242-1.116zM67.685 47.313s-.929 1.223-1.031 1.353c-.217.269-.392.15-.536-.008-.139-.155-.13-.22-.443-.308-.22-.056-.337.013-.41.14-.044-.005-.094-.008-.145-.02-.075-.021-.068-.135-.169-.17-.114-.04-.246-.18-.396-.242-.065-.023-.187-.208-.262-.23-.076-.032-.254-.009-.335-.039-.09-.032-.205-.204-.298-.235-.117-.051-.244.008-.367-.043-.12-.045-.153-.167-.26-.234-.19-.112-.459-.185-.672-.275-.772-.345-1.878-.3-2.638-.632-1.149-.507-2.626-.807-3.379-.741-1.062.137-1.472-.353-2.492 0-.91.313 1.122 1.437 1.944 1.889 1.823 1.389 3.07 2.168 6.148 1.921 1.108-.163 2.506-.191 3.243-.679.07.022.321.09.508.22.225.153.213.4.208.522-.003.125.018.326-.324.867-.276.436-.666 1.254-1.005 1.982-.263.556-.505 1.078-.608 1.215-.167.224-.362.405-.471.42-.349.041-.349-.12-.425-.44-.08-.318-.061-.75-.411-.641-.058.016-.103.053-.148.089-.069-.134-.186-.226-.337-.37-.089-.09-.178-.248-.287-.34-.076-.061-.167-.061-.252-.124-.074-.056-.148-.173-.223-.224-.143-.097-.363-.1-.51-.193-.281-.193-.495-.475-.758-.656-2.285-1.414-3.525-1.49-5.406-1.445-.794-.088-2.744-.284-2.149.273.663.627 1.15.523 1.922 1.037.56.348 1.799.791 2.863.982.701.122 1.54.61 2.258.734.195.033.428.107.608.117.07.006.184.026.243.018.032-.007.005-.051.045-.043.11.025.188.105.3.132.075.018.23-.028.31-.013.07.02.202.1.27.115.064.018.22-.036.282-.023.137.028.29.002.388.028.096.02.121-.053.187-.028.08.021.139.054.184.079-.042.051-.081.104-.108.176-.066.167.015.32.14.4.183.26.809.742.303.91-.97.325-1.634.277-1.634.277-.207-.013-.253.139-.273.236-.334-.331-1.24-.554-1.926-.791-1.811-.53-2.126-.343-3.61-.523-.553.068-2.061.007-1.545.26.562.286.873.148 1.494.35.443.132 1.188.91 1.945.862.495-.03 1.154.14 1.668.11.132-.01.304 0 .428-.017.08-.014.111-.056.194-.063.072 0 .147.038.221.035.063-.004.152-.055.203-.056.057-.004.263.131.313.13.041-.004.405-.045.444-.046.06-.002.15-.022.23-.035l.019.041c-.029.056-.027.112.013.157.06.082.23.14.993-.045 1.48-.36 2.1-1.066 2.3-1.26.217-.218.573-.93.894-1.58l.079-.163c.929-1.872 1.21-2.41 1.29-2.54.09-.154.41-.55.728-.935l.75-1.177-.317-.45zM75.12 42.005c.04 1.254-.527 2.428-.722 3.672-.281.96-.336 1.674-.45 2.29-.09.169-.198.345-.3.41-.515.322-1.675.922-2.604 1.6-.17-.186-.574-.402-1.243-.534-.924-.186-1.045.14-.979.524-.416-.237-.695-.62-.709-.63-.018-.015-.041-.048-.08-.036-.039.015 0 .06 0 .082.062.178.122.309.242.47.19.242.344.323.514.38-.02.324.233.619.908.527.193-.025.377-.061.549-.1-.126.13-.233.26-.32.388-.014.026-.034.054-.054.08-.48.048-1.337.479-2.297 1.28-1.1.916-1.025 1.539-.55 1.887-.247.262-.363.563-.503.886-.134.145-.126.549-.311.916-.1.307-.16.633-.317 1.055-.096.102-.166.67-.123.554.013-.041.126-.134.149-.186.021-.061.183-.371.215-.444.013-.038.193-.207.206-.245.014-.038.025-.259.045-.298.017-.047.063-.094.083-.144.023-.06.026-.135.053-.198.026-.064.052-.069.08-.123.048-.09.12-.15.163-.257.282-.664.395-.422.5-.676.101-.237.144-.386.17-.504.439.49 1.247.527 1.898-.69.39-.724.71-1.395.87-1.893.186-.165.373-.334.568-.512-.092.166-.183.36-.274.59-.33.839-.027 1.053.359 1.05-.03.085-.174.596-.657 1.056-.076.158.443-.112.595-.321.14-.193.228-.297.276-.67.31.096.59-.103.705-.817.122-.796-.095-1.459-.301-1.523.694-.621 1.411-1.246 2.072-1.722L73 51.104l-.706 1.589c-.408 1.25-.634 2.149-.735 2.762-.546.112-1.71.624-2.248 1.114-.783.72-1.817 1.272-2.187 2.716-.135.633-.104 1.083.037 1.646.02.093.014.262.102.181.104-.092.1-.542.157-.639.028-.041.29-.372.318-.415.03-.045.021-.309.05-.358.037-.05.141-.117.18-.178.052-.072.05-.16.103-.234.048-.077.113-.086.177-.155.091-.114.185-.288.273-.41.336-.483.041-.061.369-.53.492-.713 1.003-1.09 1.433-1.451.46-.419.81-.53 1.18-.85-.002.042-.008.087-.008.125-.56.524-1.792 1.877-2.346 3.108-.177.51-.195 1.284.357 1.39-.12.245-.264.508-.5.836-.506.727-.616.274-1.902 1.467-.462.424.148.56-1.056 1.676-.193.177-.26.397-.423.566-.1.107-.087.177-.203.28-.114.102-.265.163-.375.255-.088.078-.16.23-.239.302-.079.067-.535.225-.608.291-.064.055-.289.607-.357.665-.137.123-.67.725-.782.817-1.105.94.437.323.797-.157 1.296-1.302 1.431-.995 2-1.435.64-.679 1.508-.898 1.718-1.325.636-.618 1.259-1.114 1.621-2.067.031 0 .752-.726 1.053-1.588.05-.142.096-.292.142-.439.483-.015.96-.28 1.149-1.017.132-.509.322-1.723.342-2.03.036-.52.036-.98.015-1.309.253-.349.572-1.107.775-2.096.11-.547.255-1.29.481-1.992.223-.699.534-1.365.707-2.134.153-.661.541-1.03.733-1.88.299-1.326.66-2.844.991-4.84l-.464-1.356z" clip-rule="evenodd"></path>
				<path fill="currentColor" fill-rule="evenodd" d="M63.466 62.932c.466.681 1.273-.395 1.768-.145.154-.13-.067-.354-.09-.408-.032-.127.165-.218.165-.218s.137-.05.054-.148c-1.01-.351-.8-1.83-.892-1.914-.066-.085-.252-.127-.204-.31.03-.182-.005-.355-.102-.448-.607-.3-.61-.84-.888-.876-.505-.096-1.023-.457-1.023-.457s-.945-.028-1.14.115c-.54.41-1.146.576-1.243.648.003.01-.384-.488-.85-.603-.671-.127-.968.315-1.116.484-.512-.947-1.289-.257-1.334-.21 0 .115-.011.136-.099.37.007-.19-.021-.354-.077-.387l-.029-.03c-.31-.248-.654-.18-.813.015.035.028-.044.177-.142.373.028-.2.081-.309.05-.353 0 0-.136-.147-.34-.181-.193-.028-.346.14-.346.14l-.065.052c.002.073-.034.213-.097.34.026-.171.018-.333-.002-.346l-.061-.06c-.035-.016-.088-.052-.097-.04-.27-.078-.718.19-.718.19s.11.589.633.783c0 0 .07.03.136-.103-.025.146-.066.174-.066.178-.01.81.591.494.591.494s.053-.115.12-.25c-.014.23-.073.405-.073.405-.047.461.715.8.99.527.016-.038-.004.04.08-.186.007.191-.082.453-.065.396-.321.789.709 1.717 1.15 1.358 0 0 .274.174.377.69.054.285.102.435.377.562.22.092.243-.023.4.026.27.09.215.218.32.312.1.025.237-.051.485.133.382-.135.548.066.568-.008.313-.244.604.041.632-.038.162-.21.47-.27.596-.26.19 0 .326-.399.447-.4.365-.164.495-.43.495-.43s.877-.533 1.538.218zM46.96 67.748c-.166-.017-.29.041-.38-.205-.093-.242-.424-.209-.568-.293-.148-.08.047-.267-.258-.272-.305-.006-.284-.2-.378-.254-.096-.052-.188.019-.329.04-.167.03.088-.623-.494-.87-.584-.25-.423-.393-.608-.559-.622-.582-1.232.089-.885.885.065.15.017.537-.002.941-.016.307.083.584-.133.865-.442.567-.618.467-1.111.763-.364.221-.831.755-.92.776-.467.118-.8.505-1.054.963-.401.727-.613.534-.714.473-.168-.102.019-1.885.599-2.76.114-.174.388-.755.033-.85-.162-.04.267-1.075.752-1.562.208-.206.342-.596.492-.736.537-.501.784-.392.827-.363.611.399 1.89-.448.572-.911-.169-.058-.253-.439-.637-.452-.315.002-.413.198-.482.129-.073-.07-.086-.188-.235-.28-.145-.096-.474.135-.539-.216-.066-.351-.433-.4-.755-.348-.12.021-.185-.02-.228-.115-.075-.172-.242-.173-.458-.172-.218.005-.083-.438-.599-.451-.914-.043-.525.644-.525.644s-.65.226-.982.002c-.516-.338-.617-.47-.51-.6.178-.23-.024-.318-.206-.434-.251-.03-.302-.011-.353-.04-.138-.081-.134-.195-.419-.33-.023-.01-.358.08-.476-.075-.215-.125-.158-.182-.355-.219-.737-.13-.703.902-.139 1.245.32.19.914.482 1.245 1.2.168.367.878.647 1.175 1.163.392.684.65 1.516.516 2.513-.047.351.14.737.102.987-.163.986-.509 1.167-.615 1.643-.211.927.007 1.114-.048 1.63-.053.516-.322.95-.534 1.095-.213.143-.755.25-1.28.519-.41.209-.784.558-.953.633-.638.291-2.269.344-2.06-.41.153-.535.055-.991.095-1.12.402-.161 1.142-.333 1.377-.73.263-.452.838-.52 1.127-.72.29-.198.253-1.116-.178-1.357-.43-.24-.55.231-1.03.56-.339.233-1.178.734-1.53.82-.03-.252-.077-1.26-.19-1.823-.098-.484.72-.872.523-1.308-.517-1.134.35-1.294.506-1.319.656-.089.922-.104 1.041-.387.105-.247.066-.74-.492-.705-.205.016-.39.272-.453.143-.071-.14-.093-.247-.317-.358-.227-.105-.394.103-.627.07-.302-.055-.13-.236-.368-.32-.237-.082-.655.216-.734.03-.326-.762-.969-.412-1.13-.556-.575-.532-1.108-.04-1.105.24.013.841.944 1.04 1.557 2.321.15.317.193.849.023 1.345-.24.704.266 1.755.225 2.297-.06.834-.112 1.572-.136 1.95-.026.372-.25.402-.47 1-.602 1.628-.184 1.01-1.57 2.064l-.04.01c-.12.03-.792.04-.926.547-.13.506.087 1.011.312 1.302.631.817 1.597 1.188 2.038.717.332-.342.724-.081 1.268-.437 1.621-1.052 2.59-.856 3.674-1.57.658-.278 1.62-.61 1.936-.736.69-.143 1.203-.468 1.559-.67.426-.25.638-.203.96-.104.354.1 1.36-.25 1.945.074.456.249 1.453.196 2.175.196.511 0 .87.043 1.108.27.307.292.67.35.724.569.053.219.198 1.181.864 1.017.303-.073.114-.493.128-.493.195-.363.092-.402.074-.552-.016-.152.307-.142.261-.452-.063-.428.342-.483.25-.827-.101-.363-.025-.631.054-.747.15-.206-.224-.324-.033-.586.42-.525.182-.7.037-.744-.875-.296-1.13 1.23-2.326 1.164-.488-.027-1.238-.19-1.507-.491-.372-.416-.911-.435-1.134-.547.3-.688 1.468-.749 1.393-1.253-.025-.147-.119-.283-.246-.397.45-.303.775-.728.775-.728.59-.656 1.22-.56 1.641-.826.394-.25.926-.233 1.152-.198.683.104 1.148-.031 1.05-.557-.028-.167-.235-.402-.402-.42zM55.542 20.46c1.63-2.798 2.416-7.607.94-10.11-5.364-9.365-20.09-3.788-20.407-.615-.17 1.39 2.49 1.242 2.16 2.628-.303 1.228-1.62 1.571-2.584 1.823C30.823 15.608 27.866 9 23.457 11.46c-.745.346-2.033.733-2.077 1.747-.048 1.01 1.25 1.096 1.877 1.68.944 2.959 9.16 4.445 14.521 1.192 6.365-3.825-.785-3.092 2.693-6.7 2.667-2.8 12.593-.846 14.19 2.527 1.472 3.206-.058.912-2.4 7.543-.562 1.6-.088 3.741.203 3.863.359.149 2.225-1.386 3.078-2.85z" clip-rule="evenodd"></path>
				<path fill="currentColor" fill-rule="evenodd" d="M27.706 8.766c-.186.158-.338.305-.32.351.151.211.968.808 1.563 1.142.21.117.454.182.601.068.25-.204.688-.79.818-1.16.037-.002 1.083-.037 2.06-.308 0 .275-.025 1.239.5 1.38.335.088.845-1.886.931-2.002 1.526-.867 3.313-2.585 3.913-4.763.763-2.956.191-3.366.06-3.416-.067-.033-.895-.367-3.186 1.035-1.278.85-2.423 1.973-2.884 2.543-.871-.242-1.407-.38-2.146-.555-.185-.038-.332-.045-.377.138-.011.109.012.252.08.397.211.495.192 1.284.142 1.661-.022.167.104.228.268.218.05-.003.155.102.268.216-.357.341-1.14.741-1.445.758-.59-.143-1.304-.569-1.696-.445-.162.05-.263.423.018.717.073.05.137.087.19.114-.492.09-1.01.145-1.46.092-.05-.045-.059-.137-.088-.221-.027-.377.292-.582.53-.755.31-.22.27-.509.104-.78-.17-.271-.555-.533-.841-.594-.212-.041-.5-.07-.723-.226-.183-.134-.332-.321-.485-.625-.27-.547-.465-1.114-.94-1.55-.085-.071-.183-.038-.232.023-.192.25.387 2.717.983 3.563.759 1.195 1.979 2.383 3.794 2.984zM23.873 27.284c.034-.023.053-.156-.175-.36-.23-.205-.474-.398-.474-.398s-.005-.086-.078-.171c-.07-.09-.251-.106-.251-.106s.058-.021-.59-.476c-.425-.299-.856-.272-.94-.322-.083-.042-.098-.084-.176-.174-.124-.145-.88-.409-.939-.356-.056.054.347.267.347.267s-.469-.173-.47-.08c0 .01.208.2.208.2s-.47-.178-.463-.06c0 .01.124.166.114.16-.045-.018-.222-.072-.26-.014-.001.005.111.115.103.112-.06-.032-.228.058-.228.058s.233.054.276.062c-.053-.008-.311 0-.33.056l.197.14s-.157-.05-.201-.074c-.043-.023-.227-.046-.291-.003-.164.11-.122-.063-.47.056-.601.21-.598.2-.892.377-.177.107-1.005.648-1.048.542-.036-.107-.276-.393-.354-.492-.079-.098-.27-.294-.343-.253-.268.154-.192.726-.007 1.207.195.5-.15 1.1-.073 1.196.078.1.516-.323.76-.637.103-.12.493-.136.698-.017.288.165.737.387.737.387s.103.258.127.546c.01.112-.001.128.106.133.235.014.498-.253.498-.253s-.071-.045.24.067c.118.045.21.045.28.028-.085.068-.175.185-.272.265-.12.098-.344.417-.34.53.006.11.156.088.302.049.142-.041.345-.139.583-.284.243-.145.437-.344.508-.385.077-.043.132.028.132.028s-.025.318-.028.425c-.005.107-.06.498-.005.46.05-.043.116-.124.185-.313.071-.19.028-.48.116-.473 2.183.133 3.181-1.205 3.279-1.297.094-.093 0-.201 0-.201s-.13-.129-.098-.152zM64.23 15.677c.186.37.138.719.317 1.061.231.46.666.516.73.518.063.005.05-.035.013-.043-.041-.01-.434-.035-.672-.504-.138-.264-.113-.743-.288-1.086-.266-.518-.805-.279-1.051-.122-.013.005-.038.023-.047.003-.006-.016.015-.03.03-.038.136-.077.32-.18.387-.242.094-.09-.107-.22-.126-.171-.04.082-.208.197-.342.266-.011.009-.034.015-.043.004-.005-.015.01-.027.028-.035.11-.06.238-.166.25-.267.01-.109-.078-.097-.11-.119-.363-.144-1.435-.377-2.111-.764-.496-.284-.915-.767-1.207-1.447-.083-.195-.185-.117-.23.028-.263.92-.193 1.569-.188 2.452-.002.39-.116.842-.263 1.071-.071.119-.308.142-.392.26-.054.073-.08.164-.112.251-.15.023-.354-.005-.508.012-.119.013-.228.026-.332.135-.1.1-.096.245.003.331.243.22.614.084.901-.109.094-.07.205-.097.296-.026.18.171.602.87.559 1.197-.007.056-.071.146-.13.187-.155.096-.272.124-.419.233-.188.138-.3.295-.306.492 0 .062.038.167.103.197.324.135.522-.226.694-.454.033-.04.134-.097.173-.122.09.032.176.068.25.043.093-.03.217-.194.283-.15.335.248.325.167.623.23 1.1.224 1.843 1.311 2.458 1.758.264.19.334.041.272-.135-.127-.371-.248-.706-.337-1.075-.32-1.247.34-3.12.47-3.405.026-.087.099-.283-.025-.271-.159.014-.253.046-.387.123-.013.002-.041.015-.046.002-.01-.012.01-.032.028-.038.233-.135.324-.135.411-.158.058-.014.07-.066.057-.11-.02-.065-.056-.078-.111-.075-.147.007-.276.086-.41.155-.018.013-.038.028-.05.01-.008-.018.007-.033.027-.04.266-.163.71-.342.88-.013zM61.965 34.723s.76-.114 1.133-.628c.384-.2.681-1.605.609-2.236.309-.35.413-.815.391-1.248.143.191.334.448.397.519.12.748.764 1.874.764 1.874s.147.389-.022.654c.372-.2.425-.5.387-.753.088-.147-.288-1.206-.69-2.002-.282-.289-.913-1.228-1.245-1.732-.058-.251-.086-.493-.086-.75.256.532.919 1.814 1.277 1.66.218.474 1.49 1.324 1.845 1.183.37.085.696-.081.854-.233-.323-.095-.8-.122-.8-.122s-1.176-.972-1.643-1.201c-.444-.557-1.028-1.6-1.499-1.976 0-.102-.006-.206-.026-.31.392.331 1.744 1.427 2.177 1.201.46-.24.601-.138.75-.314.154-.175.65-.801.516-1.69-.136-.891-.362-1.07-.362-1.07s-.022.826 0 1.027c.026.202-.646.609-.722 1.423-.592-.153-1.156-.717-1.531-.847-.38-.137-.653.006-.934-.157-.149-.425-.397-.816-.633-1.066-.248-.257-.638-.536-1.063-.705-.135-.333 0-.566-.078-.937-.077-.39-.64-.979-.762-1.577.817-.031 1.257-.685 1.457-.65.2.039 1.023.059 1.023.059s-.164-.238-1.041-.42c-.885-.184-1.53.28-1.715.425-.186.14-.092.285-.353.733-.255.432.834 1.918 1.077 2.245-.112-.027-.228-.04-.342-.043-.443-.68-1.306-1.123-1.851-1.61-.203-.477-1.107-1.708-1.107-1.708s0-.476-.08-.807c-.157.151-.345.468-.277.843-.164.347.618 1.67 1.074 1.912-.212.396 1.255 1.164 1.666 1.37-.314-.012-.608-.058-.909-.16-.359-.295-1.175-.974-1.466-1.287-.772-.452-1.808-.882-1.957-.8-.25-.056-.554-.018-.77.342.276-.155.654.013.654.013s1.081.71 1.825.867c.064.112.39.332.532.425-.428-.07-.912-.026-1.304.234-.752-.035-2.14.194-2.36.565-.53.346-.685 1.1-.685 1.1s.56-.592.8-.706c.053.13 1.304-.183 1.698-.285-.003.015-.013.028-.017.043-.11.28-.173.588-.2.903-.679.099-1.958.419-1.743 1.416-.323.675-.321 2.524.03 2.54.17.584 1.15 1.817 1.623 1.407-.501.001-.782-1.223-.695-1.44.256.223.984.938.949 1.08.132-.181-.41-1.419-.41-1.419s.018-1.37-.094-1.844c-.106-.423.266-.875.347-.967.073.796.342 1.572.727 2.103.678.914.549 1.201.549 1.201s.26 0 .4.152c.145.153.114.392.114.392s.286-.114 1.169.611c.505.422 1.272.734 2.066.847-.122.091-.589.42-.992.299-.463-.142-1.831-.196-1.831-.196s-1.207-.61-1.392-.487c.14-.026.818.737 1.028 1.007-.225.075-1.43-.272-1.402-.774-.431.455.74 1.496 1.313 1.704-.002.35 1.841.45 2.529.166 1.036.282 1.468-1.191 1.486-1.67.304-.01.601-.055.88-.143-.079.299-.416 1.597-.28 1.662-.126.235-.748.763-.748.763zM78.187 39.19l.086-.047-.051-.464.085-.049-.129-.458.123-.038s-.42-.529-.177-.498c.06.01-.372-.448-.271-.628.058-.105-.718-.369-.739-1.836-.007-.629-.002-2.036-.57-3.482-.808-2.063-1.012-3.345-.775-3.113.064.066.357.218.328.183-.011-.097-.011-.21-.011-.21l.24.182-.033-.115.274.216-.071-.159.202.175s.03-.125.07-.097c.101.079.301.224.301.224l-.04-.185.2.107.029-.135s.206.14.129.061c-.083-.084-.063-.125-.063-.125l.198.09s-.058-.14-.005-.065c.048.07.372.222.28.138-.094-.08-.4-.448-.557-.611-.164-.162-.443-.458-.572-.678-.123-.217-.242-.443-.496-.626-.25-.183-.466-.16-.665-.089-.601.213-.593-.695-1.34-1.935-.197-.324-.456-.547-.461-1.033-.03-2.035-1.402-2.139-1.72-2.41-.181-.154-.446-.026-.489-.017-.095.021-.185.064-.325-.002-.139-.068-.294-.204-.423-.307-.233-.192-.437-.265-.566-.127-.112.127-.236.216-.352.417-.117.201-.114.384-.08.521.034.139.439 1.31.36 1.493-.075.167-.815.732-1.323 1.805-.062.119-.472 1.117-.003 2.833.227.835.668 1.397.656 1.43-.178.366-.887 1.217-1.115 2.047-.152.552-.162 1.521-.065 2.02.098.47.308.968.666 1.403l.16-.354.055.135.184-.414.05.173.181-.41.056.15.208-.542.038.133.199-.603.072.119.101-.623.071.115.088-.68.18.187c-.018-.135-.031-.436-.034-.562 0-.25.095-.588.143-.42.017.055 1.071 1.983 2.164 2.79 1.084.805 1.684.842 2.074 1.477.144.239.367.549.227.885-.124.295-.471 1.15-.471 1.572 0 .546.282.982.35 1.096.136.233.212.692.212.692l.053-.15.143.036.152-.603.121.134.081-.648.051.125.175-.586.077.125s.092-.682.135-.508c.003.018.012.05.02.083.007-.08.017-.145.04-.193.1-.204.105-.445.107-.435.013.064.008-.415.023-.386.055.132.248.137.169.366-.033.097-.045.22-.056.336-.055.45.201 1.205.8 1.634.27.194.588.32.588.32l.187.068-.086-.267.261.047-.09-.22zM56.777 6.022c.064.032.142.076.228.13.205.149.401.276.576.39.577.41 3.118 2.051 3.657 2.847-.33-.102-.845-.549-1.82-1.298-.954-.76-2.256-1.315-2.874-1.73-.57-.317.158.25.272.382.658.736 2.014 1.539 2.014 1.539s-3.199-1.63-3.609-2.383c-.191-.247-.119.158.091.422.455.5 1.025 1.073 1.922 1.554.905.484 1.893.873 2.62 1.447-.162.301-1.89-.992-2.628-1.004-.031.017-.17.018.382.232 1.081.417 1.848 1.339 2.66 1.652.955.367 1.773.423 2.094.669.284.219.755.27 1.304.316-.407.086-.787.081-.982.027-.29-.076-.607-.332-.607-.332-.072.256 2.604 3.313 5.09 4.664 2.46 1.34 1.289 3.212 2.377 3.031 1.082-.183 2.11-.72 2.11-.72s.055-.106.027-.23c1.45.691 1.428.14.93-.273-.147-.122-.277-.262-.41-.4.121.04.273-.007.273-.007s.27-.857-.117-1.528c-.227-.387-1.159-.151-1.817-.914-.654-.76-.69-1.052-1.028-1.553-.985-1.468-4.109-3.686-4.109-3.686s.175.273-.035.49c-.082-.41-.266-.828-.977-1.08.014-.51-.357-.623-.722-.454-.37.16-.47.238-.47.238s-.872-1.085-2.25-1.53c-1.308-.426-2.417-1.503-3.245-2.065-.742-.47-.073.081.162.465.484.788 1.682 2.093 2.68 2.533 1.143.513 1.707 1.3 1.27 1.2-.444-.097-3.145-1.978-3.86-2.695-.662-.652-.844-1.28-1.857-1.743-.106-.046-.468-.218-.512-.172-.06.056.08.15.112.216-.22-.087-.868-.384-.744-.153.484.732 1.261 1.238 1.822 1.506zM64.959 39.72c-.007.007-.017.007-.022.01-.193.05-.517-.04-.633.015-.066.028-.046.044-.03.057.014.007.014.014.009.017-.23-.01-.475-.051-.612.015-.097.046-.097.028-.078.069.047.104-.08.028-.244-.053.003-.003.013-.007.018-.008.055-.04.253-.15.245-.115-.048.145.393-.085.363-.042-.058.086.217-.06.189-.006-.063.095.277-.078.263-.045-.042.087.13.005.289-.021.082-.015-.116.038.003.072.106.032.184-.04.275-.066.018.037.016.071-.035.1zm6.828 2.587c-.167.167-.726-1.1-.81-.586-.031.173-.812-.981-.782-.332 0 0-.732-.936-.706-.42.014.297-.37-.432-.458-.267-.317.602-.224-1.145-.446-.557-.043.117.098-.6-.122-.353-.09.1.106-.764-.124-.389-.055.091.126-.463-.094-.25-.091.09.365-.63.082-.483-.06.03.19-.175.267-.282.077-.095-.123-.024-.052-.102.103-.114.233-.127.306-.206.071-.082-.028-.094.022-.123.112-.076.325-.086.413-.197.165-.202-.218-.176-.223-.196-.005-.018.023-.102.05-.196.024-.092-.019-.191-.095-.156-.081.03-.14.199-.137.153.023-.191-.192.26-.195.105-.012-.217-.159.37-.179.26-.053-.298-.172.42-.188.28-.04-.35-.1.505-.265.434-.122-.057.243-.63.061-.606-.05.006.291-.343.16-.312-.035.007.085-.2.019-.222-.038-.013.203-.22.083-.196-.042.006.158-.221.1-.333-.038-.086-.158.043-.158.043s.016-.163-.063-.155c-.055.006-.16.198-.175.33-.008.073-.06.197-.085.176-.074-.068-.14.52-.17.458-.058-.116.033.498-.051.37-.081-.12-.033.347-.065.316-.087-.086-.03.199 0 .34.015.075-.04-.113-.074-.032-.031.08.055.303.088.389.034.095-.18-.07.008.306.09.183-.188-.015-.061.24.092.187.41.764.31.835-.032.026-.699-.599-.575-.215.033.104-.621-.58-.56-.314.033.16-.24.016-.33-.182h.003c0-.006-.004-.014-.012-.023-.001-.011-.01-.018-.011-.026-.018-.063-.035-.109-.052-.163 0-.1.034-.238.138-.445.211-.257-.019-.223-.01-.24.054-.075.24-.278.06-.255-.08.012.229-.278.135-.227-.104.053.286-.351.16-.31-.028.007.1-.107.152-.259.053-.141.012-.222-.054-.171-.004 0-.007.003-.01.007-.002-.063.117-.241.181-.289.12-.084.318-.455.338-.615.026-.215-.124-.118-.124-.118s.142-.373.077-.455c-.086-.114-.342.526-.322.409.048-.346-.2.394-.2.31-.003-.182-.212.505-.216.413-.004-.157-.162.495-.164.353-.003-.124-.051.145-.114.415-.01-.01-.015-.076-.065.038-.058.128-.067.191-.105.338-.07-.185.317-.948.153-.81-.03.032.276-.45.123-.336-.103.076.37-.655.238-.552-.144.122.358-.608.181-.494-.04.023.13-.194.179-.425.046-.221-.031-.31-.119-.215-.09.1-.246.4-.261.39-.01-.01.099-.622-.137-.366-.057.064-.245.416-.316.763-.031.151-.036-.119-.11.13-.077.247-.062.323-.121.682-.042.257-.065-.094-.116.205-.048.304.033.804-.038.698-.018-.028-.037-.06-.075.045-.076.184.007.723-.053 1.023-.014.074-.05.096-.079.09l-.031-.052v-.002c.036-.212.05-.263.05-.435 0-.188-.133.139-.125.01.017-.245.11-.474-.003-.399-.036.032.149-.514.03-.408-.063.052.094-.392-.012-.284-.054.053.179-.483.071-.578-.031-.03.015-.285.06-.378.082-.17.124-.608.09-.743-.057-.18-.163.026-.163.026s-.008-.398-.096-.403c-.124-.01-.12.677-.15.575-.086-.295-.037.465-.068.4-.073-.135-.015.55-.051.488-.065-.11.033.503-.018.399-.1-.173.193.859.033.832-.147-.023-.06-.98-.162-.732-.023.05.087-.568-.013-.354-.068.152.1-.8.02-.608-.088.21.102-.751-.017-.517-.032.056.046-.253.006-.467-.036-.2-.142-.2-.19-.05-.044.152-.079.505-.092.507-.022.006-.14-.536-.265-.15-.036.105-.076.517-.013.832.026.14-.076-.054-.058.19.022.248.065.288.142.601.055.214-.076.015-.038.216-.066-.213-.12-.55-.22-.672-.185-.233-.158.199-.314.001-.218-.282-.226-.702-.381-.905-.157-.194-.202.169-.261.02-.133-.34-.343-.634-.48-.633-.522.01-.228.867-.268.907-.04.034-.289-.266-.705-.335-.19-.034-.334.125-.272.355.067.247.516.278.417.303-.41.117.645.37.316.422-.298.047.719.359.473.43-.367.107.552.367.467.405-.425.173.757.373.656.775-.122.476-1.123-.257-.983.214.036.119-.641-.259-.555-.018.04.115-.673-.214-.435.099.084.112-.587-.076-.658.303-.05.26.375.214.375.214s-.411.254-.158.304c.26.052.64-.352.44-.019-.093.147.89-.285.816-.21-.441.43.97-.177.887-.02-.157.3.227.005.533.005.162 0 .565-.038.233.095-.324.127.272.256.466.28.135.02.144.086.086.136-.081-.037-.16-.068-.218-.063-.088.01-.085.038-.076.063.028.102-.253-.132-.486-.174-.235-.042-.012.086-.21.048-.273-.052-.316-.09-.524-.094-.212-.003-.033.083-.157.071-.273-.04-.618.036-.7.076-.317.152.158.226.154.247 0 .018-.29.08-.415.134-.12.059-.11.163.065.183.188.021.436-.078.393-.042-.183.139.608-.13.441-.028-.151.1.63-.143.516-.066-.173.12.34-.036.296-.013-.197.12.607-.04.641.107.045.155-.864-.054-.705.027.09.046-.438-.004-.34.053.057.03-.53.026-.408.085.057.023-.59.04-.328.096.09.023-.495.07-.473.196.016.08.32.064.347.06v.004c-.01.012-.051.046-.061.08-.015.003-.027.004-.05.004-.264-.005-.66-.001-.398.238.175.154-.939-.22-.668.079.13.14-.522.003-.788.255-.435.41.224.569.233.613.006.041-.228.335-.359.52-.132.185-.046.423.208.4.268-.03.546-.361.506-.266-.162.402.759-.555.592-.235-.15.285.772-.603.668-.373-.167.348.413-.237.396-.16-.086.449.495-.37.638-.05.15.35-.917.265-.65.392.16.072-.6.174-.427.263.099.048-.708.282-.506.366.096.045-.784.343-.392.37.137.01-.63.372-.524.652.078.196.524-.007.524-.007s-.038.388.225.25c.322-.17.618-.757.631-.469.012.28.435-.527.43-.45-.026.384.539-.506.529-.352-.025.435.339-.299.324-.132-.023.334.45-.38.441-.272-.048.435.59-.508.491-.22-.107.322.379-.09.564-.18.201-.095-.042.302.241.113.281-.195.461-.269.605-.338.367-.138.126.22-.064.38-.209.174-.614.235-.752.41-.078.097-.042.115-.019.135.108.069-.332.108-.572.291-.24.177.06.093-.142.244-.29.213-.55.526-.562.678-.011.298.29-.025.21.113-.173.302-.368.908-.358 1.032.02.463.33-.06.353-.051.018.015-.056.399-.05.578.006.175.13.221.236.022.112-.208.105-.552.14-.488.155.293.071-.778.185-.54.13.271.096-.815.174-.653.137.29.196-.407.201-.348.025.435.372-.591.559-.465.16.11-.431.874-.281.78.09-.054-.193.448-.02.3.048-.035-.13.418.023.291.042-.036-.06.497.09.254.04-.066.105.364.23.327.09-.027.039-.282.039-.282s.132.1.162-.03c.021-.095-.081-.367-.185-.45-.058-.05.036-.06.068-.044.084.05-.088-.468-.047-.429.124.106.017-.25.066-.16.091.173.131-.45.15-.392.047.158.207-.51.278-.336.072.191.172-.51.176-.46 0 .053.076.232.215-.166.064-.198.44-.566.77-.696.104-.038.441-.105.355.008-.332.41.9-.194.61.094-.264.264.757.042.903.025.167-.018-.268.162-.052.195.258.037.41-.037.56-.071.249-.058-.303.2.12.214.193.005.468-.003.507-.038-.443.206.522.252.392.348-.243.19.83.275.625.35-.237.091.844.13.793-.235-.016-.107-.395-.95-.694-.656zM23.099 69.112c-1.134-.013-2.162.556-2.85 1.192-.684.635.608.283.947.188 1.028-.275 2.005.135 2.93.95.444.386 1.63.309 2.004-.215.5-.706-1.132-2.093-3.031-2.115z" clip-rule="evenodd"></path>
				<path fill="currentColor" fill-rule="evenodd" d="M23.681 63.897c-.608 0-1.572-.075-2.353-.85-1.225-1.209-3.096-2.016-4.46-2.148-1.362-.134-2.342-.182-4.631.61-2.566.885-2.035 2.67-1.04 2.874.997.2 2.322-.346 2.929-1.383.484-.829 1.6-1.623 2.785-1.233.739.24 2.132 1.45 2.008 2.565-.057.499-2.18.17-5.231 2.081-2.227 1.4-1.612 3.873-.261 5.132 1.35 1.257 3.15 1.918 4.676 1.83 1.527-.085 3.573-.782 3.443-1.26-.13-.478-.676-.702-1.413-.52-.6.146-1.723.092-2.218-1.14-.425-1.054 1.363-2.335 3.064-2.727 1.7-.39 6.625-1.546 6.233-2.798-.392-1.256-2.922-1.034-3.53-1.034zM26.626 57.929c-3.432-.65-2.66.262-2.399.738-.302.023-.79-.334-2.616-.348-1.498-.008-2.828.912-2.828.912-.481.308-.663 1.005-.427.84.233-.166 1.126-.417 2.296-.404 1.836.015 2.094 1 4.665 1.042 1.922.035 4.19-.62 4.367-1.4.127-.489-2.138-1.207-3.058-1.38zM11.929 20.887c.292-.368.625-.68.934-1.022.178-.183.358-.39.527-.592.18-.206.41-.344.6-.542.345-.321.722-.626 1.13-.891.343-.24.799-.375 1.184-.524.473-.195.922-.238 1.382-.009.23.112.48.114.742.15l.575.088c.22.03.435-.019.643-.094.42-.15.846-.43 1.195.037.118.157.228.437.179.627-.133-.214-.357-.1-.547-.046-.232.066-.485.127-.713.209-.253.094-.502.21-.747.325-.357.166-.702.46-.861.822-.068.153-.12.254.036.3.118.036.298-.015.417-.038.208-.04.413-.063.621-.092.425-.06.84-.04 1.26-.149.51-.132 1.041-.28 1.56-.295.247-.008.461-.05.708-.084.252-.033.484-.148.73-.204.199-.044.364-.015.547.063.433.176.708.496 1.086.751.213.143.347.396.575.516.452.245.95.557 1.232 1.002.309.49.752.89 1.043 1.396.278.484.514 1.01.674 1.542.103.333.238.676.136 1.032-.05.18-.14.139-.303.074-.165-.067-.325-.146-.497-.193-.222-.057-.442-.164-.64-.26-.129-.064-.215-.155-.327-.24-.22-.172-.557-.221-.812-.307-.18-.063-.411-.157-.565-.259-.165-.105-.3-.257-.481-.336-.093-.038-.19-.045-.278-.096-.1-.057-.167-.14-.27-.19-.3-.138-.632-.24-.895-.423-.32-.219-.744-.168-1.09-.34-.161-.08-.257-.138-.442-.111-.118.014-.187.046-.306.013-.09-.03-.155-.099-.26-.104-.072-.005-.13.051-.203.038-.084-.017-.112-.112-.21-.105-.149.01-.213.186-.39.164-.064-.006-.135-.075-.187-.075-.066-.002-.125.06-.185.08-.155.043-.322.013-.484.015-.129 0-.268.021-.393.015-.075-.003-.15-.035-.227-.033-.144.002-.284.04-.426.05-.167.013-.33-.047-.494-.048-.215-.002-.444.062-.648.127-.166.049-.324.1-.498.131-.264.047-.302.091-.466.297-.488.62-1 1.223-1.569 1.772-.286.275-.583.548-.904.782-.264.196-.6.297-.85.511-.214.188-.43.37-.657.544-.53.407-1.048.791-1.638 1.104-.503.266-1.07.521-1.481.915-.35.333-.389.717-.478 1.163-.076.396-.502.6-.7.927-.224.379-.47.8-.796 1.109-.307.29-.499.675-.861.908-.413.26-.023-.233-.04-.316-.26.205-.07-.235-.01-.33.131-.195.286-.427.467-.584.132-.117.279-.199.385-.334.082-.109.135-.223.228-.323.13-.14.253-.29.383-.432.083-.09.212-.198.205-.323-.18.05-.397.21-.57.297-.217.108-.375.321-.57.461-.205.147-.815 1-1.075.717-.06-.063.137-.133-.109-.105-.038.003-.282.115-.297.098-.123-.115.348-.463.423-.524-.165-.03.021-.206.038-.293.044-.201-.068-.229-.215-.112-.218.173-.546.476-.82.555-.02-.202.068-.405.17-.572.152-.255.34-.398.562-.596.266-.234.463-.546.695-.813.14-.16.282-.316.418-.482.127-.157.162-.27.234-.444.12-.29.382-.507.55-.764.22-.34.426-.698.684-1.01.198-.243.378-.497.433-.811.013-.078.046-.188-.022-.253-.088-.085-.142.018-.248-.006-.097-.022-.112-.13-.2-.149-.084-.016-.152.078-.228.12-.21.121-.42.268-.651.21-.572-.133-.964.28-1.238.765-.326.575-.752 1.064-1.126 1.603-.456.656-1.011 1.218-1.487 1.856-.453.605-.8 1.284-1.214 1.913-.223.335-.418.765-.854.75.117-.51.172-1.074.468-1.524.391-.595.889-1.108 1.257-1.716.273-.451.54-.942.698-1.447.071-.217.185-.42.264-.634.048-.134.086-.282.174-.4.104-.14.21-.167.28-.322.12-.267.28-.485.49-.69.149-.144.294-.29.435-.44.164-.177.246-.373.37-.573.124-.199.313-.334.466-.507.152-.167.265-.363.43-.52.284-.266.643-.469.97-.683.549-.356 1.218-.432 1.8-.714.303-.146.607-.306.904-.46.458-.232.835-.642 1.156-1.036zM6.311 49.25v-.02c-.001-.174-.13-.356-.201-.516-.132-.297-.278-.585-.43-.879-.154-.301-.324-.614-.524-.901-.213-.307-.52-.572-.496-.974.05-.87 1.169-.806 1.825-.96.44-.102.863-.261 1.294-.38.397-.112 1.72-.49 1.34-1.107-.222-.366-.958-.302-1.33-.287-.24.01-.755.145-.77-.21-.008-.206.12-.354.297-.435.338-.151.652-.202 1.022-.232.387-.035.7-.145 1.073-.237.626-.152 1.094-.086 1.598.33.357.296.775.51 1.145.785.356.266.78.195 1.209.234.47.042.937.038 1.4.132.535.109 1.05.29 1.529.537.25.13.543.164.783.315.152.096.29.22.435.325.213.158 1.086.99 1.064.269-.021-.635-.856-.609-1.256-.876-.355-.235-.43-.772.073-.82.654-.066 1.29.306 1.907.456.637.155 1.275.57 1.691 1.057.149.173.408.367.413.611.005.23-.142.368-.3.493-.255.207-.668.22-.843.498-.091.143-.14.304-.258.441-.152.178-.362.257-.328.496.058.437-.122.898-.02 1.319.1.402.711.364 1.062.364.233 0 .433.01.643.107.175.082.302.178.489.155.178-.02.274-.087.423.08.184.207.127.533.182.779.063.298.231.57.42.809.149.194.401.5.282.731-.158.317-.514.244-.811.32-.522.134-1.177.528-1.726.282-.273-.12-.486-.35-.75-.491-.442-.238-1.14-.506-1.665-.35-.177.053-.325.172-.499.23-.173.056-.387.082-.529.209-.14.127-.205.311-.388.428-.225.137-.481.225-.73.309-.328.115-.685.135-1.012.258-.113.043-.346.127-.402.248-.073.15.1.339.139.482.056.231.078.46.116.69.079.497.04 1.224-.491 1.47-.235.096-.51.192-.747.268-.334.135-.667.077-1 .077-.296 0-.513.134-.807.192-.336.075-.59.097-.944.075-.569-.018-1.198 0-1.729-.267-.529-.286-1.08-.515-1.473-.993-.137-.172-.196-.383-.238-.576-.077-.342.217-.342.495-.342.47 0 .94-.154 1.413-.134.707.02 1.435.345 2.14.249.652-.096.276-.804.062-1.129-.257-.42-.825-.591-1.28-.783-.572-.224-1.1-.535-1.641-.82-.108-.056-.258-.173-.38-.19-.113-.016-.27.051-.385.064-.313.041-.633.037-.948.047-.224.008-.416.12-.64.154-.237.035-.495.022-.738.018-1.002-.011-1.572-.723-1.853-1.568-.048-.14-.083-.287-.157-.414-.094-.16-.271-.274-.388-.407-.214-.242-.285-.62-.06-.88.294-.343.661.05.964.194.355.172.706.55 1.104.605.383.054.818-.298 1.155-.072M11.377 36.799s-1.997-1.557-4.822-.592c-2.823.968-2.828 1.722-2.828 1.722s-.344.638-.664.749c-.324.112-2.572-.429-2.95-.43-.38-.002.298.606.487.983.188.38.395.511.395.511s.142 1.72.026 1.87c-.114.15 1.066-1.184 1.37-1.332.303-.15.458-.604.875-.618.417-.017 1.623.33 2.762.052 1.136-.278.3.134.3.134l.826.048 1.676-.808c.342-.17 1.65-.674 1.897-1.028.25-.358.46-.696.668-.752.208-.056.246-.356-.018-.51zM18.026 39.424s-.786-1.15-2.106-1.05c-1.32.104-1.372.512-1.372.512s-.195.297-.346.309c-.15.014-1.114-.62-1.282-.676-.169-.06.092.376.15.608.06.236.142.338.142.338s-.05.96-.11 1.023c-.062.066.55-.483.695-.519.146-.036.245-.258.43-.206.185.053.703.425 1.227.445.524.018.124.117.124.117l.365.152s.635-.148.798-.191c.164-.038.779-.116.913-.276.132-.154.25-.308.345-.306.096.002.132-.158.027-.28zM9.264 33.181s1.145-1.75 3.13-1.635c1.987.114 2.076.73 2.076.73s.301.442.528.457c.225.013 1.658-.964 1.909-1.057.25-.094-.13.567-.212.922-.08.35-.201.51-.201.51s.102 1.434.196 1.533c.093.094-.844-.712-1.063-.761-.218-.05-.371-.384-.65-.299-.278.088-1.04.66-1.827.704-.787.043-.185.18-.185.18l-.543.237s-.958-.204-1.204-.259c-.247-.057-1.172-.154-1.377-.39-.207-.23-.385-.457-.53-.452-.143.004-.204-.235-.047-.42zM301.853 37.396c-1.503 0-2.883-1.173-2.883-2.874 0-1.668 1.324-2.89 2.883-2.89 1.681 0 2.907 1.318 2.899 2.896-.008 1.597-1.268 2.868-2.899 2.868zm.016-5.407c-1.43 0-2.542 1.137-2.542 2.533 0 1.41 1.142 2.516 2.534 2.516 1.421 0 2.522-1.112 2.532-2.51.008-1.387-1.077-2.54-2.524-2.54z" clip-rule="evenodd"></path>
				<path fill="currentColor" fill-rule="evenodd" d="M301.822 32.767c.355 0 .595.007.81.084.37.132.557.472.557.801 0 .439-.271.709-.711.824.278.12.417.252.494.724.078.522.108.717.262 1.023h-.7c-.033-.056-.086-.18-.14-.478-.018-.077-.07-.446-.084-.532-.095-.491-.334-.529-.782-.537h-.215v1.547h-.618v-3.456h1.127zm-.503 1.416h.51c.248 0 .742.007.742-.478 0-.132-.055-.321-.247-.409-.123-.05-.2-.05-.609-.05h-.396v.937z" clip-rule="evenodd"></path>
			</svg>