<?xml version="1.0" encoding="utf-8"?>
<!-- Generator: Adobe Illustrator 24.1.2, SVG Export Plug-In . SVG Version: 6.00 Build 0)  -->
<svg version="1.1" id="Layer_1" xmlns="http://www.w3.org/2000/svg" xmlns:xlink="http://www.w3.org/1999/xlink" x="0px" y="0px"
	 viewBox="0 0 573.06 149.04" style="enable-background:new 0 0 573.06 149.04;" xml:space="preserve">
<style type="text/css">
	.st0{fill:#26272A;}
</style>
<g>
	<g>
		<path class="st0" d="M51.49,147.66c-1.17,0.34-2.35,0.66-3.53,0.99h40.73c19.51-6.83,37.92-14.46,54.18-22.97
			c1.7-0.89,3.39-1.79,5.07-2.69v-16c-7.09,4.28-14.48,8.42-22.08,12.4C104.37,130.63,78.39,139.97,51.49,147.66z"/>
		<path class="st0" d="M91.33,0.71H60.24c-0.11,0.06-0.21,0.13-0.32,0.19C40.18,12.83,19.71,29.25,0,47.31v16.86
			c18.17-17.6,37.64-34.06,56.37-45.38C68.07,11.72,79.86,5.55,91.33,0.71z"/>
		<path class="st0" d="M50.99,132.79c-17.04,4.87-34.55,8.88-50.98,12.14c0.04,1,0.46,1.91,1.13,2.58c0.7,0.7,1.67,1.14,2.73,1.14
			h35.9c3.72-1,7.43-2.02,11.13-3.08c26.81-7.67,52.67-16.97,73.97-28.1c7.97-4.17,15.69-8.51,23.08-13.02V85.8
			c-11.6,9.11-25.31,17.65-40.09,25.38C91.41,119.78,71.55,126.91,50.99,132.79z"/>
		<path class="st0" d="M88.84,101.05c10.76-5.62,20.68-11.87,28.87-18.51c8.19-6.63,14.62-13.66,18.43-20.8
			c2.54-4.76,3.91-9.55,3.91-14.34c0-4.33-1.12-8.68-3.59-13.06c-2.8-4.95-6.45-8.41-10.82-10.66c-4.37-2.25-9.47-3.3-15.15-3.3
			c-7.87,0-16.82,2.02-26.26,5.54c-9.44,3.52-19.36,8.53-29.19,14.47C36.47,51.62,16.6,70.47,0,88.32v10.55
			c1.38-1.46,2.81-2.96,4.29-4.48c14.46-14.9,33.15-32.36,50.32-42.64c8.2-4.91,16.43-9.09,24.21-12.06
			c7.78-2.97,15.09-4.73,21.47-4.73c3.97,0,7.59,0.69,10.71,2.22c3.12,1.54,5.71,3.94,7.58,7.26c1.6,2.83,2.35,5.77,2.35,8.72
			c0,3.79-1.23,7.59-3.39,11.31c-2.16,3.72-5.26,7.39-9.05,10.98c-7.6,7.17-18.01,14-29.52,20.08c-8.83,4.67-19.38,8.73-30.25,12.21
			c-10.87,3.48-22.05,6.37-32.14,8.69c-6.02,1.38-11.65,2.56-16.58,3.53v6.99c15.14-2.59,32.88-6.22,49.89-11.08
			C64.02,111.8,77.65,106.9,88.84,101.05z"/>
		<path class="st0" d="M33.53,0.71C22.33,9.07,11.1,18.27,0,28.01v16.37c18.44-16.79,37.53-32.1,56.11-43.66H33.53z"/>
		<path class="st0" d="M3.87,0.71c-1.06,0-2.03,0.44-2.73,1.14C0.44,2.55,0,3.52,0,4.58v20.54C9.91,16.49,19.92,8.27,29.92,0.71
			H3.87z"/>
		<path class="st0" d="M95.15,148.65h48.92c1.06,0,2.03-0.43,2.73-1.14c0.7-0.7,1.14-1.67,1.14-2.73v-19.33
			c-1.35,0.72-2.7,1.44-4.07,2.15C129.11,135.33,112.61,142.33,95.15,148.65z"/>
		<path class="st0" d="M146.81,1.85c-0.7-0.7-1.67-1.14-2.73-1.14H97.08C84.22,5.74,70.8,12.61,57.49,20.65
			C38.46,32.14,18.53,49.12,0,67.2v17.95c16.34-17.42,35.63-35.54,53.94-46.61c9.92-6,19.95-11.07,29.55-14.65
			c9.6-3.58,18.77-5.67,27.01-5.67c5.94,0,11.4,1.09,16.14,3.54c4.74,2.44,8.73,6.24,11.71,11.53c2.63,4.67,3.87,9.41,3.87,14.13
			c0,5.21-1.5,10.36-4.17,15.36c-2.67,5-6.51,9.87-11.24,14.56c-9.46,9.38-22.49,18.07-36.96,25.64
			c-11.39,5.96-25.14,10.89-39.36,14.96c-14.22,4.07-28.92,7.27-42.2,9.73c-2.83,0.52-5.6,1.01-8.29,1.47v13.6
			c16.27-3.23,33.57-7.2,50.39-12.02c20.47-5.86,40.22-12.96,56.46-21.45c15.26-7.98,29.36-16.82,41.09-26.22V4.58
			C147.94,3.52,147.51,2.55,146.81,1.85z"/>
	</g>
	<g>
		<g>
			<g>
				<polygon class="st0" points="166.86,148.64 170.49,148.64 170.49,126.95 192.11,126.95 192.11,123.73 170.49,123.73 
					170.49,104.06 195.87,104.06 195.87,100.83 166.86,100.83 				"/>
				<path class="st0" d="M218.63,100.43c-4.5,0-8.8,1.75-11.95,4.9c-4.36,4.36-4.43,8.59-4.43,19.4c0,10.81,0.07,15.04,4.43,19.4
					c3.15,3.16,7.45,4.9,11.95,4.9c4.5,0,8.8-1.75,11.95-4.9c4.36-4.36,4.43-8.59,4.43-19.4c0-10.81-0.07-15.04-4.43-19.4
					C227.43,102.18,223.13,100.43,218.63,100.43z M227.69,142.13c-2.42,2.42-5.64,3.69-9.06,3.69c-3.42,0-6.65-1.27-9.06-3.69
					c-3.43-3.42-3.69-7.12-3.69-17.39s0.27-13.97,3.69-17.39c2.42-2.42,5.64-3.69,9.06-3.69c3.42,0,6.65,1.28,9.06,3.69
					c3.43,3.42,3.69,7.12,3.69,17.39S231.12,138.7,227.69,142.13z"/>
				<path class="st0" d="M276.31,132.66c0,7.92-5.1,13.16-12.76,13.16c-7.65,0-12.76-5.24-12.76-13.16v-31.83h-3.63v32.3
					c0,9.33,6.78,15.91,16.38,15.91s16.38-6.58,16.38-15.91v-32.3h-3.63V132.66z"/>
				<polygon class="st0" points="325.19,142.26 297.6,100.83 293.97,100.83 293.97,148.64 297.6,148.64 297.6,107.08 325.19,148.64 
					328.82,148.64 328.82,100.83 325.19,100.83 				"/>
				<path class="st0" d="M371.52,105.2c-2.82-2.82-6.98-4.37-11.95-4.37h-16.05v47.8h16.05c4.97,0,9.13-1.54,11.95-4.36
					c4.83-4.83,4.63-13.76,4.63-20.21C376.15,117.62,376.36,110.03,371.52,105.2z M368.97,141.72c-2.75,2.82-6.44,3.69-10.27,3.69
					h-11.55v-41.36h11.55c3.83,0,7.52,0.87,10.27,3.69c3.83,3.89,3.56,11.01,3.56,16.32C372.53,129.37,372.8,137.83,368.97,141.72z"
					/>
				<path class="st0" d="M399.52,100.83l-17.59,47.8h3.89l4.16-11.62h22.29l4.16,11.62h3.89l-17.59-47.8H399.52z M391.13,133.8
					l10-28.13l10.01,28.13H391.13z"/>
				<polygon class="st0" points="419.26,104.06 433.49,104.06 433.49,148.64 437.12,148.64 437.12,104.06 451.42,104.06 
					451.42,100.83 419.26,100.83 				"/>
				<rect x="460.76" y="100.83" class="st0" width="3.63" height="47.8"/>
				<path class="st0" d="M493.59,100.43c-4.5,0-8.79,1.75-11.95,4.9c-4.36,4.36-4.43,8.59-4.43,19.4c0,10.81,0.07,15.04,4.43,19.4
					c3.16,3.16,7.45,4.9,11.95,4.9c4.5,0,8.8-1.75,11.95-4.9c4.36-4.36,4.43-8.59,4.43-19.4c0-10.81-0.07-15.04-4.43-19.4
					C502.38,102.18,498.09,100.43,493.59,100.43z M502.65,142.13c-2.42,2.42-5.64,3.69-9.06,3.69c-3.42,0-6.65-1.27-9.06-3.69
					c-3.42-3.42-3.69-7.12-3.69-17.39s0.27-13.97,3.69-17.39c2.42-2.42,5.64-3.69,9.06-3.69c3.43,0,6.65,1.28,9.06,3.69
					c3.42,3.42,3.69,7.12,3.69,17.39S506.08,138.7,502.65,142.13z"/>
				<polygon class="st0" points="554.02,142.26 526.42,100.83 522.8,100.83 522.8,148.64 526.42,148.64 526.42,107.08 
					554.02,148.64 557.64,148.64 557.64,100.83 554.02,100.83 				"/>
			</g>
		</g>
		<g>
			<path class="st0" d="M205.22,68.24c0.68-2.93,1.03-6.1,1.03-9.52c0-2.96-0.15-5.6-0.46-7.92c-0.3-2.32-0.9-4.37-1.77-6.16
				c-0.88-1.78-2.11-3.34-3.71-4.67c-1.6-1.33-3.69-2.49-6.27-3.48l-8.89-3.53c-1.52-0.61-2.72-1.22-3.59-1.82
				c-0.88-0.61-1.54-1.31-2-2.11c-0.46-0.8-0.74-1.75-0.86-2.85c-0.12-1.1-0.17-2.45-0.17-4.05c0-1.37,0.11-2.68,0.34-3.93
				s0.63-2.36,1.2-3.31c0.57-0.95,1.37-1.73,2.39-2.34c1.03-0.61,2.34-0.91,3.93-0.91c2.96,0,5.07,0.97,6.33,2.91
				c1.25,1.94,1.88,4.24,1.88,6.9v2.62h11.63v-5.7c0-2.28-0.46-4.51-1.37-6.67c-0.91-2.17-2.22-4.12-3.93-5.87
				c-1.71-1.75-3.76-3.15-6.16-4.22c-2.39-1.06-5.04-1.6-7.92-1.6c-3.35,0-6.27,0.59-8.78,1.77c-2.51,1.18-4.58,2.76-6.21,4.73
				c-1.64,1.98-2.87,4.33-3.71,7.07c-0.84,2.74-1.25,5.62-1.25,8.67c0,5.09,0.86,9.33,2.57,12.71c1.71,3.38,5.07,6.1,10.09,8.15
				l8.32,3.42c1.44,0.61,2.6,1.18,3.48,1.71c0.87,0.53,1.56,1.22,2.05,2.05c0.49,0.84,0.81,1.94,0.97,3.31
				c0.15,1.37,0.23,3.12,0.23,5.24c0,1.82-0.07,3.5-0.23,5.02c-0.15,1.52-0.51,2.8-1.08,3.82c-0.57,1.03-1.41,1.82-2.51,2.4
				c-1.1,0.57-2.64,0.85-4.62,0.85c-2.96,0-5.07-0.85-6.33-2.56c-1.26-1.71-1.88-3.63-1.88-5.76v-3.65h-11.63v4.33
				c0,2.74,0.51,5.28,1.54,7.64c1.03,2.36,2.41,4.39,4.16,6.1c1.75,1.71,3.84,3.06,6.27,4.05c2.43,0.98,5.05,1.48,7.87,1.48
				c3.72,0,6.88-0.61,9.46-1.82c2.58-1.22,4.65-2.87,6.21-4.96C203.41,73.68,204.53,71.17,205.22,68.24z"/>
			<path class="st0" d="M250.94,71.03c0.99-2.28,1.48-4.75,1.48-7.41V0.68h-11.63v61.8c0,2.89-0.68,5.02-2.05,6.39
				c-1.37,1.37-3.08,2.05-5.13,2.05c-2.05,0-3.76-0.68-5.13-2.05c-1.37-1.37-2.05-3.5-2.05-6.39V0.68h-11.63v62.94
				c0,2.66,0.49,5.13,1.48,7.41c0.99,2.28,2.34,4.28,4.05,5.99c1.71,1.71,3.71,3.06,5.99,4.05c2.28,0.98,4.71,1.48,7.3,1.48
				c2.58,0,5.02-0.5,7.3-1.48c2.28-0.99,4.28-2.34,5.99-4.05C248.6,75.31,249.95,73.31,250.94,71.03z"/>
			<path class="st0" d="M292.44,44.81c3.73-2.05,6.33-4.77,7.81-8.15c1.48-3.38,2.22-7.43,2.22-12.15
				c0-15.89-6.84-23.83-20.52-23.83h-18.7v81.18h11.63V47.21h6.96l10.83,34.66h12.31L292.44,44.81z M290.5,29.7
				c-0.23,1.56-0.67,2.87-1.31,3.93c-0.65,1.06-1.58,1.88-2.79,2.45c-1.22,0.57-2.85,0.85-4.9,0.85h-6.61V11.63h6.04
				c2.13,0,3.84,0.27,5.13,0.8c1.29,0.53,2.3,1.35,3.02,2.45c0.72,1.1,1.2,2.43,1.43,3.99c0.23,1.56,0.34,3.36,0.34,5.42
				C290.85,26.34,290.73,28.14,290.5,29.7z"/>
			<polygon class="st0" points="346.37,11.63 346.37,0.68 311.71,0.68 311.71,81.87 323.34,81.87 323.34,47.21 343.41,47.21 
				343.41,36.26 323.34,36.26 323.34,11.63 			"/>
			<path class="st0" d="M390.78,36.66c1.48-3.38,2.22-7.43,2.22-12.15c0-15.89-6.84-23.83-20.52-23.83h-18.7v81.18h11.63V47.21h6.96
				l10.83,34.66h12.31l-12.54-37.06C386.7,42.76,389.3,40.04,390.78,36.66z M381.04,29.7c-0.23,1.56-0.67,2.87-1.31,3.93
				c-0.65,1.06-1.58,1.88-2.79,2.45c-1.22,0.57-2.85,0.85-4.9,0.85h-6.61V11.63h6.04c2.13,0,3.84,0.27,5.13,0.8
				c1.29,0.53,2.3,1.35,3.02,2.45c0.72,1.1,1.2,2.43,1.42,3.99c0.23,1.56,0.34,3.36,0.34,5.42
				C381.38,26.34,381.26,28.14,381.04,29.7z"/>
			<rect x="402.58" y="0.68" class="st0" width="11.63" height="81.18"/>
			<path class="st0" d="M442.61,0.68h-17.22v81.18h16.19c6.92,0,12.22-1.8,15.91-5.42c3.69-3.61,5.53-9.22,5.53-16.82V21.66
				c0-6.61-1.75-11.76-5.25-15.45C454.27,2.53,449.22,0.68,442.61,0.68z M451.39,60.77c0,3.5-0.68,6.06-2.05,7.7
				c-1.37,1.64-3.69,2.45-6.96,2.45h-5.36V11.63h5.36c3.42,0,5.78,0.87,7.07,2.62c1.29,1.75,1.94,4.22,1.94,7.41V60.77z"/>
			<polygon class="st0" points="472.43,81.87 507.09,81.87 507.09,70.24 484.06,70.24 484.06,46.41 504.12,46.41 504.12,35.46 
				484.06,35.46 484.06,11.63 507.09,11.63 507.09,0.68 472.43,0.68 			"/>
			<path class="st0" d="M527.55,47.21h6.96l10.83,34.66h12.31l-12.54-37.06c3.72-2.05,6.33-4.77,7.81-8.15
				c1.48-3.38,2.22-7.43,2.22-12.15c0-15.89-6.84-23.83-20.53-23.83h-18.7v81.18h11.63V47.21z M527.55,11.63h6.04
				c2.13,0,3.84,0.27,5.13,0.8c1.29,0.53,2.3,1.35,3.02,2.45c0.72,1.1,1.2,2.43,1.42,3.99c0.23,1.56,0.34,3.36,0.34,5.42
				c0,2.05-0.11,3.86-0.34,5.42c-0.23,1.56-0.67,2.87-1.31,3.93c-0.65,1.06-1.58,1.88-2.79,2.45c-1.22,0.57-2.85,0.85-4.9,0.85
				h-6.61V11.63z"/>
		</g>
	</g>
</g>
<g>
	<path class="st0" d="M569.1,140.69c2.18,0,3.96,1.78,3.96,3.96c0,2.18-1.78,3.96-3.96,3.96c-2.18,0-3.96-1.78-3.96-3.96
		C565.14,142.48,566.93,140.69,569.1,140.69z M569.1,147.72c1.69,0,3.07-1.38,3.07-3.07s-1.38-3.07-3.07-3.07
		c-1.69,0-3.07,1.38-3.07,3.07S567.41,147.72,569.1,147.72z M567.51,146.64v-4.09h1.67c1.13,0,1.52,0.67,1.52,1.24
		c0,0.64-0.33,1.03-0.88,1.22l1.08,1.63h-0.92l-1-1.52h-0.66v1.52H567.51z M569.01,144.44c0.61,0,0.88-0.19,0.88-0.63
		c0-0.38-0.28-0.55-0.8-0.55h-0.77v1.17H569.01z"/>
</g>
</svg>
