<?xml version="1.0" encoding="utf-8"?>
<!-- Generator: Adobe Illustrator 15.0.0, SVG Export Plug-In . SVG Version: 6.00 Build 0)  -->
<!DOCTYPE svg PUBLIC "-//W3C//DTD SVG 1.1//EN" "http://www.w3.org/Graphics/SVG/1.1/DTD/svg11.dtd">
<svg version="1.1" id="Layer_1" xmlns="http://www.w3.org/2000/svg" xmlns:xlink="http://www.w3.org/1999/xlink" x="0px" y="0px"
	 width="142.285px" height="100px" viewBox="0 0 142.285 100" enable-background="new 0 0 142.285 100" xml:space="preserve">
<g>
	<path fill-rule="evenodd" clip-rule="evenodd" fill="#AF9C32" d="M50.517,75.56c1.408,1.748,8.717,17.943,11.27,24.207
		c-0.772,0-1.946-0.008-2.956-0.008c-2.184-4.34-7.273-16.051-8.172-17.336c-0.907,1.164-5.957,12.781-8.184,17.344
		c-0.955,0-2.047-0.008-2.952-0.008C43.115,91.523,46.578,83.455,50.517,75.56z"/>
	<path fill-rule="evenodd" clip-rule="evenodd" fill="#AF9C32" d="M71.768,0C46.172,0,23.762,14.051,11.377,35.076
		c2.224-1.496,4.745-2.918,6.938-4.155c6.342-3.571,22.974-10.003,24.238-10.073c1.286-0.074,26.213,12.69,26.713,12.847
		c1.486-0.481,25.121-13.886,27.012-13.431c13.592,3.33,26.892,9.264,36.882,16.59C121.012,14.844,98.071,0,71.768,0z"/>
	<path fill="#697432" d="M24.384,45.201C16.701,45.822,8.755,49.189,3.839,52.9c-1.454,5.291-2.345,10.824-2.595,16.529
		c3.486,0,27.872,0,37.281,0c0,0,10.778-15.42,11.845-17.08C43.857,47.962,35.465,44.295,24.384,45.201z"/>
	<path fill="#AF9C32" d="M32.739,41.126c-0.801-0.091-3.74-0.407-4.705-0.407c-1.163,0-5,0.141-7.929,0.689
		c-5.398,1.047-10.017,2.872-14.196,5.133c-0.521,1.389-1.003,2.795-1.441,4.225c0.688-0.73,1.776-1.295,2.685-1.775
		c3.453-1.82,7.122-3.558,11.244-4.373c13.834-2.764,27.39,1.17,34.598,7.732c-4.082,5.412-12.256,16.926-12.344,17.07l3.074,0.01
		c0,0,9.67-13.576,13.063-17.223c-4.629-4.733-10.754-7.96-18.108-9.964C37.543,41.934,33.508,41.211,32.739,41.126z"/>
	<path fill="#AF9C32" d="M138.908,50.26c-0.436-1.38-0.908-2.744-1.419-4.088c-0.087-0.033-0.163-0.066-0.254-0.098
		c-8.204-2.793-18.109-5.012-28.75-3.718c-1.071,0.132-5.446,0.821-7.194,1.274c-2.611,0.715-7.816,2.773-8.447,3.052
		c-1.896,0.833-3.734,1.865-5.439,2.969c-5.615,3.624-9.822,7.95-9.887,7.956c-2.924,3.441-6.043,6.699-7.957,11.154
		c-0.076,0.174-0.271,0.668-0.271,0.668h3.062c0,0,0.305-0.562,0.431-0.764c7.722-12.66,20.38-21.792,37.22-23.506
		c10.977-1.489,21.204,1.36,28.688,5C138.768,50.197,138.84,50.23,138.908,50.26z"/>
	<path fill="#697432" d="M139.502,52.246c-0.123-0.064-0.252-0.129-0.376-0.186c-3.261-1.718-6.897-3.205-10.931-4.271
		c-3.664-0.965-9.023-1.844-17.289-1.148c-8.566,0.721-14.685,3.733-16.185,4.434c-8.87,4.148-15.878,10.162-20.847,18.21
		l-0.061,0.145c0.308,0,0.619,0,0.932,0c0.391,0,0.776,0,1.17,0c1.166,0,2.336,0,3.5,0c0.783,0,1.561,0,2.336,0
		c9.346,0,29.592,0,30.363,0c4.677,0,30.142-0.016,30.17-0.016C142.016,63.523,141.057,57.689,139.502,52.246z"/>
	<path fill="#AF9C32" d="M17.657,87.24c-2.375-3.98-8.468-3.611-14.704-3.699c0,0,0.01-4.396,0.01-4.764c3.646,0,7.545,0,11.196,0
		c0-0.711,0-1.766,0-2.627c-4.719,0-9.438,0-14.159,0c0,7.881,0,15.764,0,23.648c3.266,0.059,9.602,0.566,13.283-0.291
		c1.131-0.266,2.781-1.43,3.359-2.047c1.281-1.377,1.863-3.186,2.041-4.379C18.966,91.234,18.545,88.714,17.657,87.24z
		 M2.953,96.736V86.658c6.236-0.002,12.105-0.738,12.813,4.229C16.66,97.197,9.317,97.392,2.953,96.736z"/>
	<path fill="#AF9C32" d="M38.388,83.589c-0.236-1.646-0.792-3.109-1.562-4.135c-2.937-3.471-5.666-3.725-7.465-3.713
		c-2.728-0.068-6.38,1.422-8.042,4.492c-0.478,0.904-0.805,2.047-1.012,3.35c-0.268,1.809-0.232,6.273-0.189,9.656v6.523h2.92
		V86.658c4.131,0,9.186,0,12.583,0v13.105l0,0c0,0.01,2.917,0,2.917,0S38.642,85.57,38.388,83.589z M23.355,83.595
		c0.096-2.697,2.772-5.35,5.909-5.373c1.482-0.045,2.852,0.484,4.004,1.42c1.046,0.846,1.854,2.377,2.062,3.971
		C31.67,83.613,27.306,83.5,23.355,83.595z"/>
	<path fill="#AF9C32" d="M100.98,83.589c-0.234-1.646-0.787-3.109-1.562-4.135c-2.935-3.471-5.667-3.725-7.468-3.713
		c-2.721-0.068-6.375,1.422-8.037,4.492c-0.48,0.904-0.801,2.047-1.016,3.35c-0.268,1.809-0.234,6.273-0.183,9.656v6.523h2.915
		V86.658c4.127,0,9.186,0,12.582,0v13.105h0.006c0,0.01,2.908,0,2.908,0S101.238,85.57,100.98,83.589z M85.953,83.595
		c0.093-2.697,2.77-5.35,5.91-5.373c1.477-0.045,2.844,0.484,4.002,1.42c1.043,0.846,1.85,2.377,2.062,3.971
		C94.27,83.613,89.896,83.5,85.953,83.595z"/>
	<path fill="#AF9C32" d="M70.951,83.154c2.487-1.494,5.572-2.992,8.172-4.377c0.324-0.174,0.794-0.402,1.207-0.645
		c0.498-0.287,0.824-1.088,0.205-1.65c-0.381-0.346-0.926-0.346-1.619-0.254c-1.15,0.162-2.508,0.83-3.877,1.521
		c-2.885,1.463-5.967,2.963-9.076,4.334v-5.656h-2.921v23.336h2.921v-3.744c0.01-0.928,0.008-1.865,0-2.807v-7.705
		c0.981-0.395,1.416-0.596,2.363-1.041c3.57,5.189,7,10.312,10.771,15.299c1,0.008,2.076-0.016,2.914-0.016
		C78.388,94.095,74.751,88.828,70.951,83.154z"/>
	<path fill="#AF9C32" d="M139.557,76.435c0,0-10.851,5.635-13.305,6.67v-6.67h-2.914v23.328h2.914V87.197
		c0.012-0.131,0.018-0.264,0.031-0.391c3.973-2.256,8.292-4.533,12.537-6.543v19.5h2.92V76.435H139.557z"/>
	<path fill="#AF9C32" d="M118.592,76.435v7.074c-0.008,0.029-0.008,0.055-0.012,0.082c-4.176,0-8.627,0.004-12.592,0.004v-7.16
		h-2.916v23.328h2.916v-3.652c0.033-1.035,0.023-2.074,0-3.076v-6.301c0.004-0.02,0.008-0.049,0.01-0.066c3.73,0,9.029,0,12.594,0
		v13.096h2.917V76.435H118.592z"/>
</g>
</svg>
