<svg xmlns="http://www.w3.org/2000/svg" width="121.354" height="50.911" viewBox="0 0 121.354 50.911">
  <g id="Groupe_7" data-name="Groupe 7" transform="translate(-379.92 -172.6)">
    <path id="Tracé_1" data-name="Tracé 1" d="M14.826-99.684A8.733,8.733,0,0,1,8.5-102.193a8.517,8.517,0,0,1-2.584-6.385,8.558,8.558,0,0,1,2.584-6.4,8.71,8.71,0,0,1,6.322-2.521,9.1,9.1,0,0,1,4.955,1.367,7.786,7.786,0,0,1,3.149,3.876H19.493a4.875,4.875,0,0,0-4.667-2.634,5.711,5.711,0,0,0-4.3,1.731,6.32,6.32,0,0,0-1.668,4.579A6.32,6.32,0,0,0,10.524-104a5.711,5.711,0,0,0,4.3,1.731,4.875,4.875,0,0,0,4.667-2.634H22.93a7.72,7.72,0,0,1-3.149,3.864A9.161,9.161,0,0,1,14.826-99.684Zm10.437-.151V-118.4h2.86v18.566Zm11.44.226a6.482,6.482,0,0,1-4.892-1.957,7.178,7.178,0,0,1-1.882-5.193,7.08,7.08,0,0,1,1.907-5.181,6.6,6.6,0,0,1,4.93-1.944,6.659,6.659,0,0,1,4.9,1.869,6.576,6.576,0,0,1,1.882,4.88,8.587,8.587,0,0,1-.1,1.355H32.865a3.95,3.95,0,0,0,1.167,2.747,3.72,3.72,0,0,0,2.672,1.016,3.367,3.367,0,0,0,3.287-1.932h3.086a6.2,6.2,0,0,1-2.283,3.124A6.717,6.717,0,0,1,36.7-99.609Zm3.864-8.129a3.6,3.6,0,0,0-1.129-2.722,3.82,3.82,0,0,0-2.684-1.016,3.688,3.688,0,0,0-2.647,1.016,4.11,4.11,0,0,0-1.217,2.722Zm13.9,4.391a4.663,4.663,0,0,0,1.254-3.412,4.6,4.6,0,0,0-1.242-3.387,4.008,4.008,0,0,0-2.948-1.254,4.048,4.048,0,0,0-2.948,1.229,4.517,4.517,0,0,0-1.242,3.362,4.734,4.734,0,0,0,1.242,3.425,3.951,3.951,0,0,0,2.948,1.292,3.967,3.967,0,0,0,2.935-1.254Zm-3.538,3.738a6.092,6.092,0,0,1-4.641-2.02,7.281,7.281,0,0,1-1.882-5.168,7.13,7.13,0,0,1,1.869-5.118,6.154,6.154,0,0,1,4.654-1.969,5.5,5.5,0,0,1,2.873.74,5.218,5.218,0,0,1,1.919,1.944v-2.459h2.885v13.824H55.721v-2.584a5.466,5.466,0,0,1-1.932,2.045A5.3,5.3,0,0,1,50.929-99.609Zm13.3-14.05v2.183a4.711,4.711,0,0,1,4.416-2.409,5.152,5.152,0,0,1,3.851,1.555,5.952,5.952,0,0,1,1.518,4.34v8.154H71.176v-7.727a4.012,4.012,0,0,0-.928-2.848,3.3,3.3,0,0,0-2.534-.991,3.345,3.345,0,0,0-2.547.991,3.978,3.978,0,0,0-.941,2.848v7.727h-2.86v-13.824Zm19.118,2.333H79.982v7.652a1.469,1.469,0,0,0,.364,1.116,1.809,1.809,0,0,0,1.242.339h1.756v2.383H81.086q-3.989,0-3.989-3.839v-7.652H75.466v-2.333H77.1V-117.1h2.885v3.437h3.362ZM90.8-99.609a6.482,6.482,0,0,1-4.892-1.957,7.178,7.178,0,0,1-1.882-5.193,7.08,7.08,0,0,1,1.907-5.181,6.6,6.6,0,0,1,4.93-1.944,6.659,6.659,0,0,1,4.9,1.869,6.576,6.576,0,0,1,1.882,4.88,8.587,8.587,0,0,1-.1,1.355H86.956a3.95,3.95,0,0,0,1.167,2.747,3.72,3.72,0,0,0,2.672,1.016,3.367,3.367,0,0,0,3.287-1.932h3.086a6.2,6.2,0,0,1-2.283,3.124A6.717,6.717,0,0,1,90.8-99.609Zm3.864-8.129a3.6,3.6,0,0,0-1.129-2.722,3.82,3.82,0,0,0-2.684-1.016,3.688,3.688,0,0,0-2.647,1.016,4.11,4.11,0,0,0-1.217,2.722Zm10.613,8.129a6.482,6.482,0,0,1-4.892-1.957,7.161,7.161,0,0,1-1.882-5.181,7.133,7.133,0,0,1,1.894-5.181,6.492,6.492,0,0,1,4.88-1.957,6.892,6.892,0,0,1,4.152,1.192,5.867,5.867,0,0,1,2.22,3.4h-3.086a3.149,3.149,0,0,0-3.287-2.183,3.463,3.463,0,0,0-2.8,1.242,5.254,5.254,0,0,0-1.041,3.475,5.306,5.306,0,0,0,1.041,3.487,3.448,3.448,0,0,0,2.8,1.254,3.174,3.174,0,0,0,3.287-2.183h3.086a6.178,6.178,0,0,1-2.258,3.349A6.664,6.664,0,0,1,105.271-99.609ZM116.36-118.4v6.924a4.711,4.711,0,0,1,4.416-2.409,5.152,5.152,0,0,1,3.851,1.555,5.952,5.952,0,0,1,1.518,4.34v8.154H123.31v-7.727a4.012,4.012,0,0,0-.928-2.848,3.3,3.3,0,0,0-2.534-.991,3.345,3.345,0,0,0-2.547.991,3.978,3.978,0,0,0-.941,2.848v7.727H113.5V-118.4Z" transform="translate(374 291)" fill="#015be3"/>
    <path id="Tracé_3" data-name="Tracé 3" d="M21.634-111.36v2.233H14.86v5.294h6.021v2.208H14.86v5.494h6.774V-93.9H12V-111.36ZM33.8-107.722h2.86V-93.9H33.8v-2.183A4.688,4.688,0,0,1,29.386-93.7a5.173,5.173,0,0,1-3.851-1.543,5.908,5.908,0,0,1-1.518-4.328v-8.154h2.835v7.727a4.012,4.012,0,0,0,.928,2.848,3.3,3.3,0,0,0,2.534.991,3.345,3.345,0,0,0,2.547-.991,3.978,3.978,0,0,0,.941-2.848Zm8.48,0v2.409a4.366,4.366,0,0,1,4.14-2.634v2.96h-.728a3.483,3.483,0,0,0-2.547.853,4.079,4.079,0,0,0-.866,2.96V-93.9h-2.86v-13.824ZM57.034-97.335a4.714,4.714,0,0,0,1.254-3.487,4.754,4.754,0,0,0-1.217-3.475,3.974,3.974,0,0,0-2.948-1.242,3.854,3.854,0,0,0-2.91,1.242,4.864,4.864,0,0,0-1.179,3.487,4.929,4.929,0,0,0,1.154,3.487,3.761,3.761,0,0,0,2.873,1.242A4.063,4.063,0,0,0,57.034-97.335Zm-2.986,3.663a6.708,6.708,0,0,1-4.968-1.969,7.013,7.013,0,0,1-1.957-5.168,6.894,6.894,0,0,1,2.02-5.168,6.919,6.919,0,0,1,5.03-1.969,6.919,6.919,0,0,1,5.03,1.969,6.878,6.878,0,0,1,2.02,5.156,6.832,6.832,0,0,1-2.07,5.168A7.1,7.1,0,0,1,54.049-93.672Zm19.017-3.763a4.751,4.751,0,0,0,1.254-3.437,4.517,4.517,0,0,0-1.242-3.362,4.062,4.062,0,0,0-2.96-1.229,4.022,4.022,0,0,0-2.96,1.254,4.6,4.6,0,0,0-1.242,3.387,4.646,4.646,0,0,0,1.242,3.4,3.989,3.989,0,0,0,2.948,1.267,4.01,4.01,0,0,0,2.96-1.28Zm-2.333-10.512a6.114,6.114,0,0,1,4.641,1.969,7.158,7.158,0,0,1,1.857,5.118,7.31,7.31,0,0,1-1.869,5.168,6.053,6.053,0,0,1-4.629,2.02,5.3,5.3,0,0,1-2.86-.765,5.667,5.667,0,0,1-1.957-2.045v9.157h-2.86v-20.4h2.86v2.459a5.416,5.416,0,0,1,1.944-1.944,5.5,5.5,0,0,1,2.873-.74Zm14.15,14.275a6.482,6.482,0,0,1-4.892-1.957,7.178,7.178,0,0,1-1.882-5.193A7.08,7.08,0,0,1,80.015-106a6.6,6.6,0,0,1,4.93-1.944,6.659,6.659,0,0,1,4.9,1.869,6.576,6.576,0,0,1,1.882,4.88,8.588,8.588,0,0,1-.1,1.355H81.044A3.95,3.95,0,0,0,82.211-97.1a3.72,3.72,0,0,0,2.672,1.016,3.367,3.367,0,0,0,3.287-1.932h3.086a6.2,6.2,0,0,1-2.283,3.124A6.717,6.717,0,0,1,84.883-93.672Zm3.864-8.129a3.6,3.6,0,0,0-1.129-2.722,3.82,3.82,0,0,0-2.684-1.016,3.688,3.688,0,0,0-2.647,1.016,4.11,4.11,0,0,0-1.217,2.722Z" transform="translate(409.542 310.836)" fill="#015be3"/>
    <path id="Tracé_2" data-name="Tracé 2" d="M10.5-109.189,12.723-122H10.459l.234-1.276h2.252l.273-1.913a5.242,5.242,0,0,1,1.581-3.2,4.406,4.406,0,0,1,3.13-1.106,8.418,8.418,0,0,1,1.705.26l-.273,1.289a5.383,5.383,0,0,0-1.393-.2,2.932,2.932,0,0,0-2.154.847,4.037,4.037,0,0,0-1.074,2.356l-.247,1.665h3.267L17.527-122H14.286L12.06-109.189Zm6.926-7.172a9.261,9.261,0,0,1,1.25-3.742,7.164,7.164,0,0,1,2.532-2.584,6.129,6.129,0,0,1,3.286-.847,4.914,4.914,0,0,1,2.974.956,5.3,5.3,0,0,1,1.8,2.539,8.293,8.293,0,0,1,.384,3.559l-.026.247a8.874,8.874,0,0,1-2.362,5.35,6.165,6.165,0,0,1-4.731,1.953,4.787,4.787,0,0,1-3.788-1.744,6.711,6.711,0,0,1-1.393-4.5l.039-.742Zm1.509.443a7.1,7.1,0,0,0,.228,2.857,4.219,4.219,0,0,0,1.27,2.05,3.4,3.4,0,0,0,2.174.781,4.527,4.527,0,0,0,2.571-.716,5.728,5.728,0,0,0,1.92-2.1,8.389,8.389,0,0,0,.976-2.994l.039-.429a6.411,6.411,0,0,0-.774-4.107,3.34,3.34,0,0,0-2.922-1.634,4.5,4.5,0,0,0-3.6,1.608,7.845,7.845,0,0,0-1.855,4.445ZM39.2-121.958a5.833,5.833,0,0,0-1.028-.117,4.5,4.5,0,0,0-2.72.9,4.331,4.331,0,0,0-1.653,2.3l-1.665,9.684H30.6l2.447-14.083h1.523l-.469,2.239a5.527,5.527,0,0,1,1.855-1.9,4.386,4.386,0,0,1,2.388-.625,3.814,3.814,0,0,1,1.067.182Z" transform="translate(376.131 326.071)" fill="#015be3"/>
  </g>
</svg>
