<svg width="226" height="60" viewBox="0 0 226 60" fill="none" xmlns="http://www.w3.org/2000/svg">
<path d="M68.4455 20.0706H67.5908V40.0188H68.4455V20.0706Z" fill="#004494"/>
<path d="M75.2197 27.5485V20.1169H82.6004V20.9884H76.2237V23.2583H82.3303V24.1295H76.2237V26.6774H82.6063V27.5485H75.2197Z" fill="#004494"/>
<path d="M83.5029 22.3821H84.3299V25.0007C84.3299 25.4836 84.3563 25.829 84.4076 26.0379C84.4586 26.2467 84.5602 26.4164 84.7109 26.5471C84.8616 26.6739 85.0701 26.7637 85.3369 26.8162C85.6034 26.8691 85.9797 26.8954 86.4653 26.8954C87.0942 26.8954 87.5821 26.848 87.9301 26.7536C88.2772 26.6593 88.5391 26.5033 88.716 26.2856C88.8262 26.1549 88.9026 25.9908 88.945 25.7927C88.9871 25.5952 89.0082 25.3091 89.0082 24.9352V22.3821H89.8358V27.5486H89.0082V26.7754H88.9588C88.7489 27.1059 88.4697 27.328 88.12 27.4425C87.7706 27.557 87.1873 27.6138 86.3715 27.6138C85.7317 27.6138 85.2297 27.5758 84.8655 27.4996C84.501 27.4234 84.2165 27.2962 84.0102 27.1185C83.823 26.9589 83.6914 26.7391 83.6161 26.4598C83.5408 26.1803 83.5029 25.7739 83.5029 25.2404V22.3821Z" fill="#004494"/>
<path d="M91.0674 22.3822H91.8951V23.0788H91.95C92.0789 22.8466 92.276 22.6634 92.5408 22.5291C92.6984 22.4493 92.9076 22.3938 93.1668 22.363C93.4257 22.3322 93.8129 22.3167 94.3278 22.3167C94.8429 22.3167 95.2262 22.3449 95.4782 22.401C95.7298 22.4574 95.9459 22.5602 96.1262 22.7088C96.4792 23.0101 96.6559 23.4982 96.6559 24.1731V24.7069H95.8061V24.3365C95.8061 24.0498 95.7871 23.8332 95.7482 23.686C95.7094 23.539 95.6407 23.4184 95.5413 23.324C95.3314 23.1314 94.8962 23.0354 94.2337 23.0354C93.2376 23.0354 92.5987 23.1631 92.3171 23.4194C92.0359 23.6753 91.8951 24.2568 91.8951 25.1642V27.5487H91.0674V22.3822Z" fill="#004494"/>
<path d="M100.834 23.0354C100.286 23.0354 99.8727 23.0555 99.5934 23.095C99.3134 23.1353 99.0914 23.2079 98.9256 23.3133C98.7308 23.4365 98.5894 23.6315 98.5005 23.8984C98.4124 24.1653 98.3686 24.5289 98.3686 24.9901C98.3686 25.5125 98.4269 25.9037 98.5446 26.1631C98.6624 26.4226 98.8647 26.6068 99.1516 26.7158C99.468 26.8355 100.084 26.8955 101 26.8955C101.596 26.8955 102.034 26.8737 102.316 26.83C102.597 26.7865 102.82 26.7051 102.986 26.5851C103.17 26.4579 103.301 26.2676 103.38 26.0133C103.459 25.7594 103.499 25.4019 103.499 24.9408C103.499 24.3965 103.436 23.9973 103.311 23.7434C103.171 23.4602 102.939 23.2715 102.614 23.1771C102.288 23.0827 101.694 23.0354 100.834 23.0354ZM100.702 22.3167C101.525 22.3167 102.133 22.3413 102.524 22.3903C102.916 22.4393 103.223 22.5291 103.443 22.6598C103.774 22.8557 104.013 23.1343 104.16 23.4952C104.307 23.8565 104.381 24.3472 104.381 24.968C104.381 25.6578 104.293 26.1819 104.116 26.5416C103.987 26.8137 103.815 27.0262 103.6 27.1786C103.385 27.331 103.103 27.4416 102.753 27.5107C102.415 27.5795 101.853 27.6138 101.066 27.6138C100.323 27.6138 99.7621 27.5895 99.3832 27.5405C99.0045 27.4916 98.6973 27.4037 98.4621 27.2765C98.1124 27.0914 97.862 26.8183 97.7113 26.457C97.5607 26.096 97.4854 25.5907 97.4854 24.9408C97.4854 24.2149 97.5939 23.6652 97.811 23.2916C98.0314 22.9066 98.337 22.6491 98.7269 22.5184C99.1164 22.3877 99.775 22.3202 100.702 22.3167Z" fill="#004494"/>
<path d="M109.056 23.0356C108.391 23.0356 107.896 23.0564 107.573 23.0982C107.249 23.14 107.008 23.2133 106.85 23.3187C106.655 23.4494 106.515 23.6392 106.428 23.8876C106.342 24.136 106.298 24.4782 106.298 24.9138C106.298 25.4255 106.345 25.8121 106.439 26.0735C106.533 26.3346 106.694 26.5273 106.922 26.6505C107.223 26.8137 107.834 26.8954 108.753 26.8954C109.367 26.8954 109.83 26.8746 110.14 26.8328C110.451 26.7913 110.687 26.7176 110.849 26.6122C111.048 26.4815 111.191 26.2902 111.277 26.0382C111.364 25.7859 111.407 25.4362 111.407 24.9903C111.407 24.4857 111.361 24.1052 111.269 23.8497C111.177 23.5934 111.017 23.4037 110.789 23.2808C110.495 23.1173 109.917 23.0356 109.056 23.0356ZM105.498 29.4053V22.3824H106.326V23.0463H106.375C106.556 22.7525 106.809 22.5572 107.137 22.4612C107.464 22.3652 108.04 22.3169 108.863 22.3169C109.573 22.3169 110.107 22.3422 110.466 22.3931C110.825 22.444 111.12 22.5365 111.351 22.6707C111.712 22.8777 111.958 23.1608 112.091 23.5201C112.223 23.8685 112.289 24.3511 112.289 24.9682C112.289 25.7486 112.168 26.3239 111.925 26.6943C111.683 27.0679 111.354 27.3144 110.94 27.4344C110.527 27.5541 109.805 27.6141 108.775 27.6141C108.021 27.6141 107.48 27.568 107.153 27.4753C106.826 27.3825 106.567 27.2022 106.375 26.9337H106.326V29.4053H105.498Z" fill="#004494"/>
<path d="M119.093 24.451C119.089 23.9464 118.953 23.5942 118.685 23.3947C118.508 23.2604 118.261 23.167 117.943 23.1145C117.625 23.062 117.158 23.0354 116.545 23.0354C116.007 23.0354 115.598 23.06 115.317 23.109C115.036 23.158 114.816 23.2442 114.658 23.3675C114.397 23.5673 114.246 23.9285 114.206 24.451H119.093ZM119.132 25.9536H119.998C119.983 26.5705 119.762 27.0015 119.336 27.2467C118.909 27.4916 118.166 27.6138 117.107 27.6138C116.232 27.6138 115.567 27.5804 115.113 27.5133C114.658 27.4462 114.316 27.3326 114.084 27.1731C113.554 26.8027 113.29 26.0714 113.29 24.979C113.29 24.2133 113.402 23.638 113.626 23.253C113.839 22.8868 114.148 22.639 114.55 22.51C114.953 22.3812 115.625 22.3167 116.567 22.3167C117.467 22.3167 118.118 22.364 118.519 22.4584C118.92 22.5528 119.24 22.7344 119.479 23.0029C119.678 23.228 119.813 23.4891 119.887 23.7868C119.961 24.0845 120.001 24.5383 120.009 25.148H114.178C114.2 25.7905 114.328 26.2312 114.563 26.4706C114.722 26.6341 114.975 26.7456 115.322 26.8056C115.669 26.8653 116.235 26.8955 117.018 26.8955C117.611 26.8955 118.044 26.8682 118.32 26.8137C118.596 26.7592 118.802 26.6597 118.938 26.5141C119.041 26.4018 119.106 26.2147 119.132 25.9536Z" fill="#004494"/>
<path d="M124.115 25.1914C123.434 25.1914 122.957 25.203 122.686 25.2267C122.413 25.2501 122.22 25.2948 122.106 25.36C121.889 25.4868 121.781 25.7213 121.781 26.0622C121.781 26.3998 121.91 26.6284 122.167 26.7484C122.377 26.8461 123.083 26.8954 124.285 26.8954C125.164 26.8954 125.745 26.8389 126.029 26.7267C126.312 26.6142 126.453 26.3852 126.453 26.0404C126.453 25.7067 126.295 25.4816 125.979 25.3655C125.663 25.2494 125.041 25.1914 124.115 25.1914ZM121.996 23.9336H121.136C121.129 23.8393 121.125 23.765 121.125 23.7102C121.125 23.1695 121.331 22.8014 121.743 22.6052C122.155 22.4093 122.927 22.311 124.06 22.311C124.95 22.311 125.589 22.3512 125.98 22.431C126.369 22.5108 126.674 22.6633 126.895 22.8883C127.079 23.07 127.198 23.284 127.254 23.5305C127.309 23.7773 127.337 24.2093 127.337 24.8265V27.5485H126.515L126.531 26.9443H126.487C126.281 27.2275 126.034 27.4097 125.744 27.4915C125.456 27.5732 124.912 27.6137 124.109 27.6137C123.194 27.6137 122.557 27.592 122.2 27.5485C121.844 27.5051 121.574 27.4143 121.389 27.2764C121.205 27.1454 121.078 26.9897 121.006 26.8081C120.934 26.6268 120.898 26.3726 120.898 26.046C120.898 25.6467 120.953 25.3399 121.061 25.1258C121.17 24.9118 121.353 24.7522 121.61 24.6468C121.89 24.5271 122.543 24.4671 123.569 24.4671C124.642 24.4671 125.344 24.4989 125.675 24.5622C126.007 24.6257 126.262 24.7795 126.442 25.0224H126.514V24.4671C126.514 24.0134 126.431 23.6868 126.266 23.487C126.119 23.3093 125.896 23.1887 125.595 23.1251C125.296 23.0615 124.806 23.0301 124.125 23.0301C123.231 23.0301 122.653 23.0816 122.391 23.1848C122.128 23.2885 121.996 23.5143 121.996 23.8626V23.9336Z" fill="#004494"/>
<path d="M128.53 22.3822H129.357V23.1605H129.418C129.595 22.8304 129.864 22.6072 130.226 22.4911C130.589 22.375 131.2 22.3167 132.061 22.3167C132.811 22.3167 133.367 22.3575 133.729 22.4393C134.092 22.521 134.376 22.6689 134.581 22.8829C134.743 23.0538 134.856 23.2669 134.92 23.5228C134.985 23.7784 135.017 24.1481 135.017 24.6304V27.5487H134.189V24.9787C134.189 24.5182 134.17 24.187 134.132 23.9856C134.093 23.7839 134.015 23.6143 133.897 23.4764C133.758 23.3169 133.543 23.2034 133.255 23.1362C132.966 23.0688 132.535 23.0354 131.96 23.0354C131.321 23.0354 130.822 23.0817 130.466 23.1742C130.109 23.2669 129.841 23.4184 129.661 23.6289C129.536 23.7813 129.454 23.9525 129.415 24.1433C129.376 24.334 129.357 24.6722 129.357 25.1587V27.5487H128.529V22.3822H128.53Z" fill="#004494"/>
<path d="M140.478 20.1172H139.474V27.5487H140.478V20.1172Z" fill="#004494"/>
<path d="M141.82 22.3819H142.647V23.1603H142.708C142.885 22.8301 143.154 22.607 143.516 22.4909C143.879 22.3748 144.49 22.3164 145.351 22.3164C146.1 22.3164 146.657 22.3573 147.019 22.439C147.381 22.5207 147.666 22.6686 147.871 22.8827C148.033 23.0536 148.146 23.2667 148.21 23.5226C148.274 23.7781 148.307 24.1479 148.307 24.6301V27.5484H147.479V24.9785C147.479 24.5179 147.46 24.1868 147.421 23.9854C147.383 23.7836 147.305 23.614 147.187 23.4762C147.047 23.3166 146.833 23.2031 146.544 23.136C146.256 23.0685 145.824 23.0351 145.25 23.0351C144.611 23.0351 144.112 23.0815 143.756 23.1739C143.399 23.2667 143.13 23.4181 142.951 23.6286C142.826 23.7811 142.744 23.9523 142.705 24.143C142.666 24.3337 142.647 24.672 142.647 25.1585V27.5484H141.819V22.3819H141.82Z" fill="#004494"/>
<path d="M149.357 25.7465H150.24V25.8934C150.24 26.1733 150.271 26.3724 150.331 26.4924C150.392 26.6121 150.512 26.7048 150.693 26.77C150.932 26.8537 151.619 26.8952 152.756 26.8952C153.465 26.8952 153.959 26.88 154.237 26.8488C154.514 26.818 154.714 26.7574 154.835 26.6666C155.001 26.5433 155.083 26.3526 155.083 26.0951C155.083 25.7828 154.984 25.5697 154.785 25.4552C154.587 25.3407 154.225 25.2856 153.699 25.2892C153.534 25.2927 152.737 25.2836 151.31 25.2619C150.938 25.2548 150.642 25.2259 150.419 25.175C150.196 25.1241 150.012 25.0427 149.865 24.9298C149.585 24.7161 149.446 24.3548 149.446 23.8466C149.446 23.3092 149.62 22.9193 149.969 22.6761C150.154 22.5493 150.455 22.4572 150.874 22.4011C151.294 22.345 151.896 22.3164 152.684 22.3164C153.563 22.3164 154.211 22.3638 154.629 22.4581C155.046 22.5525 155.352 22.7195 155.547 22.9592C155.643 23.0753 155.704 23.1979 155.732 23.3264C155.759 23.4554 155.773 23.6721 155.773 23.9773H154.902C154.898 23.6614 154.845 23.4548 154.742 23.3565C154.628 23.244 154.407 23.1622 154.08 23.1116C153.752 23.0607 153.278 23.0354 152.656 23.0354C151.524 23.0354 150.837 23.1133 150.593 23.2696C150.417 23.3857 150.329 23.5816 150.329 23.8573C150.329 24.1404 150.432 24.3275 150.637 24.418C150.843 24.5088 151.259 24.5487 151.884 24.538C152.502 24.527 153.302 24.5413 154.284 24.5815C154.88 24.6032 155.309 24.7323 155.571 24.9681C155.835 25.2039 155.966 25.5778 155.966 26.0896C155.966 26.398 155.92 26.6484 155.828 26.8407C155.736 27.0331 155.587 27.191 155.382 27.3142C155.201 27.4232 154.907 27.5004 154.499 27.5458C154.091 27.5912 153.5 27.6139 152.728 27.6139C151.864 27.6139 151.223 27.5883 150.805 27.5377C150.388 27.4868 150.082 27.3963 149.887 27.2656C149.688 27.1349 149.549 26.9769 149.47 26.7918C149.392 26.6069 149.352 26.3491 149.352 26.0186C149.352 25.9751 149.354 25.8846 149.357 25.7465Z" fill="#004494"/>
<path d="M157.888 21.1028H158.716V22.3822H162.379V23.0789H158.716V25.3219C158.723 25.812 158.736 26.1113 158.754 26.2203C158.773 26.329 158.826 26.4379 158.914 26.5469C159.017 26.674 159.171 26.7639 159.378 26.8164C159.584 26.8689 159.885 26.8952 160.282 26.8952C160.653 26.8952 160.924 26.8699 161.093 26.819C161.262 26.7684 161.395 26.6757 161.49 26.5417C161.553 26.4473 161.594 26.3345 161.614 26.2038C161.635 26.0734 161.645 25.8519 161.645 25.5395V25.2129H162.466V25.5395C162.466 25.9352 162.447 26.2359 162.409 26.4405C162.37 26.6458 162.298 26.8265 162.191 26.9825C162.036 27.2075 161.806 27.3691 161.501 27.4667C161.196 27.5649 160.768 27.6139 160.216 27.6139C159.649 27.6139 159.207 27.5685 158.889 27.478C158.571 27.3869 158.335 27.2383 158.181 27.0314C158.067 26.879 157.989 26.7029 157.949 26.5034C157.909 26.304 157.888 26.0007 157.888 25.594V23.0789H156.603V22.3822H157.888V21.1028Z" fill="#004494"/>
<path d="M163.435 22.3819H164.263V27.5484H163.435V22.3819ZM163.435 20.1172H164.263V21.0863H163.435V20.1172Z" fill="#004494"/>
<path d="M166.327 21.1028H167.154V22.3822H170.817V23.0789H167.154V25.3219C167.161 25.812 167.174 26.1113 167.192 26.2203C167.211 26.329 167.265 26.4379 167.352 26.5469C167.455 26.674 167.61 26.7639 167.816 26.8164C168.022 26.8689 168.323 26.8952 168.721 26.8952C169.092 26.8952 169.362 26.8699 169.532 26.819C169.701 26.7684 169.833 26.6757 169.928 26.5417C169.991 26.4473 170.032 26.3345 170.053 26.2038C170.073 26.0734 170.083 25.8519 170.083 25.5395V25.2129H170.905V25.5395C170.905 25.9352 170.885 26.2359 170.848 26.4405C170.809 26.6458 170.736 26.8265 170.63 26.9825C170.475 27.2075 170.245 27.3691 169.94 27.4667C169.634 27.5649 169.206 27.6139 168.654 27.6139C168.088 27.6139 167.646 27.5685 167.328 27.478C167.01 27.3869 166.773 27.2383 166.619 27.0314C166.505 26.879 166.427 26.7029 166.387 26.5034C166.347 26.304 166.327 26.0007 166.327 25.594V23.0789H165.041V22.3822H166.327V21.1028Z" fill="#004494"/>
<path d="M171.795 22.3818H172.622V25.0004C172.622 25.4834 172.648 25.8288 172.7 26.0376C172.751 26.2465 172.852 26.4161 173.003 26.5468C173.154 26.6736 173.362 26.7635 173.629 26.816C173.895 26.8689 174.272 26.8951 174.757 26.8951C175.386 26.8951 175.874 26.8478 176.222 26.7534C176.569 26.659 176.831 26.503 177.008 26.2854C177.118 26.1547 177.195 25.9906 177.237 25.7924C177.279 25.5949 177.3 25.3089 177.3 24.9349V22.3818H178.128V27.5483H177.3V26.7751H177.251C177.041 27.1056 176.762 27.3278 176.412 27.4423C176.063 27.5568 175.48 27.6135 174.664 27.6135C174.024 27.6135 173.522 27.5756 173.157 27.4994C172.793 27.4231 172.508 27.296 172.302 27.1183C172.115 26.9587 171.983 26.7388 171.908 26.4596C171.833 26.18 171.795 25.7736 171.795 25.2401V22.3818Z" fill="#004494"/>
<path d="M180.155 21.1028H180.983V22.3822H184.645V23.0789H180.983V25.3219C180.99 25.812 181.002 26.1113 181.021 26.2203C181.04 26.329 181.093 26.4379 181.181 26.5469C181.284 26.674 181.438 26.7639 181.644 26.8164C181.85 26.8689 182.152 26.8952 182.549 26.8952C182.92 26.8952 183.191 26.8699 183.36 26.819C183.529 26.7684 183.662 26.6757 183.757 26.5417C183.82 26.4473 183.861 26.3345 183.881 26.2038C183.902 26.0734 183.911 25.8519 183.911 25.5395V25.2129H184.733V25.5395C184.733 25.9352 184.714 26.2359 184.676 26.4405C184.637 26.6458 184.565 26.8265 184.458 26.9825C184.303 27.2075 184.073 27.3691 183.768 27.4667C183.462 27.5649 183.034 27.6139 182.483 27.6139C181.916 27.6139 181.474 27.5685 181.156 27.478C180.838 27.3869 180.601 27.2383 180.447 27.0314C180.333 26.879 180.256 26.7029 180.216 26.5034C180.175 26.304 180.155 26.0007 180.155 25.594V23.0789H178.869V22.3822H180.155V21.1028Z" fill="#004494"/>
<path d="M191.433 24.4505C191.429 23.9459 191.293 23.5937 191.025 23.3942C190.848 23.2599 190.601 23.1665 190.283 23.114C189.964 23.0615 189.498 23.0349 188.884 23.0349C188.346 23.0349 187.938 23.0595 187.657 23.1085C187.376 23.1575 187.156 23.2437 186.998 23.367C186.736 23.5668 186.586 23.9281 186.545 24.4505H191.433ZM191.472 25.9531H192.338C192.323 26.57 192.102 27.001 191.675 27.2462C191.249 27.4911 190.506 27.6134 189.447 27.6134C188.572 27.6134 187.907 27.5799 187.453 27.5128C186.999 27.4457 186.656 27.3322 186.424 27.1726C185.894 26.8022 185.63 26.0709 185.63 24.9785C185.63 24.2128 185.742 23.6375 185.966 23.2525C186.179 22.8863 186.487 22.6385 186.89 22.5095C187.293 22.3807 187.965 22.3162 188.906 22.3162C189.807 22.3162 190.458 22.3635 190.859 22.4579C191.26 22.5523 191.58 22.7339 191.819 23.0024C192.018 23.2275 192.154 23.4886 192.227 23.7863C192.301 24.0841 192.341 24.5378 192.349 25.1475H186.518C186.54 25.79 186.668 26.2308 186.904 26.4701C187.062 26.6336 187.315 26.7451 187.663 26.8051C188.01 26.8648 188.575 26.895 189.358 26.895C189.951 26.895 190.385 26.8677 190.661 26.8132C190.936 26.7588 191.142 26.6592 191.278 26.5136C191.381 26.4014 191.446 26.2142 191.472 25.9531Z" fill="#004494"/>
<path d="M199.822 23.0349C199.274 23.0349 198.861 23.055 198.581 23.0945C198.301 23.1348 198.08 23.2074 197.914 23.3128C197.719 23.4361 197.578 23.631 197.489 23.8979C197.401 24.1648 197.357 24.5284 197.357 24.9896C197.357 25.5121 197.415 25.9032 197.533 26.1627C197.651 26.4221 197.853 26.6063 198.14 26.7153C198.456 26.835 199.072 26.895 199.988 26.895C200.584 26.895 201.023 26.8732 201.304 26.8295C201.585 26.786 201.808 26.7046 201.974 26.5846C202.158 26.4575 202.289 26.2671 202.369 26.0128C202.447 25.7589 202.487 25.4015 202.487 24.9403C202.487 24.3961 202.424 23.9968 202.3 23.7429C202.16 23.4597 201.927 23.271 201.602 23.1766C201.276 23.0822 200.683 23.0349 199.822 23.0349ZM199.69 22.3162C200.513 22.3162 201.122 22.3408 201.512 22.3898C201.904 22.4388 202.21 22.5286 202.431 22.6593C202.763 22.8552 203.001 23.1338 203.148 23.4948C203.295 23.8561 203.369 24.3468 203.369 24.9675C203.369 25.6574 203.281 26.1815 203.104 26.5411C202.975 26.8132 202.804 27.0257 202.588 27.1781C202.374 27.3305 202.091 27.4411 201.742 27.5102C201.403 27.579 200.841 27.6134 200.054 27.6134C199.311 27.6134 198.75 27.589 198.371 27.5401C197.993 27.4911 197.686 27.4032 197.45 27.2761C197.101 27.0909 196.85 26.8178 196.7 26.4565C196.549 26.0955 196.474 25.5902 196.474 24.9403C196.474 24.2144 196.582 23.6647 196.799 23.2911C197.02 22.9061 197.325 22.6486 197.715 22.5179C198.105 22.3872 198.763 22.3197 199.69 22.3162Z" fill="#004494"/>
<path d="M203.956 23.0788V22.3821H205.125C205.14 21.8703 205.172 21.5035 205.222 21.2823C205.272 21.0608 205.368 20.8705 205.512 20.7106C205.692 20.5075 205.93 20.3648 206.226 20.2831C206.522 20.2014 206.996 20.1498 207.646 20.1281L208.6 20.1008V20.7978L207.713 20.825C207.239 20.8396 206.897 20.8695 206.69 20.9149C206.481 20.9603 206.325 21.041 206.218 21.1572C206.126 21.2551 206.066 21.3767 206.038 21.5217C206.011 21.667 205.992 21.954 205.981 22.3821H208.6V23.0788H205.953V27.5486H205.125V23.0788H203.956Z" fill="#004494"/>
<path d="M76.2237 32.4177H75.2197V39.8493H76.2237V32.4177Z" fill="#004494"/>
<path d="M77.5664 34.6829H78.3941V35.461H78.4549C78.6313 35.1308 78.9007 34.9077 79.2629 34.7919C79.6251 34.6758 80.2366 34.6174 81.0975 34.6174C81.8476 34.6174 82.4039 34.6583 82.7661 34.7403C83.1282 34.8218 83.4125 34.9696 83.6181 35.1837C83.7799 35.3543 83.8928 35.5677 83.9572 35.8236C84.0217 36.0792 84.054 36.4489 84.054 36.9312V39.8494H83.2263V37.2798C83.2263 36.819 83.2072 36.4878 83.1684 36.2864C83.1302 36.0847 83.0519 35.9151 82.9342 35.7775C82.7943 35.618 82.5802 35.5045 82.2914 35.4373C82.0029 35.3699 81.5716 35.3361 80.9979 35.3361C80.358 35.3361 79.8593 35.3828 79.503 35.475C79.1464 35.5677 78.8773 35.7192 78.6977 35.9296C78.5727 36.0821 78.4908 36.2533 78.452 36.444C78.4132 36.6347 78.3941 36.973 78.3941 37.4595V39.8494H77.5664V34.6829Z" fill="#004494"/>
<path d="M85.2471 34.6829H86.0748V35.461H86.1356C86.3119 35.1308 86.5814 34.9077 86.9436 34.7919C87.3057 34.6758 87.9173 34.6174 88.7782 34.6174C89.5282 34.6174 90.0845 34.6583 90.4467 34.7403C90.8089 34.8218 91.0931 34.9696 91.2987 35.1837C91.4606 35.3543 91.5734 35.5677 91.6379 35.8236C91.702 36.0792 91.7346 36.4489 91.7346 36.9312V39.8494H90.9069V37.2798C90.9069 36.819 90.8878 36.4878 90.849 36.2864C90.8109 36.0847 90.7326 35.9151 90.6148 35.7775C90.475 35.618 90.2608 35.5045 89.972 35.4373C89.6835 35.3699 89.2522 35.3361 88.6785 35.3361C88.0387 35.3361 87.54 35.3828 87.1837 35.475C86.8271 35.5677 86.558 35.7192 86.3784 35.9296C86.2534 36.0821 86.1715 36.2533 86.1327 36.444C86.0938 36.6347 86.0748 36.973 86.0748 37.4595V39.8494H85.2471V34.6829Z" fill="#004494"/>
<path d="M96.1672 35.3361C95.6195 35.3361 95.2057 35.3566 94.9264 35.3961C94.6464 35.4364 94.4244 35.509 94.2586 35.6144C94.0638 35.7377 93.9224 35.9322 93.8335 36.1995C93.7454 36.4664 93.7016 36.83 93.7016 37.2912C93.7016 37.8133 93.7602 38.2045 93.8776 38.4642C93.9954 38.7237 94.1977 38.9076 94.4846 39.0169C94.801 39.1362 95.4172 39.1966 96.333 39.1966C96.9288 39.1966 97.367 39.1748 97.6486 39.1311C97.9298 39.0876 98.1529 39.0062 98.3187 38.8862C98.5026 38.7587 98.6342 38.5687 98.7134 38.3144C98.7924 38.0605 98.8315 37.7027 98.8315 37.2415C98.8315 36.6973 98.769 36.2981 98.6443 36.0445C98.5042 35.7613 98.2716 35.5726 97.9466 35.4782C97.6209 35.3835 97.0275 35.3361 96.1672 35.3361ZM96.0347 34.6174C96.8584 34.6174 97.4663 34.6421 97.8575 34.691C98.2493 34.74 98.5555 34.8302 98.7763 34.9606C99.1072 35.1565 99.346 35.4354 99.4931 35.796C99.6405 36.1573 99.7141 36.648 99.7141 37.2688C99.7141 37.9586 99.626 38.4827 99.4493 38.8427C99.3204 39.1148 99.1483 39.3273 98.9332 39.4797C98.7184 39.6321 98.4361 39.7427 98.0864 39.8115C97.7479 39.8803 97.1857 39.9146 96.3988 39.9146C95.6557 39.9146 95.0951 39.8903 94.7162 39.8413C94.3375 39.7924 94.0303 39.7041 93.7951 39.577C93.4457 39.3921 93.1954 39.1191 93.0444 38.7578C92.8937 38.3971 92.8184 37.8915 92.8184 37.2415C92.8184 36.5157 92.9269 35.966 93.144 35.592C93.3644 35.2074 93.67 34.9502 94.0599 34.8192C94.4494 34.6885 95.108 34.621 96.0347 34.6174Z" fill="#004494"/>
<path d="M100.047 34.6829H101.013L103.55 39.0927H103.638L106.187 34.6829H107.185L104.14 39.8493H103.064L100.047 34.6829Z" fill="#004494"/>
<path d="M110.74 37.4923C110.059 37.4923 109.583 37.504 109.311 37.5273C109.039 37.5507 108.846 37.5954 108.732 37.6606C108.515 37.7881 108.406 38.0219 108.406 38.3628C108.406 38.7004 108.535 38.9291 108.792 39.0491C109.002 39.1467 109.708 39.196 110.911 39.196C111.789 39.196 112.371 39.1395 112.654 39.027C112.937 38.9145 113.078 38.6858 113.078 38.3411C113.078 38.0073 112.921 37.7819 112.604 37.6661C112.288 37.5504 111.666 37.4923 110.74 37.4923ZM108.621 36.2346H107.761C107.753 36.1402 107.75 36.0656 107.75 36.0111C107.75 35.4708 107.956 35.1024 108.367 34.9061C108.779 34.7103 109.552 34.6123 110.684 34.6123C111.574 34.6123 112.214 34.6525 112.604 34.732C112.994 34.8118 113.299 34.9645 113.52 35.1893C113.704 35.3712 113.823 35.5853 113.878 35.8314C113.934 36.0783 113.961 36.5103 113.961 37.1274V39.8495H113.139L113.156 39.2453H113.112C112.906 39.5284 112.658 39.711 112.369 39.7927C112.081 39.8745 111.536 39.915 110.734 39.915C109.819 39.915 109.182 39.8933 108.825 39.8498C108.469 39.8064 108.199 39.7155 108.014 39.5777C107.831 39.4467 107.703 39.291 107.631 39.1094C107.559 38.9281 107.523 38.6738 107.523 38.3472C107.523 37.948 107.578 37.6412 107.686 37.4271C107.795 37.2131 107.978 37.0535 108.235 36.9478C108.515 36.8284 109.168 36.7681 110.194 36.7681C111.267 36.7681 111.97 36.7999 112.301 36.8631C112.632 36.9267 112.887 37.0804 113.068 37.3233H113.139V36.7681C113.139 36.3147 113.056 35.9878 112.891 35.7883C112.744 35.6099 112.521 35.4896 112.22 35.426C111.921 35.3625 111.431 35.331 110.751 35.331C109.857 35.331 109.278 35.3826 109.016 35.4857C108.753 35.5895 108.621 35.8155 108.621 36.1635V36.2346Z" fill="#004494"/>
<path d="M115.95 33.4038H116.778V34.6829H120.44V35.3796H116.778V37.6226C116.785 38.1127 116.797 38.412 116.816 38.521C116.835 38.6296 116.888 38.7386 116.976 38.8476C117.079 38.975 117.233 39.0646 117.439 39.1171C117.645 39.1696 117.947 39.1962 118.344 39.1962C118.715 39.1962 118.986 39.1706 119.155 39.12C119.324 39.0694 119.456 38.9767 119.552 38.8427C119.615 38.7483 119.656 38.6355 119.676 38.5048C119.696 38.3744 119.706 38.1529 119.706 37.8406V37.514H120.528V37.8406C120.528 38.2362 120.509 38.5366 120.471 38.7415C120.432 38.9468 120.359 39.1272 120.253 39.2835C120.098 39.5082 119.868 39.6697 119.563 39.7674C119.257 39.866 118.829 39.9146 118.277 39.9146C117.711 39.9146 117.269 39.8692 116.951 39.7787C116.633 39.6879 116.397 39.5394 116.242 39.3321C116.128 39.1797 116.051 39.0036 116.011 38.8041C115.97 38.6047 115.95 38.3014 115.95 37.8947V35.3796H114.664V34.6829H115.95V33.4038Z" fill="#004494"/>
<path d="M121.496 34.6828H122.324V39.8493H121.496V34.6828ZM121.496 32.4177H122.324V33.3868H121.496V32.4177Z" fill="#004494"/>
<path d="M126.832 35.3361C126.284 35.3361 125.87 35.3566 125.591 35.3961C125.311 35.4364 125.089 35.509 124.924 35.6144C124.729 35.7377 124.588 35.9322 124.499 36.1995C124.41 36.4664 124.367 36.83 124.367 37.2912C124.367 37.8133 124.425 38.2045 124.543 38.4642C124.66 38.7237 124.863 38.9076 125.15 39.0169C125.466 39.1362 126.083 39.1966 126.998 39.1966C127.594 39.1966 128.032 39.1748 128.314 39.1311C128.595 39.0876 128.818 39.0062 128.984 38.8862C129.168 38.7587 129.299 38.5687 129.378 38.3144C129.457 38.0605 129.497 37.7027 129.497 37.2415C129.497 36.6973 129.434 36.2981 129.309 36.0445C129.169 35.7613 128.937 35.5726 128.612 35.4782C128.286 35.3835 127.693 35.3361 126.832 35.3361ZM126.7 34.6174C127.523 34.6174 128.131 34.6421 128.523 34.691C128.914 34.74 129.221 34.8302 129.441 34.9606C129.772 35.1565 130.011 35.4354 130.158 35.796C130.305 36.1573 130.379 36.648 130.379 37.2688C130.379 37.9586 130.291 38.4827 130.114 38.8427C129.985 39.1148 129.813 39.3273 129.598 39.4797C129.384 39.6321 129.101 39.7427 128.751 39.8115C128.413 39.8803 127.851 39.9146 127.064 39.9146C126.321 39.9146 125.76 39.8903 125.382 39.8413C125.003 39.7924 124.695 39.7041 124.46 39.577C124.111 39.3921 123.86 39.1191 123.71 38.7578C123.559 38.3971 123.483 37.8915 123.483 37.2415C123.483 36.5157 123.592 35.966 123.809 35.592C124.029 35.2074 124.335 34.9502 124.725 34.8192C125.114 34.6885 125.773 34.621 126.7 34.6174Z" fill="#004494"/>
<path d="M131.495 34.6829H132.323V35.461H132.384C132.56 35.1308 132.83 34.9077 133.192 34.7919C133.554 34.6758 134.166 34.6174 135.027 34.6174C135.777 34.6174 136.333 34.6583 136.695 34.7403C137.057 34.8218 137.341 34.9696 137.547 35.1837C137.709 35.3543 137.822 35.5677 137.886 35.8236C137.951 36.0792 137.983 36.4489 137.983 36.9312V39.8494H137.155V37.2798C137.155 36.819 137.136 36.4878 137.097 36.2864C137.059 36.0847 136.981 35.9151 136.863 35.7775C136.723 35.618 136.509 35.5045 136.22 35.4373C135.932 35.3699 135.5 35.3361 134.927 35.3361C134.286 35.3361 133.788 35.3828 133.432 35.475C133.075 35.5677 132.806 35.7192 132.626 35.9296C132.501 36.0821 132.42 36.2533 132.381 36.444C132.342 36.6347 132.323 36.973 132.323 37.4595V39.8494H131.495V34.6829H131.495Z" fill="#004494"/>
<path d="M144.623 35.9511C144.138 35.9842 143.788 36.0692 143.575 36.2073C143.252 36.4142 143.089 36.8479 143.089 37.5085C143.089 37.9476 143.157 38.2723 143.293 38.4831C143.43 38.6933 143.657 38.8243 143.978 38.8752C144.5 38.9621 145.526 39.0056 147.056 39.0056C147.971 39.0056 148.616 38.9764 148.992 38.9183C149.367 38.8603 149.612 38.751 149.725 38.5918L144.623 35.9511ZM150.063 36.2235H151.028V36.6919C151.021 37.2906 150.989 37.815 150.934 38.2655L152.412 39.0387L152.148 39.866L150.631 39.0711C150.439 39.2745 150.293 39.4113 150.193 39.4823C150.091 39.5534 149.948 39.6176 149.765 39.676C149.287 39.8245 148.158 39.8988 146.378 39.8988C145.348 39.8988 144.583 39.868 144.082 39.8067C143.582 39.745 143.207 39.6345 142.957 39.4749C142.659 39.2894 142.446 39.0572 142.317 38.7779C142.171 38.4478 142.097 38.0125 142.097 37.4715C142.097 36.8547 142.22 36.3883 142.466 36.0724C142.639 35.858 142.815 35.7105 142.996 35.6284C143.176 35.547 143.474 35.4789 143.89 35.4247C143.378 35.1306 143.123 34.6658 143.123 34.0308C143.123 33.3847 143.363 32.9401 143.845 32.6968C144.239 32.5009 145.006 32.4033 146.146 32.4033C148.007 32.4033 149.178 32.559 149.66 32.871C149.891 33.0202 150.05 33.2041 150.134 33.4236C150.219 33.6432 150.261 33.9799 150.261 34.4336V34.7167H149.295V34.3684C149.295 34.0055 149.231 33.7548 149.102 33.6169C148.977 33.4791 148.69 33.3886 148.242 33.3448C147.852 33.3049 147.247 33.2848 146.427 33.2848C145.702 33.2848 145.212 33.2965 144.957 33.3205C144.7 33.3435 144.518 33.3919 144.408 33.4642C144.213 33.5949 144.115 33.7999 144.115 34.0794C144.115 34.348 144.204 34.5701 144.383 34.7462C144.561 34.9223 144.937 35.1611 145.511 35.4623L150.023 37.8199C150.053 37.3334 150.066 37.0464 150.062 36.9598V36.2235H150.063Z" fill="#004494"/>
<path d="M155.198 32.4182H163.754V33.289H159.986V39.8498H158.983V33.289H155.198V32.4182Z" fill="#004494"/>
<path d="M168.577 36.7519C168.574 36.2469 168.438 35.8947 168.17 35.6956C167.993 35.5613 167.745 35.4679 167.427 35.4153C167.109 35.3625 166.643 35.3362 166.029 35.3362C165.491 35.3362 165.083 35.3609 164.802 35.4102C164.521 35.4588 164.301 35.5454 164.143 35.6686C163.881 35.8681 163.73 36.2294 163.69 36.7522H168.577V36.7519ZM168.616 38.2545H169.482C169.467 38.8713 169.247 39.3024 168.82 39.5476C168.393 39.7924 167.651 39.9147 166.592 39.9147C165.717 39.9147 165.052 39.881 164.597 39.8138C164.143 39.7467 163.8 39.6332 163.568 39.4736C163.039 39.1032 162.774 38.3722 162.774 37.2796C162.774 36.5138 162.886 35.9385 163.11 35.5535C163.323 35.1873 163.632 34.9396 164.034 34.8105C164.437 34.6821 165.109 34.6172 166.051 34.6172C166.952 34.6172 167.602 34.6645 168.004 34.7589C168.405 34.8533 168.724 35.0352 168.963 35.3038C169.162 35.5285 169.298 35.7899 169.371 36.0877C169.446 36.3854 169.486 36.8388 169.493 37.4485H163.662C163.684 38.091 163.813 38.5321 164.048 38.7711C164.206 38.9346 164.459 39.0465 164.807 39.1062C165.154 39.1658 165.72 39.196 166.503 39.196C167.095 39.196 167.529 39.1688 167.805 39.1143C168.081 39.0598 168.287 38.9599 168.422 38.8143C168.526 38.7027 168.59 38.5152 168.616 38.2545Z" fill="#004494"/>
<path d="M176.175 37.982H177.019C177.008 38.6105 176.863 39.0675 176.583 39.3539C176.381 39.564 176.108 39.7106 175.765 39.7924C175.42 39.8741 174.91 39.9146 174.234 39.9146C173.329 39.9146 172.659 39.8819 172.225 39.8167C171.792 39.7512 171.458 39.6334 171.227 39.4632C170.716 39.0818 170.461 38.354 170.461 37.2795C170.461 36.5209 170.571 35.9514 170.792 35.5703C171.009 35.1996 171.321 34.9489 171.729 34.8162C172.138 34.6836 172.807 34.6174 173.737 34.6174C174.576 34.6174 175.199 34.6602 175.607 34.7459C176.016 34.8312 176.327 34.9807 176.54 35.1947C176.691 35.3472 176.8 35.5242 176.868 35.7256C176.936 35.9271 176.977 36.1946 176.992 36.529H176.126C176.115 36.0425 175.954 35.7224 175.643 35.568C175.332 35.4136 174.697 35.3365 173.737 35.3365C172.796 35.3365 172.18 35.4308 171.89 35.6196C171.698 35.7428 171.559 35.9417 171.473 36.2157C171.386 36.4901 171.343 36.8647 171.343 37.3405C171.343 37.7903 171.395 38.1448 171.5 38.4042C171.604 38.6644 171.769 38.8499 171.993 38.9624C172.302 39.1184 172.996 39.1969 174.073 39.1969C174.923 39.1969 175.481 39.1197 175.747 38.9653C176.014 38.8109 176.157 38.4827 176.175 37.982Z" fill="#004494"/>
<path d="M178.125 32.4182H178.952V35.451H179.018C179.195 35.1276 179.469 34.9084 179.84 34.7919C180.212 34.6762 180.824 34.6178 181.677 34.6178C182.398 34.6178 182.944 34.6593 183.316 34.7433C183.687 34.8266 183.974 34.9719 184.176 35.1789C184.352 35.3605 184.47 35.5836 184.529 35.8479C184.588 36.1132 184.617 36.5527 184.617 37.1657V39.8498H183.79V37.4216C183.79 36.8877 183.771 36.518 183.734 36.3108C183.698 36.1038 183.618 35.9277 183.497 35.7828C183.365 35.6196 183.153 35.5045 182.86 35.437C182.567 35.3699 182.139 35.3365 181.572 35.3365C180.936 35.3365 180.439 35.3809 180.083 35.4695C179.726 35.5583 179.457 35.703 179.277 35.9024C179.141 36.0552 179.053 36.2235 179.012 36.409C178.972 36.5939 178.952 36.9315 178.952 37.4216V39.8498H178.124V32.4182H178.125Z" fill="#004494"/>
<path d="M185.806 34.6829H186.634V35.461H186.695C186.871 35.1308 187.141 34.9077 187.503 34.7919C187.865 34.6758 188.477 34.6174 189.337 34.6174C190.088 34.6174 190.644 34.6583 191.006 34.7403C191.368 34.8218 191.652 34.9696 191.858 35.1837C192.02 35.3543 192.133 35.5677 192.197 35.8236C192.261 36.0792 192.294 36.4489 192.294 36.9312V39.8494H191.466V37.2798C191.466 36.819 191.447 36.4878 191.408 36.2864C191.37 36.0847 191.292 35.9151 191.174 35.7775C191.034 35.618 190.82 35.5045 190.531 35.4373C190.242 35.3699 189.811 35.3361 189.237 35.3361C188.597 35.3361 188.099 35.3828 187.743 35.475C187.386 35.5677 187.117 35.7192 186.937 35.9296C186.812 36.0821 186.73 36.2533 186.692 36.444C186.653 36.6347 186.634 36.973 186.634 37.4595V39.8494H185.806V34.6829H185.806Z" fill="#004494"/>
<path d="M196.726 35.3361C196.178 35.3361 195.764 35.3566 195.485 35.3961C195.205 35.4364 194.983 35.509 194.817 35.6144C194.622 35.7377 194.481 35.9322 194.392 36.1995C194.304 36.4664 194.26 36.83 194.26 37.2912C194.26 37.8133 194.319 38.2045 194.436 38.4642C194.554 38.7237 194.756 38.9076 195.043 39.0169C195.36 39.1362 195.976 39.1966 196.892 39.1966C197.488 39.1966 197.926 39.1748 198.207 39.1311C198.488 39.0876 198.711 39.0062 198.877 38.8862C199.061 38.7587 199.192 38.5687 199.272 38.3144C199.351 38.0605 199.39 37.7027 199.39 37.2415C199.39 36.6973 199.328 36.2981 199.203 36.0445C199.063 35.7613 198.83 35.5726 198.505 35.4782C198.179 35.3835 197.586 35.3361 196.726 35.3361ZM196.593 34.6174C197.417 34.6174 198.025 34.6421 198.416 34.691C198.808 34.74 199.114 34.8302 199.335 34.9606C199.666 35.1565 199.904 35.4354 200.052 35.796C200.199 36.1573 200.273 36.648 200.273 37.2688C200.273 37.9586 200.184 38.4827 200.008 38.8427C199.879 39.1148 199.707 39.3273 199.492 39.4797C199.277 39.6321 198.995 39.7427 198.645 39.8115C198.307 39.8803 197.744 39.9146 196.957 39.9146C196.214 39.9146 195.654 39.8903 195.275 39.8413C194.896 39.7924 194.589 39.7041 194.354 39.577C194.004 39.3921 193.754 39.1191 193.603 38.7578C193.452 38.3971 193.377 37.8915 193.377 37.2415C193.377 36.5157 193.486 35.966 193.703 35.592C193.923 35.2074 194.228 34.9502 194.618 34.8192C195.008 34.6885 195.667 34.621 196.593 34.6174Z" fill="#004494"/>
<path d="M202.256 32.4177H201.428V39.8493H202.256V32.4177Z" fill="#004494"/>
<path d="M206.764 35.3364C206.217 35.3364 205.803 35.3568 205.523 35.3964C205.243 35.4366 205.022 35.5092 204.856 35.6147C204.661 35.7379 204.52 35.9325 204.431 36.1997C204.342 36.4666 204.299 36.8302 204.299 37.2914C204.299 37.8136 204.357 38.2047 204.475 38.4645C204.593 38.7239 204.795 38.9078 205.082 39.0171C205.398 39.1365 206.015 39.1968 206.93 39.1968C207.526 39.1968 207.965 39.1751 208.246 39.1313C208.527 39.0878 208.75 39.0064 208.916 38.8864C209.1 38.759 209.231 38.5689 209.311 38.3146C209.389 38.0607 209.429 37.703 209.429 37.2418C209.429 36.6976 209.366 36.2983 209.242 36.0447C209.102 35.7616 208.869 35.5728 208.544 35.4784C208.218 35.3837 207.625 35.3364 206.764 35.3364ZM206.632 34.6177C207.456 34.6177 208.064 34.6423 208.455 34.6913C208.847 34.7403 209.153 34.8304 209.374 34.9608C209.705 35.1567 209.943 35.4356 210.091 35.7963C210.238 36.1576 210.312 36.6483 210.312 37.269C210.312 37.9589 210.223 38.483 210.046 38.843C209.918 39.1151 209.746 39.3275 209.531 39.48C209.316 39.6324 209.034 39.743 208.684 39.8117C208.346 39.8805 207.783 39.9149 206.996 39.9149C206.253 39.9149 205.693 39.8905 205.314 39.8416C204.936 39.7926 204.628 39.7044 204.393 39.5772C204.043 39.3924 203.793 39.1193 203.642 38.758C203.491 38.3974 203.416 37.8917 203.416 37.2418C203.416 36.5159 203.524 35.9662 203.741 35.5923C203.962 35.2076 204.267 34.9504 204.657 34.8194C205.047 34.6887 205.705 34.6212 206.632 34.6177Z" fill="#004494"/>
<path d="M214.848 35.3361C213.825 35.3361 213.147 35.4197 212.812 35.5868C212.405 35.7934 212.201 36.3139 212.201 37.1487C212.201 37.9945 212.43 38.5264 212.89 38.7441C213.166 38.8744 213.782 38.9399 214.738 38.9399C215.779 38.9399 216.441 38.8508 216.724 38.673C216.93 38.5427 217.076 38.3539 217.162 38.1071C217.249 37.8603 217.292 37.51 217.292 37.0563C217.292 36.6243 217.243 36.2941 217.144 36.0655C217.044 35.8365 216.875 35.6665 216.636 35.5533C216.334 35.4084 215.738 35.3361 214.848 35.3361ZM217.292 34.6829H218.125V38.5485C218.125 39.3648 218.082 39.9817 217.998 40.3994C217.921 40.7912 217.711 41.1103 217.369 41.3575C217.144 41.5167 216.836 41.626 216.445 41.6841C216.053 41.7421 215.434 41.771 214.588 41.771C213.713 41.771 213.064 41.7168 212.64 41.6078C212.218 41.4992 211.903 41.3065 211.698 41.0312C211.598 40.9005 211.533 40.7721 211.502 40.6472C211.47 40.5217 211.454 40.3394 211.454 40.1001H212.304C212.322 40.2921 212.36 40.4399 212.415 40.5431C212.47 40.6469 212.563 40.7348 212.695 40.8074C212.986 40.9741 213.587 41.0578 214.5 41.0578C215.286 41.0578 215.858 41.0241 216.215 40.9566C216.572 40.8895 216.822 40.7669 216.965 40.5891C217.08 40.4438 217.156 40.2719 217.197 40.0748C217.237 39.8769 217.267 39.5147 217.285 38.988H217.23C217.002 39.2678 216.732 39.4491 216.419 39.5331C216.106 39.6165 215.526 39.6583 214.676 39.6583C213.97 39.6583 213.421 39.6275 213.032 39.5656C212.642 39.5043 212.346 39.3989 212.144 39.25C211.857 39.0428 211.647 38.769 211.515 38.4278C211.383 38.0866 211.316 37.6508 211.316 37.1211C211.316 35.9743 211.673 35.2342 212.387 34.8998C212.615 34.7948 212.909 34.7211 213.269 34.6793C213.63 34.6375 214.156 34.6167 214.847 34.6167C215.418 34.6167 215.83 34.6332 216.086 34.666C216.341 34.6984 216.558 34.762 216.734 34.8564C216.951 34.9796 217.124 35.1434 217.253 35.3464H217.303L217.292 34.6829Z" fill="#004494"/>
<path d="M218.795 34.6829H219.766L222.292 39.1851H222.402L224.747 34.6829H225.718L223.169 39.4897C222.868 40.0598 222.63 40.4662 222.455 40.7098C222.28 40.9527 222.088 41.147 221.878 41.2919C221.68 41.4265 221.462 41.519 221.227 41.5692C220.992 41.6202 220.661 41.6458 220.234 41.6458C220.05 41.6458 219.894 41.6422 219.765 41.6348V40.8891C219.897 40.8998 220.024 40.9053 220.145 40.9053C220.694 40.9053 221.082 40.8398 221.31 40.7095C221.537 40.5788 221.775 40.2882 222.021 39.838H221.74L218.795 34.6829Z" fill="#004494"/>
<path d="M33.9593 20.0706H32.25V21.7574H33.9593V20.0706Z" fill="#004494"/>
<path d="M33.9593 23.4023H32.25V36.6873H33.9593V23.4023Z" fill="#004494"/>
<path d="M37.2927 20.0703H39.002V23.4021H45.7113V25.0467H39.002V33.3553C39.002 34.2829 39.7283 35.0421 40.6685 35.0421H45.7113V36.6871H40.6685C38.9165 36.6871 37.2927 35.2951 37.2927 33.3553V25.0467H34.7715V23.4021H37.2927V20.0703Z" fill="#004494"/>
<path d="M17.4218 30.0659H30.5837C30.5837 28.5896 30.4982 27.4931 30.3271 26.7763C30.1564 26.0592 29.857 25.4265 29.4297 24.8784C28.8741 24.2456 28.1905 23.7818 27.293 23.571C26.4384 23.3602 24.9854 23.2334 23.0198 23.2334C21.0111 23.2334 19.6012 23.3602 18.7037 23.571C17.8063 23.7818 17.1224 24.2456 16.6095 24.8784C16.1398 25.4265 15.8404 26.0592 15.7121 26.7763C15.5414 27.4931 15.4559 28.5896 15.4131 30.0659C15.4559 31.4998 15.5414 32.5963 15.7121 33.3131C15.8404 34.0302 16.1398 34.6626 16.6095 35.2113C17.1224 35.8438 17.8063 36.3079 18.7037 36.5187C19.6012 36.7713 21.0111 36.856 23.0198 36.856C24.9854 36.856 26.4384 36.7713 27.293 36.5187C28.1905 36.3079 28.8741 35.8438 29.4297 35.2113C29.7715 34.7897 30.0281 34.2835 30.1988 33.7775H28.1905C28.0622 33.9462 27.9342 34.1148 27.7631 34.2835C27.3786 34.5786 26.823 34.8319 26.1394 34.9584C25.4127 35.0849 24.3873 35.1273 23.0625 35.1273C21.695 35.1273 20.6693 35.0849 19.9857 34.9584C19.259 34.8319 18.7465 34.5786 18.3616 34.2835C17.8491 33.8618 17.5497 33.1447 17.4642 32.1747C17.4218 31.4998 17.4218 30.7405 17.4218 30.0659ZM28.6606 28.3785H17.4218C17.4642 27.1555 17.7636 26.3119 18.3616 25.8481C18.7465 25.5108 19.259 25.2997 19.9857 25.1732C20.6693 25.0045 21.695 24.9624 23.0625 24.9624C24.3873 24.9624 25.4127 25.0045 26.1394 25.1732C26.823 25.2997 27.3786 25.5108 27.7631 25.8481C28.3612 26.3122 28.6606 27.1555 28.6606 28.3785Z" fill="#004494"/>
<path d="M30.5833 59.925C47.2922 59.925 60.8814 46.5557 60.8814 30.0657C60.8814 13.5333 47.2922 0.164307 30.5833 0.164307C25.0708 0.164307 19.8998 1.59814 15.4554 4.17068L17.1223 7.03868C21.0966 4.76128 25.6689 3.49577 30.5833 3.49577C45.4546 3.49577 57.5056 15.3891 57.5056 30.0657C57.5056 44.7005 45.4546 56.6353 30.5833 56.6353C15.712 56.6353 3.66101 44.7002 3.66101 30.0657H0.285156C0.285156 46.5557 13.8744 59.925 30.5833 59.925Z" fill="#004494"/>
<path d="M30.5832 53.3036C39.3008 53.3036 46.9075 48.6223 50.9673 41.6636L48.0612 40.0186C44.5571 45.9654 38.0616 49.9718 30.5832 49.9718C19.4296 49.9718 10.413 41.0308 10.413 30.0657C10.413 19.0582 19.4296 10.1172 30.5832 10.1172C38.0616 10.1172 44.5571 14.1239 48.0612 20.0704L50.9673 18.4254C46.9075 11.4667 39.3008 6.7854 30.5832 6.7854C17.5923 6.7854 7.03711 17.2024 7.03711 30.0657C7.03711 42.8869 17.5923 53.3036 30.5832 53.3036Z" fill="#004494"/>
</svg>
