<svg version="1.1" id="Layer_1" xmlns="http://www.w3.org/2000/svg" xmlns:xlink="http://www.w3.org/1999/xlink" x="0px" y="0px" width="378.03px" height="116.716px" viewBox="0 0 378.03 116.716" enable-background="new 0 0 378.03 116.716" xml:space="preserve">
<g>
	<defs>
		<rect id="SVGID_1_" width="378.03" height="116.716"></rect>
	</defs>
	<clipPath id="SVGID_2_">
		<use xlink:href="#SVGID_1_" overflow="visible"></use>
	</clipPath>
	<path clip-path="url(#SVGID_2_)" fill="#00A79D" d="M236.644,32.961V20.575h-12.59V6.244h-13.716v14.331h-6.041v12.386h6.041
		v20.474c0,14.74,3.581,19.45,15.968,19.45c3.582,0,10.441-1.537,10.441-1.537l-0.615-11.77c0,0-4.913,0.203-7.779,0.203
		c-4.299,0-4.299-2.354-4.299-7.472V32.961H236.644z M262.236,60.293c-7.37,0-10.237-2.458-10.338-8.292h30.094l1.024-9.622
		c0-15.457-7.269-23.032-22.315-23.032c-14.945,0-22.623,9.212-22.623,27.434c0,18.425,6.553,26.104,22.008,26.104
		c9.521,0,21.293-2.868,21.293-2.868l-0.206-10.645C281.172,59.372,270.628,60.293,262.236,60.293 M251.794,41.458
		c0.104-6.757,2.354-9.93,8.906-9.93c6.449,0,8.803,2.661,8.803,9.93H251.794z M307.481,19.347
		c-15.253,0-21.602,8.087-21.602,26.204c0,19.245,6.041,27.334,21.292,27.334c5.734,0,16.689-2.149,16.689-2.149l-0.412-11.774
		c0,0-7.984,0.82-11.873,0.82c-9.828,0-11.775-3.275-11.775-14.23c0-9.724,1.846-13.102,11.672-13.102
		c3.891,0,11.977,0.819,11.977,0.819l0.412-11.771C323.86,21.497,313.417,19.347,307.481,19.347 M341.464,71.655V33.371
		c0,0,6.449-1.228,9.826-1.228c6.143,0,7.168,5.015,7.168,12.693v26.819h13.715V44.836c0-16.481-3.684-25.489-18.016-25.489
		c-4.812,0-12.693,2.662-12.693,2.662V0h-13.717v71.655H341.464z"></path>
	<path clip-path="url(#SVGID_2_)" fill="#00A79D" d="M21.6,19.347C6.348,19.347,0,27.434,0,45.551
		c0,19.245,6.04,27.332,21.293,27.332c5.732,0,16.686-2.147,16.686-2.147l-0.411-11.774c0,0-7.983,0.82-11.873,0.82
		c-9.828,0-11.773-3.275-11.773-14.23c0-9.724,1.843-13.102,11.67-13.102c3.89,0,11.976,0.819,11.976,0.819l0.411-11.771
		C37.979,21.497,27.537,19.347,21.6,19.347 M42.379,76.731l13.717-5.076V0H42.379V76.731z M83.714,60.293
		c-7.37,0-10.236-2.458-10.339-8.292h30.096l1.023-9.622c0-15.457-7.267-23.032-22.315-23.032c-14.946,0-22.622,9.213-22.622,27.434
		c0,18.425,6.551,26.102,22.008,26.102c9.52,0,21.291-2.866,21.291-2.866l-0.204-10.645C102.652,59.372,92.109,60.293,83.714,60.293
		 M73.273,41.457c0.102-6.755,2.354-9.929,8.906-9.929c6.449,0,8.804,2.661,8.804,9.929H73.273z M149.534,36.953
		c0-13.102-6.552-17.606-18.016-17.606c-7.474,0-21.088,2.252-21.088,2.252l0.41,11.669c0,0,12.283-0.819,19.858-0.819
		c2.969,0,5.119,1.844,5.119,4.608v2.558l-11.055,0.716c-11.261,0.819-17.812,4.198-17.812,15.765
		c0,10.236,5.118,16.787,15.253,16.787c7.062,0,15.661-3.479,15.661-3.479c3.276,2.15,5.63,3.479,14.535,3.479l0.41-11.669
		c-2.867-0.512-3.275-1.536-3.275-5.324V36.953z M135.817,50.056v9.522c0,0-6.653,1.534-10.851,1.534
		c-2.866,0-4.197-1.842-4.197-5.426c0-3.685,2.149-5.015,5.733-5.22L135.817,50.056z M170.825,71.655V33.882
		c0,0,6.45-1.739,9.828-1.739c6.142,0,7.166,5.015,7.166,12.795v26.717h13.718V44.938c0-16.583-3.687-25.591-18.018-25.591
		c-4.811,0-12.694,3.48-12.694,3.48v-2.252h-13.717v51.081H170.825z"></path>
	<path clip-path="url(#SVGID_2_)" fill="#BCBEC0" d="M280.897,116.104V98.276c0-7.664-3.054-11.941-9.443-11.941
		c-3.442,0-5.496,1.166-7.33,2.556v-1.945h-9.997v29.159h9.997V99.442c0-3.667,1.278-4.665,3.388-4.665
		c2.057,0,3.333,0.998,3.333,4.775v16.552H280.897z M309.278,102.441c0-10.832-4.998-16.106-12.996-16.106
		c-7.665,0-13.329,5.164-13.329,15.218c0,8.942,4.832,15.163,13.606,15.163c4.557,0,8.277-1.223,11.887-3.334l-3.832-6.385
		c-2.889,1.498-4.998,2.055-7.555,2.055c-2.722,0-4.609-1.444-4.942-4.667h17.106C309.278,103.886,309.278,103.274,309.278,102.441
		 M300.448,98.165h-8.331c0.333-2.889,1.61-4.442,3.887-4.442C298.95,93.723,299.948,95.222,300.448,98.165 M347.491,86.945h-9.553
		l-0.779,4.331c-0.666,3.333-1.609,9.777-1.943,11.887c-0.387-2.109-1.555-8.498-2.275-11.998l-0.889-4.22h-8.223l-0.943,4.22
		c-0.723,3.5-1.887,9.889-2.277,11.998c-0.332-2.109-1.277-8.554-1.887-11.887l-0.834-4.331h-9.666l8.221,29.159h7.887l1.223-5.832
		c0.777-3.499,1.834-9.886,2.223-11.996c0.332,2.11,1.498,8.553,2.164,11.885l1.223,5.943h8.109L347.491,86.945z M371.259,106.884
		c0-5.774-3.334-7.721-11.553-9.885c-2.557-0.777-2.889-1.111-2.889-2s0.498-1.276,2.443-1.276c2.555,0,5.443,0.776,9.277,2.444
		l2.219-7.723c-3.887-1.389-6.83-2.109-11.217-2.109c-7.943,0-11.887,3.553-11.887,9.553c0,6.053,3.109,7.885,12.107,10.273
		c1.889,0.502,2.332,0.89,2.332,1.836c0,0.888-0.721,1.33-2.664,1.33c-2.557,0-6.555-0.998-10.053-2.554l-2.334,7.554
		c3.721,1.443,7.889,2.389,12.164,2.389C366.649,116.716,371.259,113.605,371.259,106.884"></path>
	<path clip-path="url(#SVGID_2_)" fill="#FFFFFF" d="M72.732,101.442c0-10.83-4.222-15.107-9.72-15.107
		c-3.055,0-4.888,1.109-6.887,2.666V75.9l-9.997,3.714v36.49h9.997v-1.945c1.61,1.223,3.61,2.557,6.498,2.557
		C69.01,116.716,72.732,111.884,72.732,101.442 M62.845,101.775c0,5.44-1.055,6.72-3.11,6.72c-1.555,0-2.555-0.557-3.61-1.389
		V95.943c1.055-0.833,2.11-1.389,3.555-1.389C61.79,94.555,62.845,95.943,62.845,101.775 M101.668,116.104V86.945H91.616v16.662
		c0,3.667-1.278,4.664-3.334,4.664c-2.054,0-3.331-0.997-3.331-4.774V86.945H74.898v17.827c0,7.665,3.054,11.943,9.442,11.943
		c3.388,0,5.498-1.168,7.276-2.557v1.945H101.668z M128.604,106.884c0-5.774-3.332-7.721-11.552-9.885
		c-2.555-0.777-2.888-1.111-2.888-2s0.5-1.276,2.444-1.276c2.554,0,5.442,0.776,9.275,2.444l2.222-7.723
		c-3.888-1.389-6.832-2.109-11.22-2.109c-7.942,0-11.885,3.553-11.885,9.553c0,6.053,3.11,7.885,12.108,10.273
		c1.888,0.502,2.332,0.89,2.332,1.836c0,0.888-0.722,1.33-2.665,1.33c-2.556,0-6.554-0.998-10.054-2.554l-2.332,7.554
		c3.721,1.443,7.887,2.389,12.164,2.389C123.995,116.716,128.604,113.605,128.604,106.884 M142.489,79.892
		c0-2.831-2.387-4.831-5.831-4.831c-3.277,0-5.721,2-5.721,4.831c0,3.054,2.444,4.943,5.721,4.943
		C140.102,84.835,142.489,82.945,142.489,79.892 M141.657,86.945h-9.997v29.159h9.997V86.945z M172.147,116.104V98.276
		c0-7.664-3.054-11.941-9.441-11.941c-3.444,0-5.499,1.166-7.332,2.556v-1.945h-9.997v29.159h9.997V99.442
		c0-3.667,1.277-4.665,3.388-4.665c2.056,0,3.333,0.998,3.333,4.775v16.552H172.147z M200.531,102.441
		c0-10.832-5.002-16.106-12.998-16.106c-7.665,0-13.331,5.164-13.331,15.218c0,8.942,4.833,15.163,13.608,15.163
		c4.555,0,8.277-1.223,11.885-3.334l-3.83-6.385c-2.889,1.498-5,2.055-7.556,2.055c-2.72,0-4.609-1.444-4.942-4.667h17.107
		C200.531,103.886,200.531,103.274,200.531,102.441 M191.699,98.165h-8.332c0.333-2.889,1.611-4.442,3.888-4.442
		C190.199,93.723,191.197,95.222,191.699,98.165 M225.744,106.884c0-5.774-3.332-7.721-11.553-9.885
		c-2.556-0.777-2.888-1.111-2.888-2s0.5-1.276,2.444-1.276c2.556,0,5.443,0.776,9.274,2.444l2.22-7.723
		c-3.885-1.389-6.828-2.109-11.217-2.109c-7.943,0-11.887,3.553-11.887,9.553c0,6.053,3.109,7.885,12.109,10.273
		c1.889,0.502,2.332,0.89,2.332,1.836c0,0.888-0.723,1.33-2.666,1.33c-2.557,0-6.555-0.998-10.053-2.554l-2.332,7.554
		c3.719,1.443,7.885,2.389,12.164,2.389C221.133,116.716,225.744,113.605,225.744,106.884 M251.35,106.884
		c0-5.774-3.332-7.721-11.553-9.885c-2.556-0.777-2.888-1.111-2.888-2s0.5-1.276,2.443-1.276c2.555,0,5.444,0.776,9.276,2.444
		l2.222-7.723c-3.89-1.389-6.833-2.109-11.22-2.109c-7.943,0-11.886,3.553-11.886,9.553c0,6.053,3.109,7.885,12.107,10.273
		c1.889,0.502,2.332,0.89,2.332,1.836c0,0.888-0.722,1.33-2.666,1.33c-2.553,0-6.552-0.998-10.051-2.554l-2.335,7.554
		c3.722,1.443,7.888,2.389,12.164,2.389C246.738,116.716,251.35,113.605,251.35,106.884"></path>
</g>
</svg>