<?xml version="1.0" encoding="UTF-8"?>
<!-- Generator: Adobe Illustrator 17.1.0, SVG Export Plug-In . SVG Version: 6.00 Build 0)  -->
<!DOCTYPE svg PUBLIC "-//W3C//DTD SVG 1.1//EN" "http://www.w3.org/Graphics/SVG/1.1/DTD/svg11.dtd">
<svg version="1.1" xmlns="http://www.w3.org/2000/svg" xmlns:xlink="http://www.w3.org/1999/xlink" x="0px" y="0px" viewBox="0 0 1000 447.1" enable-background="new 0 0 1000 447.1" xml:space="preserve">
<g id="background_color">
</g>
<g id="Icons">
</g>
<g id="Layer_7">
</g>
<g id="TYporgraphy">
</g>
<g id="samples">
</g>
<g id="style_tile">
</g>
<g id="headers">
</g>
<g id="Layer_10">
</g>
<g id="Home_Page_mockup">
	<g>
		<text transform="matrix(1 0 0 1 547.6342 157.9756)"><tspan x="0" y="0" fill="#FFFFFF" font-family="'Avenir-Black'" font-size="163.1752" letter-spacing="5">NO</tspan><tspan x="279.5" y="0" fill="#FFFFFF" font-family="'Avenir-Black'" font-size="163.1752" letter-spacing="8">N</tspan></text>
		<text transform="matrix(1 0 0 1 541.9969 298.0605)"><tspan x="0" y="0" fill="#FFFFFF" font-family="'Avenir-Black'" font-size="163.1752" letter-spacing="7">G</tspan><tspan x="134.1" y="0" fill="#FFFFFF" font-family="'Avenir-Black'" font-size="163.1752" letter-spacing="2">M</tspan><tspan x="290.3" y="0" fill="#FFFFFF" font-family="'Avenir-Black'" font-size="163.1752" letter-spacing="7">O</tspan></text>
		<rect x="0" y="0" fill="#94C0E9" width="499.1" height="447.1"/>
		<path d="M336.4,92.2c-4.3-23.2-59-25.3-96.8,63.4c-20.2-45.1-50.5-91.7-92.9-117c-24-14.3-77.7,2.4-21.8,129.4    c0,0-25.8,44.7,3.6,72.9c43.1,41.3,82.5,24.3,131.3,30.4c-9.2,14.5,11.9,35.8,14,11.8c0.3-3.7-0.3-9.1-1.3-14.6    C284.7,252.6,349.8,163.9,336.4,92.2z"/>
		<rect x="499.1" y="0" fill="#00529C" width="500.8" height="447.1"/>
		<path fill="#4C8B2B" d="M1000,447.1H283c26.6-156.5,105.8-299.3,202.7-424.9c-48.8,22.6-111,89.5-165.4,165.7    c-17,39.3-40.8,71.5-47.7,80.4c1,5.5,1.7,10.9,1.3,14.6c-1.5,16.9-12.3,11.3-15.4,1.5c-19.7,34.6-36.2,68.3-47.5,97.7    C184.1,312.1,120.8,254.4,38.1,223c66.5,80.6,107.5,147,124.7,224.1H0"/>
		<path fill="#F38B00" d="M313.9,126c-2-23.8-42.7-22.2-67.3,43.4c0,0-0.2,0.3-0.6,0.9c13.7,33.8,21.7,65.3,24.8,84.2    C279.7,240.5,318.2,176.8,313.9,126z"/>
		<path fill="#F38B00" d="M259.8,263.6c10.4,4.5-26.2-128.2-97.3-171.5c-18-11-48.9-1.6-10.5,85c0,0-28.7,46.3,15.4,66.9    C195.1,256.9,231,251.1,259.8,263.6z"/>
		<g>
			<path fill="#FFFFFF" d="M559.4,42.4H594l49.1,80.3h0.3V42.4h25.5V158h-33.3l-50.4-82.2h-0.3V158h-25.5V42.4z"/>
			<path fill="#FFFFFF" d="M753.9,39.5c36.1,0,62.3,23.7,62.3,60.7c0,37-26.3,60.7-62.3,60.7s-62.3-23.7-62.3-60.7     C691.6,63.2,717.8,39.5,753.9,39.5z M753.9,137.4c21.7,0,35.9-15.7,35.9-37.2c0-21.5-14.2-37.2-35.9-37.2S718,78.7,718,100.2     C718,121.7,732.2,137.4,753.9,137.4z"/>
			<path fill="#FFFFFF" d="M838.9,42.4h34.6l49.1,80.3h0.3V42.4h25.5V158h-33.3l-50.4-82.2h-0.3V158h-25.5V42.4z"/>
		</g>
		<g>
			<path fill="#FFFFFF" d="M552.7,316.7h32.4c23.5,0,29.5,14,29.5,25.5c0,11.5-6,25.5-29.5,25.5h-19.9v40.2h-12.5V316.7z      M565.2,356.9h16.4c9.9,0,19.8-2.3,19.8-14.7c0-12.4-9.9-14.7-19.8-14.7h-16.4V356.9z"/>
			<path fill="#FFFFFF" d="M626.3,346.9H638v9.4h0.3c3-6.4,10.8-10.9,18.5-10.9c1.8,0,3.6,0.3,5.2,0.8l-0.5,12.5     c-2-0.5-3.9-0.9-5.7-0.9c-11.4,0-17.7,6.2-17.7,19.6v30.6h-11.7V346.9z"/>
			<path fill="#FFFFFF" d="M699.1,345.3c18.3,0,32.8,14.3,32.8,32.1c0,17.8-14.4,32.1-32.8,32.1c-18.3,0-32.8-14.3-32.8-32.1     C666.3,359.6,680.7,345.3,699.1,345.3z M699.1,398.6c12.5,0,20.3-8.9,20.3-21.2c0-12.4-7.8-21.2-20.3-21.2     c-12.5,0-20.3,8.9-20.3,21.2C678.8,389.7,686.6,398.6,699.1,398.6z"/>
			<path fill="#FFFFFF" d="M758.6,346.9v69.8c0,6.3-0.1,22.1-18.9,22.1c-2.6,0-5.1-0.3-7.5-1.2l1.3-10.7c1.4,0.5,3.3,1,4.8,1     c6.4,0,8.6-4.1,8.6-11.8v-69.3H758.6z M752.8,316.5c4.7,0,8.6,3.9,8.6,8.5c0,4.6-3.9,8.5-8.6,8.5c-4.7,0-8.6-3.9-8.6-8.5     C744.2,320.3,748.1,316.5,752.8,316.5z"/>
			<path fill="#FFFFFF" d="M787.4,381.6c0,10.7,10,17.8,20.8,17.8c7.2,0,12.4-3.6,16.9-9.1l8.8,6.7c-6.5,8.4-15.5,12.5-27.3,12.5     c-19.5,0-31.7-13.9-31.7-32.1c0-18.3,13.4-32.1,31.9-32.1c21.7,0,30,16.5,30,32.2v4.1H787.4z M824.3,372.4     c-0.3-10.2-6-17.8-17.8-17.8c-11.6,0-19.1,9.7-19.1,17.8H824.3z"/>
			<path fill="#FFFFFF" d="M894.7,363.1c-4.3-4.5-8.8-6.8-15.3-6.8c-12.7,0-19.2,10.2-19.2,21.6c0,11.5,7.8,20.7,19.9,20.7     c6.5,0,11.1-2.3,15-6.8l8.3,8.2c-6.1,6.7-14.4,9.4-23.4,9.4c-19,0-32.2-13-32.2-31.8c0-18.8,13-32.2,32.2-32.2     c9,0,17.6,3.1,23.7,9.7L894.7,363.1z"/>
			<path fill="#FFFFFF" d="M954.9,356.9h-16.8v27.7c0,6.8,0,14,8.8,14c2.7,0,6-0.4,8.3-1.8v10.6c-2.7,1.5-8.2,2.1-10.5,2.1     c-18.1,0-18.3-10.9-18.3-20.7v-31.8h-13.5v-10h13.5v-17.1h11.7v17.1h16.8V356.9z"/>
		</g>
		<path fill="#FFFFFF" d="M658.3,289.9c-15,7.8-31.5,11.1-48.5,11.1c-36.1,0-62.3-23.7-62.3-60.7c0-37,26.3-60.7,62.3-60.7    c18.3,0,34.4,4.1,46,14.8L637.9,214c-6.9-7.2-15.2-10.9-28.1-10.9c-21.7,0-35.9,15.7-35.9,37.2c0,21.5,14.2,37.2,35.9,37.2    c11.1,0,19.3-3.1,24-5.7V253h-20.7v-23.5h45.2V289.9z"/>
		<path fill="#FFFFFF" d="M687.9,182.5h38.5l26.6,75.4h0.3l26.8-75.4h38.3v115.5H793v-88.6h-0.3l-30.4,88.6h-19.4l-29.2-88.6h-0.3    v88.6h-25.5V182.5z"/>
		<path fill="#FFFFFF" d="M900.2,179.6c36.1,0,62.3,23.7,62.3,60.7c0,37-26.3,60.7-62.3,60.7c-36.1,0-62.3-23.7-62.3-60.7    C837.8,203.3,864.1,179.6,900.2,179.6z M900.2,277.5c21.7,0,35.9-15.7,35.9-37.2c0-21.5-14.2-37.2-35.9-37.2    c-21.7,0-35.9,15.7-35.9,37.2C864.3,261.8,878.5,277.5,900.2,277.5z"/>
	</g>
</g>
<g id="Layer_11">
</g>
<g id="guides">
</g>
</svg>