<svg fill="none" height="47" viewBox="0 0 155 47" width="155" xmlns="http://www.w3.org/2000/svg"><g fill="#006eb6"><path d="m59.2734 22.4215h-2.3252l-8.9482-11.8396v11.8216h-2.5894v-16.33099h2.3252l8.9658 11.89339v-11.89339h2.5894z"/><path d="m67.7459 10.941c.808-.009 1.6099.1436 2.3604.4492.6914.2688 1.3255.6715 1.8671 1.1857.5219.5112.9408 1.1215 1.233 1.7966.5954 1.4979.5954 3.1733 0 4.6711-.2922.6752-.7111 1.2855-1.233 1.7966-.5368.534-1.1712.9552-1.8671 1.2397-1.5128.5987-3.1904.5987-4.7031 0-.6966-.2833-1.3313-.7046-1.8672-1.2397-.5209-.512-.9396-1.1221-1.233-1.7966-.5954-1.4978-.5954-3.1732 0-4.6711.2934-.6744.7121-1.2845 1.233-1.7966.5359-.535 1.1706-.9564 1.8672-1.2396.7484-.2854 1.5441-.4196 2.3427-.3953zm0 2.2997c-.4651-.0024-.9261.0892-1.3563.2695-.4096.1667-.7813.4174-1.0921.7366-.3123.3244-.5578.7092-.7222 1.1318-.351.9371-.351 1.9733 0 2.9105.1644.4226.4099.8074.7222 1.1318.3105.3196.6822.5703 1.0921.7366.8774.3515 1.8528.3515 2.7303 0 .7972-.3373 1.4307-.9834 1.7614-1.7966.351-.9371.351-1.9733 0-2.9104-.3307-.8132-.9642-1.4593-1.7614-1.7966-.4254-.2323-.8931-.3729-1.374-.4132z"/><path d="m81.4856 10.9413c.3283-.0278.6582-.0278.9864 0 .2888.0489.5721.1271.8455.2335l-.5284 2.4973c-.279-.1411-.5752-.2438-.8807-.3054-.2896-.0642-.5845-.1003-.8808-.1078-.3615-.0048-.7205.0623-1.0568.1976-.3151.1254-.5981.3219-.8279.5749-.2433.2765-.429.6004-.5461.9522-.1356.4108-.2011.8422-.1937 1.2756v6.1623h-2.4661v-11.1928h2.378v1.3475c.3364-.5152.8057-.9255 1.3563-1.1858.5662-.2808 1.185-.4339 1.8143-.4491z"/><path d="m89.8347 10.9411c.7009-.0197 1.396.1345 2.0257.4491.5557.2908 1.0426.7015 1.4268 1.2038v-6.98878h2.3956v16.81608h-2.4485v-1.3475c-.3844.4974-.8716.9022-1.4268 1.1858-.6303.3126-1.3249.4667-2.0256.4491-.7254.0118-1.4454-.1288-2.1151-.4132s-1.2749-.7063-1.7778-1.2396c-.497-.5172-.8917-1.1272-1.1625-1.7966-.6031-1.5708-.6031-3.3159 0-4.8867.2708-.6694.6655-1.2794 1.1625-1.7966.5105-.5368 1.125-.9594 1.8042-1.2408.6793-.2815 1.4086-.4157 2.1415-.3941zm.2818 2.2996c-.4787-.0079-.9535.0902-1.3915.2875-.3958.1801-.75.4433-1.0393.7725-.2873.3305-.5087.7149-.6517 1.1319-.306.902-.306 1.8827 0 2.7847.1434.4167.3647.8011.6517 1.1318.2897.3288.6437.592 1.0393.7726.4347.1877.9019.2845 1.3739.2845.4721 0 .9393-.0968 1.374-.2845.3934-.1763.7472-.4331 1.0392-.7546.2933-.3292.5207-.7137.6694-1.1319.3211-.924.3211-1.9325 0-2.8565-.1491-.418-.3764-.8024-.6694-1.1319-.2917-.3219-.6455-.5788-1.0392-.7546-.446-.1881-.9271-.2739-1.4092-.2515z"/><path d="m99.8752 5.64136c.2748.01405.5438.09378.7828.23278.24.13901.444.33341.596.56757.153.23416.249.50155.282.78067s.001.56217-.093.82641c-.087.20312-.213.38641-.37.53897-.157.15539-.343.27751-.546.35932-.424.17481-.8975.17481-1.3212 0-.1992-.08041-.3801-.20161-.5316-.35611s-.2703-.33902-.3491-.54218c-.1714-.43214-.1714-.91531 0-1.34745.0802-.20755.1999-.39685.3523-.55694.1512-.15415.3307-.27626.5284-.35932.2118-.09205.4392-.14088.6694-.14372zm1.2158 16.78014h-2.4489v-11.1928h2.4129z"/><path d="m109.21 10.9414c.791-.0081 1.576.1446 2.308.4492.683.2931 1.287.749 1.761 1.3294l-1.567 1.6529c-.357-.352-.768-.6432-1.216-.8624-.447-.2075-.935-.3117-1.426-.3054-.443-.0016-.88.0902-1.286.2695-.387.1717-.734.4224-1.022.7366-.3.3277-.533.7123-.687 1.1319-.328.9413-.328 1.9691 0 2.9104.154.4196.387.8042.687 1.1319.287.3146.635.5653 1.022.7366.406.1793.843.2711 1.286.2695.512.0013 1.017-.1154 1.479-.3414.445-.2095.855-.4883 1.216-.8264l1.479 1.6888c-.479.575-1.082 1.0299-1.761 1.3295-.726.3045-1.505.4572-2.29.4491-.814.0128-1.623-.1398-2.378-.4491-.684-.277-1.303-.6965-1.819-1.2317s-.916-1.1743-1.176-1.8764c-.549-1.5067-.549-3.1645 0-4.6712.26-.7021.66-1.3412 1.176-1.8764s1.135-.9547 1.819-1.2317c.763-.2993 1.578-.4398 2.395-.4132z"/><path d="m48 46.7115h-2.5894v-16.349h2.5894z"/><path d="m57.1064 35.1952c.6017-.0039 1.1989.1057 1.7614.3234.5253.2058 1.0045.5174 1.4092.9162.3972.3974.7091.8746.916 1.4014.2247.571.3384 1.1812.3346 1.7965v7.0786h-2.3779v-6.2701c.0512-.7845-.1876-1.5601-.6694-2.1739-.2411-.2585-.5347-.46-.8604-.5903-.3256-.1304-.6752-.1864-1.0243-.1642-.3726-.0001-.7423.0668-1.0922.1976-.3355.1254-.6416.3213-.8983.5749-.2669.2643-.4769.5825-.6165.9342-.16.4051-.2379.839-.229 1.2756v6.2162h-2.3956v-11.2287h2.378v1.3654c.2042-.3068.4538-.5795.7398-.8084.2589-.205.5432-.3741.8455-.5031.2888-.1232.5901-.2136.8983-.2695.2911-.049.5857-.073.8808-.0718z"/><path d="m70.2646 35.1952c.6017-.0039 1.1989.1057 1.7614.3234.5253.2058 1.0045.5174 1.4092.9162.3972.3974.7091.8746.916 1.4014.2247.571.3384 1.1812.3347 1.7965v7.0786h-2.378v-6.2701c.0512-.7845-.1876-1.5601-.6694-2.1739-.2411-.2585-.5347-.46-.8604-.5903-.3256-.1304-.6752-.1864-1.0243-.1642-.3618.0098-.7193.0827-1.0569.2156-.3356.1254-.6417.3212-.8984.5749-.2669.2643-.4768.5825-.6165.9342-.16.4051-.2379.839-.229 1.2756v6.1982h-2.4308v-11.2287h2.4132v1.3654c.2042-.3068.4538-.5795.7398-.8084.2589-.205.5432-.3741.8455-.5031.2889-.1232.5901-.2136.8984-.2695.2795-.047.5622-.071.8455-.0718z"/><path d="m82.7886 35.1952c.808-.009 1.6099.1436 2.3604.4492.696.2845 1.3304.7057 1.8672 1.2396.5219.5111.9407 1.1215 1.233 1.7966.5954 1.4978.5954 3.1733 0 4.6711-.2923.6751-.7111 1.2855-1.233 1.7966-.5368.5339-1.1712.9551-1.8672 1.2396-1.5127.5988-3.1904.5988-4.7031 0-.6966-.2832-1.3312-.7045-1.8672-1.2396-.5212-.5117-.94-1.1219-1.233-1.7966-.5954-1.4978-.5954-3.1733 0-4.6711.293-.6747.7118-1.2849 1.233-1.7966.536-.5351 1.1706-.9564 1.8672-1.2396.7448-.3038 1.5406-.4564 2.3427-.4492zm0 2.2996c-.4651-.0023-.9261.0893-1.3563.2695-.4096.1668-.7813.4175-1.0921.7366-.3122.3245-.5578.7093-.7222 1.1319-.351.9371-.351 1.9733 0 2.9105.164.4227.4096.8076.7222 1.1318.3108.3191.6825.5699 1.0921.7366.8775.3515 1.8528.3515 2.7303 0 .7972-.3373 1.4307-.9834 1.7614-1.7966.351-.9371.351-1.9733 0-2.9105-.3307-.8131-.9642-1.4592-1.7614-1.7965-.4254-.2323-.8931-.3729-1.374-.4133z"/><path d="m96.5985 46.7113h-2.836l-4.4036-11.1927h2.6069l3.1531 8.6236 3.2411-8.6595h2.536z"/><path d="m112.962 46.7114h-2.395v-1.3474c-.384.4977-.872.9027-1.427 1.1857-.631.312-1.325.466-2.026.4492-.725.0118-1.445-.1289-2.115-.4133-.67-.2843-1.275-.7063-1.778-1.2396-.496-.5177-.891-1.1276-1.162-1.7966-.563-1.5227-.563-3.2022 0-4.725.271-.6692.666-1.2791 1.162-1.7966.503-.5333 1.108-.9552 1.778-1.2396s1.39-.425 2.115-.4132c.701-.0197 1.396.1344 2.026.4491.556.2907 1.042.7015 1.427 1.2037v-1.3474h2.395zm-5.513-9.2165c-.479-.0073-.953.0907-1.392.2875-.396.1796-.75.4429-1.039.7725-.287.3305-.509.7149-.652 1.1319-.306.902-.306 1.8827 0 2.7847.144.4167.365.8011.652 1.1318.289.3292.644.5924 1.039.7726.438.1984.913.2965 1.392.2874.466.0085.928-.0834 1.356-.2695.393-.1766.747-.4334 1.039-.7545.294-.3292.521-.7137.67-1.1319.321-.924.321-1.9325 0-2.8566-.149-.4179-.377-.8023-.67-1.1318-.291-.3219-.645-.5788-1.039-.7546-.428-.1871-.89-.279-1.356-.2695z"/><path d="m123.514 37.7283h-4.21v4.8508c-.006.3232.042.645.141.9522.077.2397.203.4601.37.6468.152.161.339.2839.546.3593.219.0836.452.1262.687.1257.391.0005.779-.0726 1.144-.2156.376-.142.736-.3226 1.075-.5389l.951 1.9403c-.468.3205-.97.5857-1.497.7905-.598.2239-1.231.3335-1.867.3234-.518.0229-1.035-.059-1.522-.2409s-.933-.4603-1.314-.8191c-.378-.4504-.665-.973-.844-1.5375-.178-.5644-.245-1.1594-.195-1.7503v-4.8867h-2.255v-2.2457h2.184v-3.3776h2.396v3.3776h4.21z"/><path d="m126.931 29.8952c.229-.0029.456.0398.669.1257.204.0896.389.2176.546.3773.253.2431.43.557.508.9022.079.3453.055.7065-.067 1.0381-.087.2034-.212.3868-.37.539-.159.1533-.344.2751-.546.3593-.424.1748-.898.1748-1.321 0-.198-.083-.378-.2052-.529-.3593-.152-.1533-.272-.3367-.352-.539-.172-.4321-.172-.9153 0-1.3474.079-.2049.198-.3915.35-.5489.151-.1573.331-.2823.531-.3674.182-.0938.378-.1545.581-.1796zm1.215 16.816h-2.395v-11.2287h2.413z"/><path d="m136.319 35.1952c.808-.009 1.61.1436 2.361.4492.696.2845 1.33.7057 1.867 1.2396.522.5111.941 1.1215 1.233 1.7966.595 1.4978.595 3.1733 0 4.6711-.292.6751-.711 1.2855-1.233 1.7966-.537.5339-1.171.9551-1.867 1.2396-1.513.5988-3.191.5988-4.703 0-.687-.2456-1.321-.6238-1.868-1.1138-.521-.5118-.94-1.1219-1.233-1.7966-.595-1.4979-.595-3.1733 0-4.6712.293-.6746.712-1.2848 1.233-1.7965.536-.5351 1.171-.9564 1.868-1.2397.736-.3469 1.532-.5423 2.342-.5749zm0 2.2996c-.465-.0023-.926.0893-1.356.2695-.41.1668-.781.4175-1.092.7366-.312.3245-.558.7093-.722 1.1319-.351.9371-.351 1.9733 0 2.9105.164.4227.409.8076.722 1.1318.311.3191.682.5699 1.092.7366.878.3515 1.853.3515 2.73 0 .798-.3373 1.431-.9834 1.762-1.7966.351-.9371.351-1.9733 0-2.9105-.331-.8131-.964-1.4592-1.762-1.7965-.425-.2323-.893-.3729-1.374-.4133z"/><path d="m150.253 35.1951c.601-.0039 1.199.1057 1.761.3233.526.2059 1.005.5175 1.409.9163.398.3974.71.8746.916 1.4013.225.5711.339 1.1813.335 1.7966v7.0786h-2.36v-6.2701c.051-.7845-.188-1.5601-.67-2.1739-.245-.2633-.544-.4677-.876-.5982s-.689-.1839-1.044-.1563c-.372-.0001-.742.0668-1.092.1976-.335.1254-.641.3213-.898.5749-.267.2643-.477.5825-.617.9342-.16.4051-.238.839-.229 1.2756v6.2162h-2.448v-11.2287h2.378v1.3654c.204-.3068.454-.5795.74-.8084.259-.205.543-.3742.845-.5031.289-.1232.59-.2136.899-.2695.314-.0531.632-.0772.951-.0718z"/><path d="m14.9548.00001481c-3.0548-.00434829-6.03712.94895619-8.54308 2.73081519l7.67998 17.12147c.0787.2131.2283.3912.4227.5031h-1.3739c-.6165 0-.8279 0-1.1097-.7007l-7.04586-15.77405c-.47439.43187-.92152.89391-1.33871 1.38337l6.49977 14.58828c.0787.2131.2283.3912.4228.5031h-1.32112c-.61652 0-.82789 0-1.10973-.7007l-5.68952-12.77375c-.40558.63074-.76473 1.2913-1.07449 1.97624l4.89686 10.97711c.07868.2131.22833.3912.42276.5031h-1.40917c-.61652 0-.82789 0-1.10973-.7007l-3.663836-8.3721c-.287363 1.0737-.4586575 2.1761-.510824 3.2878l2.36036 5.3897c.07867.2131.22832.3912.42275.5031h-1.3211c-.22844.0216-.45856-.0154-.669352-.1078.910492 2.6406 2.515042 4.9751 4.638332 6.7485s4.68361 2.9175 7.40131 3.3073c2.7176.3897 5.488.0102 8.0085-1.0973 2.5204-1.1074 4.694-2.9001 6.2831-5.1822s2.5328-4.9657 2.7278-7.7577c.1949-2.7921-.3662-5.5851-1.6222-8.07384-1.256-2.48877-3.1584-4.57758-5.4995-6.03821-2.3411-1.460628-5.0308-2.2368778-7.7752-2.24393519zm0 28.35018519c-2.1459.0011-4.2577-.5478-6.14134-1.5963-1.88365-1.0485-3.47876-2.563-4.6388-4.4043h20.94374l-2.8007-2.4254c-.8449.2676-1.7224.4127-2.6069.4312h-2.6598c-.6166 0-.8279 0-1.1098-.7007l-7.13389-15.86388c1.71499-.95481 3.62119-1.49728 5.57309-1.586s3.8979.27866 5.6894 1.07409c1.7914.79543 3.381 1.99787 4.6473 3.51551 1.2663 1.51763 2.1758 3.31038 2.6591 5.24118.4834 1.9309.5277 3.9489.1297 5.8999-.3981 1.951-1.228 3.7835-2.4264 5.3575-1.1983 1.5739-2.7335 2.8478-4.4882 3.7242-1.7547.8765-3.6826 1.3324-5.6365 1.333z"/></g></svg>