<svg viewBox="0 0 183 63" xmlns="http://www.w3.org/2000/svg"><path d="M10.882 54.021c-.79.791-1.792 1.191-2.977 1.191-1.605 0-2.913-.492-3.884-1.464-1.656-1.656-2.004-4.361-2.004-6.338 0-3.373 1.468-6.979 5.586-6.979 1.356 0 2.488.445 3.365 1.322 1.22 1.219 1.92 3.317 1.92 5.759.001 1.356-.195 4.7-2.006 6.509m1.455-13.478c-1.127-1.127-2.584-1.698-4.33-1.698-2.354 0-4.568 1.196-5.643 3.048l-.249.428-.19-3.062H.146l.054.876c.063.968.13 1.97.104 2.954v19.787H2.02l.008-9.609.273.41c1.348 2.015 3.41 3.125 5.81 3.125 4.601 0 6.661-4.543 6.661-9.046 0-3.04-.888-5.667-2.434-7.213zm7.206.548s-.02-.918-.067-1.555l-.013-.279h-2.506l.073 1.087c.062.904.135 1.929.11 2.91-.01.354 0 0 0 13.286h2.433V46.183c.068-3.282 1.68-5.164 4.421-5.164 0 0 .916-.004 1.217.031l.234.027v-2.35s-1.56 0-2.242.062a4.726 4.726 0 0 0-3.66 2.302m13.232 13.362c-1.303 0-2.406-.443-3.279-1.316-1.407-1.406-1.908-3.641-1.908-5.264 0-1.622.501-3.857 1.908-5.264.873-.873 1.977-1.315 3.28-1.315 1.301 0 2.405.442 3.277 1.315 1.407 1.406 1.908 3.642 1.908 5.264 0 2.275-1.084 6.58-5.186 6.58m5.478-13.568c-1.409-1.409-3.303-2.153-5.479-2.153-5.559 0-8.09 4.738-8.09 9.141 0 2.78 1.021 5.275 2.665 6.919 1.395 1.394 3.25 2.222 5.425 2.222 2.176 0 4.07-.744 5.48-2.153 1.66-1.659 2.611-4.207 2.611-6.987 0-2.78-.952-5.328-2.612-6.989zm14.427.464c-.033-.478-.1-1.188-.23-1.925l-.03-.174h-3.399l.018.227c.148 1.82.132 2.946.132 2.957l.001 14.105h3.607v-9.388c0-3.081.795-3.867 1.254-4.321 1.256-1.256 2.938-1.208 2.955-1.207 1.193 0 2.06.292 2.662.894.672.672 1 1.716 1 3.192V56.54h3.605V44.668c0-1.709-.51-3.086-1.515-4.091-1.69-1.692-4.309-1.823-5.07-1.823-1.695 0-3.81.808-4.99 2.595m23.136 11.699c-.675.646-1.593.959-2.807.959-.976 0-1.774-.265-2.31-.766-.49-.458-.738-1.095-.738-1.89 0-2.326 3.034-2.725 4.34-2.788-.019.001 1.981.001 2.888.001-.004 2.136-.454 3.606-1.373 4.484m5.736 3.081a49.007 49.007 0 0 1-.14-3.424v-7.917c0-1.824-.546-3.262-1.622-4.269-1.283-1.201-3.259-1.785-6.042-1.785-4.37 0-7.146 1.936-7.309 5.31l-.02.431h4.625l.08-.405c.237-1.524 1.58-2.233 2.94-2.233 1.256 0 1.891.21 2.373.661.633.593.731 1.649.744 3.065h-2.588c-5.743 0-9.037 2.339-9.037 6.416 0 1.313.49 2.467 1.42 3.336 1.188 1.113 3.08 1.751 5.187 1.751 2.273 0 4.004-.695 5.166-2.071.012.422.03.84.066 1.202l.036.375h4.155zm4.056-16.663v-3.322l5.034-1.812v5.134h3.792v3.356h-3.792v7.819c0 2.215.335 2.819 2.08 2.819.536 0 1.073-.067 1.61-.101v2.953c-.569.269-3.255.503-3.96.503-3.926 0-4.765-2.047-4.765-5.705v-8.289h-3.39v-3.355h3.391m21.156 15.32l.15 1.564.018.189h5.455l-.022-.23a46.456 46.456 0 0 1-.2-3.023V39.257h-5.453v10.31c-.06 2.167-1.215 3.684-2.81 3.684-1.846 0-2.766-1.206-2.812-3.687V39.257h-5.453v11.149c0 .331.024 1.507.343 2.737.637 2.585 4.023 3.883 5.74 3.883 2.163 0 3.818-.736 5.044-2.24m30.798-6.481c0 1.67-.13 3.278-1.085 4.231-.675.686-1.603.885-2.754.822-.429-.024-1.188-.241-1.626-.679a2.358 2.358 0 0 1-.696-1.678c0-1.32.748-1.945 1.633-2.314.788-.327 2.968-.322 3.964-.322l.49.002.074.001v-.063m6.186 6.657c-.119-.938-.184-1.455-.184-1.956v-8.921c.022-1.237-.395-2.3-1.239-3.159-1.326-1.351-3.717-2.157-6.395-2.157-2.468 0-4.469.346-5.95 1.03-1.975.89-2.969 2.413-2.963 4.524h5.213c-.008-1.061.82-2.592 2.422-2.662.543-.048 1.711-.071 2.31.523.651.64.628 1.735.606 2.702a20.23 20.23 0 0 0-.007.48v.075h-2.15c-4.306 0-9.456 1.019-9.536 5.873-.032 1.716.44 3.085 1.404 4.069 1.06 1.08 2.645 1.628 4.71 1.628 2.461 0 4.25-.927 5.468-2.835l.13-.201.01.239c0 .017.065 1.684.191 2.278h6.148zm-23.615-12.45s-.004-.533-.313-3.243h-5.669c.136 2.009.112 4.574.112 4.574V56.54h5.911v-6.943c-.103-3.286 1.2-5.305 4.59-5.339.444 0 .89 0 1.368.034v-5.511c-2.875-.068-5.245.89-5.999 3.731"/><path d="M172.48 6.388h.05c1.87 1.566 3.706 3.521 5.052 5.49 4.093 5.827 5.98 13.001 4.902 20.512-.725 5.002-2.627 9.498-5.659 13.523-2.712 3.604-6.4 6.618-10.24 8.454-5.676 2.93-13.153 3.789-19.639 2.021l.15-.32 5.88-9.987.033.017 1.263 2.358-.84 1.448.15.371c.59 1.044 1.128 2.122 1.75 3.166l4.146.067 5.591-9.481c.605-.943 1.162-2.375 2.46-2.56.47-.084.976 0 1.396.152.37-.573.69-1.179.96-1.802-.69-.455-1.128-1.162-1.077-2.004a2.106 2.106 0 0 1 1.11-1.701c.421-.219.978-.287 1.465-.186.237-.673.404-1.364.54-2.088-.337-.151-.69-.32-.96-.64a2.056 2.056 0 0 1-.42-1.987c.235-.808 1.043-1.398 1.868-1.465.118-.775.051-1.549.017-2.358-.117-.067-.269-.05-.403-.101-.642-.185-1.246-.808-1.398-1.465-.168-.775.05-1.532.657-2.038.17-.151.37-.269.556-.387l.018-.118a14.75 14.75 0 0 0-.573-2.071c-.74.017-1.432-.27-1.869-.91-.389-.555-.438-1.448-.152-2.054.136-.271.337-.489.557-.691a12.908 12.908 0 0 0-1.112-2.054c-.809.168-1.617-.084-2.139-.758-.42-.557-.539-1.415-.252-2.071l.168-.32c-.488-.624-1.028-1.163-1.618-1.752-.623.236-1.465.219-2.004-.185-.74-.505-1.095-1.348-.893-2.224-.606-.472-1.229-.858-1.869-1.229-.69.505-1.684.488-2.409.05-.656-.404-1.06-1.078-1.06-1.819a13.36 13.36 0 0 0-1.92-.724c-.708.674-1.837.91-2.746.472-.556-.253-1.044-.824-1.18-1.397a13.048 13.048 0 0 0-2.004-.236c-.27.691-1.01 1.179-1.735 1.28a2.27 2.27 0 0 1-2.29-1.162c-.017-.051-.033-.101-.085-.118-.639.018-1.245.118-1.852.219-.32.759-1.095 1.448-1.92 1.517-.81.084-1.533-.202-2.056-.826v-.05C144.32.814 150.837-.836 157.76.04c5.473.74 10.425 2.829 14.72 6.348" fill="#007441"/><path d="M159.527 15.588c2.24 3.538 3.453 7.603 3.133 12.111-.153 1.428-.489 2.789-1.045 4.031h-.033l-2.83-5.239-.034-.034-.084.085-2.44 4.167-.035.034c-3.94-1.224-8.876-.901-12.48.851-2.375 1.072-4.58 2.721-6.417 4.865l-10.863-.034c-.186-.392-.252-.851-.37-1.276-1.196-4.899-.91-10.784.606-15.428.905-2.905 1.976-5.255 3.823-7.705 2.997-3.844 7.158-5.545 11.84-5.579 6.973-.068 13.254 3.096 17.23 9.151" fill="#007441"/><path d="M164.63 39.868l-2.207 3.756-.033.033c-.875-.488-1.348-1.414-1.195-2.408.101-.758.774-1.499 1.516-1.701a2.358 2.358 0 0 1 1.903.286l.016.034" fill="#00753b"/></svg>