<?xml version="1.0" encoding="utf-8"?>
<!-- Generator: Adobe Illustrator 19.2.0, SVG Export Plug-In . SVG Version: 6.00 Build 0)  -->
<svg version="1.1" id="Layer_1" xmlns="http://www.w3.org/2000/svg" xmlns:xlink="http://www.w3.org/1999/xlink" x="0px" y="0px"
	 viewBox="0 0 960 231" style="enable-background:new 0 0 960 231;" xml:space="preserve">
<style type="text/css">
	.st0{fill-rule:evenodd;clip-rule:evenodd;fill:#2AD2C9;}
	.st1{fill-rule:evenodd;clip-rule:evenodd;fill:#A1D884;}
	.st2{fill-rule:evenodd;clip-rule:evenodd;fill:#00A499;}
	.st3{fill:#00A499;}
	.st4{fill:#A1D884;}
</style>
<g>
	<path class="st0" d="M81.6,40.3c22.8,0,41.4,18.5,41.4,41.4c0,22.8-18.5,41.4-41.4,41.4c-22.8,0-41.3-18.5-41.3-41.4
		C40.3,58.8,58.8,40.3,81.6,40.3 M81.6,0c15.1,0,29.3,4.1,41.5,11.3V0h40.4v163.1h-40.4v-11.2c-12.2,7.2-26.3,11.3-41.5,11.3
		C36.5,163.2,0,126.7,0,81.6C0,36.6,36.5,0,81.6,0z"/>
	<path class="st1" d="M487.5,84.2V79c-1.3-21.6-19.3-38.7-41.3-38.7c-22.8,0-41.4,18.5-41.4,41.4c0,22.8,18.5,41.4,41.4,41.4
		C468.2,123,486.1,105.8,487.5,84.2 M487.5,0h40.4v163.1h-40.4v-11c-12.1,7.1-26.2,11.2-41.3,11.2c-45.1,0-81.6-36.5-81.6-81.6
		c0-45.1,36.5-81.6,81.6-81.6c15.1,0,29.2,4.1,41.3,11.2V0z"/>
	<path class="st2" d="M266.6,40.3c-22.8,0-41.3,18.5-41.3,41.4c0,22.8,18.5,41.4,41.3,41.4c22.8,0,41.3-18.5,41.3-41.4
		C307.9,58.8,289.4,40.3,266.6,40.3 M225.1,0h-40.4v231l40.4-20.3v-58.8c12.2,7.2,26.3,11.3,41.5,11.3c45.1,0,81.6-36.5,81.6-81.6
		c0-45.1-36.5-81.6-81.6-81.6c-15.1,0-29.3,4.1-41.5,11.3V0z"/>
	<path class="st3" d="M702,56.4c-1.7,0-3.1,0.6-4.1,1.9c-1,1.3-1.6,3-1.6,5.2c0,2.2,0.5,3.9,1.6,5.1c1,1.2,2.4,1.9,4.1,1.9
		c1.7,0,3-0.6,4.1-1.9c1.1-1.3,1.6-3,1.6-5.1c0-2.2-0.5-3.9-1.6-5.1C705,57,703.6,56.4,702,56.4 M700.3,51c1.8,0,3.4,0.5,4.7,1.4
		c1.3,1,2.2,2.3,2.8,3.9v-5h5.5v24.3h-5.5v-5.1c-0.5,1.6-1.5,2.9-2.8,3.9c-1.3,1-2.9,1.5-4.7,1.5c-1.8,0-3.5-0.5-4.9-1.5
		c-1.5-1-2.6-2.4-3.4-4.3c-0.8-1.9-1.2-4.1-1.2-6.6c0-2.5,0.4-4.8,1.2-6.6c0.8-1.9,2-3.3,3.4-4.3C696.8,51.5,698.4,51,700.3,51z
		 M686.8,51.3v24.3h-5.5V51.3H686.8z M680.7,44.3c0-1,0.3-1.8,0.9-2.4c0.6-0.6,1.4-0.9,2.5-0.9c1,0,1.8,0.3,2.5,0.9
		c0.6,0.6,0.9,1.4,0.9,2.4c0,1-0.3,1.8-0.9,2.4c-0.6,0.6-1.4,0.9-2.5,0.9c-1,0-1.8-0.3-2.5-0.9C681,46.1,680.7,45.3,680.7,44.3z
		 M666.9,51c2.8,0,5.1,0.8,7,2.5c1.9,1.7,3,4,3.5,6.9h-5.8c-0.2-1.3-0.8-2.3-1.6-3c-0.8-0.7-1.9-1.1-3.2-1.1c-1.5,0-2.7,0.6-3.6,1.8
		c-1,1.2-1.5,3-1.5,5.3c0,2.3,0.5,4.1,1.5,5.3c1,1.2,2.2,1.8,3.6,1.8c1.3,0,2.3-0.4,3.2-1.1c0.8-0.7,1.4-1.8,1.6-3h5.8
		c-0.5,2.9-1.6,5.2-3.5,6.9c-1.9,1.7-4.2,2.5-7,2.5c-2.1,0-4-0.5-5.6-1.5c-1.6-1-2.9-2.4-3.8-4.3c-0.9-1.9-1.4-4.1-1.4-6.6
		c0-2.5,0.5-4.8,1.4-6.6c0.9-1.9,2.2-3.3,3.8-4.3C663,51.5,664.8,51,666.9,51z M644.2,51c2.5,0,4.5,0.9,6,2.8
		c1.5,1.8,2.2,4.4,2.2,7.8v14.1h-5.5V62.2c0-1.9-0.4-3.4-1.3-4.5c-0.9-1.1-2.1-1.6-3.6-1.6c-1.6,0-2.8,0.6-3.7,1.7
		c-0.9,1.1-1.4,2.8-1.4,4.9v12.9h-5.5V51.3h5.5v4.9c0.6-1.6,1.5-2.9,2.8-3.8C641,51.4,642.5,51,644.2,51z M616.8,45.4l-5.8,3.7V45
		l5.8-3.6l5.8,3.6v4.2L616.8,45.4z M621.9,61.9c0.1-2-0.4-3.5-1.4-4.5c-1-1-2.2-1.5-3.7-1.5c-1.5,0-2.7,0.5-3.7,1.5
		c-1,1-1.6,2.5-1.7,4.5H621.9z M627.4,62.5c0,0.6-0.1,1.3-0.2,2.1h-15.8c0.1,2.2,0.6,3.8,1.6,4.8c1,1,2.2,1.5,3.6,1.5
		c1.3,0,2.3-0.4,3.2-1.1c0.8-0.7,1.4-1.7,1.6-2.8h5.8c-0.3,1.7-0.9,3.2-1.8,4.6c-0.9,1.3-2.1,2.4-3.6,3.2c-1.5,0.8-3.1,1.1-4.9,1.1
		c-2.1,0-4-0.5-5.6-1.5c-1.6-1-2.9-2.4-3.8-4.3c-0.9-1.9-1.4-4.1-1.4-6.6c0-2.5,0.5-4.8,1.4-6.6c0.9-1.9,2.2-3.3,3.8-4.3
		c1.6-1,3.5-1.5,5.6-1.5c2.1,0,4,0.5,5.6,1.5c1.6,1,2.8,2.4,3.7,4.1C627,58.3,627.4,60.3,627.4,62.5z M590.9,56.4
		c-1.7,0-3.1,0.6-4.1,1.9c-1,1.3-1.6,3-1.6,5.2c0,2.2,0.5,3.9,1.6,5.1c1,1.2,2.4,1.9,4.1,1.9c1.7,0,3-0.6,4.1-1.9
		c1.1-1.3,1.6-3,1.6-5.1c0-2.2-0.5-3.9-1.6-5.1C594,57,592.6,56.4,590.9,56.4z M589.2,51c1.8,0,3.4,0.5,4.7,1.4
		c1.3,1,2.2,2.3,2.8,3.9v-5h5.5v24.4c0,2.2-0.4,4.3-1.2,6.1c-0.8,1.8-2,3.2-3.5,4.2c-1.6,1-3.5,1.5-5.7,1.5c-3.1,0-5.6-0.8-7.6-2.5
		c-1.9-1.7-3.1-3.9-3.5-6.8h5.4c0.3,1.2,0.9,2.2,1.8,2.9c0.9,0.7,2,1,3.5,1c1.6,0,2.9-0.5,3.9-1.6c1-1.1,1.5-2.7,1.5-4.8v-5.2
		c-0.5,1.6-1.5,2.9-2.8,3.9c-1.3,1-2.9,1.5-4.7,1.5s-3.5-0.5-4.9-1.5c-1.5-1-2.6-2.4-3.4-4.3c-0.8-1.9-1.2-4.1-1.2-6.6
		c0-2.5,0.4-4.8,1.2-6.6c0.8-1.9,2-3.3,3.4-4.3C585.8,51.5,587.4,51,589.2,51z M564.6,56.4c-1.7,0-3.1,0.6-4.1,1.9
		c-1,1.3-1.6,3-1.6,5.2c0,2.2,0.5,3.9,1.6,5.1c1,1.2,2.4,1.9,4.1,1.9c1.7,0,3-0.6,4.1-1.9c1.1-1.3,1.6-3,1.6-5.1
		c0-2.2-0.5-3.9-1.6-5.1C567.6,57,566.2,56.4,564.6,56.4z M562.9,51c1.8,0,3.4,0.5,4.7,1.4c1.3,1,2.2,2.3,2.8,3.9v-5h5.5v24.3h-5.5
		v-5.1c-0.5,1.6-1.5,2.9-2.8,3.9c-1.3,1-2.9,1.5-4.7,1.5c-1.8,0-3.5-0.5-4.9-1.5c-1.5-1-2.6-2.4-3.4-4.3c-0.8-1.9-1.2-4.1-1.2-6.6
		c0-2.5,0.4-4.8,1.2-6.6c0.8-1.9,2-3.3,3.4-4.3C559.4,51.5,561,51,562.9,51z"/>
	<path class="st3" d="M948.8,56.4c-1.7,0-3.1,0.6-4.1,1.9c-1,1.3-1.6,3-1.6,5.2c0,2.2,0.5,3.9,1.6,5.1c1,1.2,2.4,1.9,4.1,1.9
		c1.7,0,3-0.6,4.1-1.9c1.1-1.3,1.6-3,1.6-5.1c0-2.2-0.5-3.9-1.6-5.1C951.8,57,950.5,56.4,948.8,56.4 M947.1,51
		c1.8,0,3.4,0.5,4.7,1.4c1.3,1,2.2,2.3,2.8,3.9v-5h5.5v24.3h-5.5v-5.1c-0.5,1.6-1.5,2.9-2.8,3.9c-1.3,1-2.9,1.5-4.7,1.5
		c-1.8,0-3.5-0.5-4.9-1.5c-1.5-1-2.6-2.4-3.4-4.3c-0.8-1.9-1.2-4.1-1.2-6.6c0-2.5,0.4-4.8,1.2-6.6c0.8-1.9,2-3.3,3.4-4.3
		C943.6,51.5,945.3,51,947.1,51z M925,51c2.6,0,4.7,0.7,6.3,2.2c1.6,1.5,2.6,3.5,3,6h-5.1c-0.2-1.2-0.7-2.1-1.4-2.8
		c-0.7-0.7-1.7-1.1-2.8-1.1c-0.9,0-1.7,0.2-2.2,0.7c-0.5,0.5-0.8,1.2-0.8,2c0,0.7,0.2,1.2,0.6,1.6c0.4,0.4,0.9,0.7,1.6,1
		c0.6,0.2,1.5,0.5,2.7,0.8c1.6,0.4,3,0.8,4,1.3c1,0.5,1.9,1.2,2.7,2.1c0.7,1,1.1,2.3,1.1,4c0,2.1-0.7,3.8-2.2,5
		c-1.4,1.3-3.4,1.9-5.8,1.9c-2.8,0-5.1-0.7-6.7-2.1c-1.7-1.4-2.7-3.4-3.1-6.1h5.3c0.1,1.2,0.6,2.1,1.4,2.8c0.8,0.7,1.9,1,3.2,1
		c0.9,0,1.6-0.3,2.1-0.8c0.5-0.5,0.7-1.2,0.7-2c0-0.7-0.2-1.3-0.6-1.7c-0.4-0.4-1-0.8-1.6-1c-0.6-0.2-1.5-0.5-2.7-0.8
		c-1.6-0.4-2.9-0.8-3.9-1.3c-1-0.4-1.9-1.1-2.6-2c-0.7-0.9-1.1-2.2-1.1-3.9c0-2.1,0.7-3.8,2.1-5.1C920.5,51.7,922.5,51,925,51z
		 M908.1,61.9c0.1-2-0.4-3.5-1.4-4.5c-1-1-2.2-1.5-3.7-1.5c-1.5,0-2.7,0.5-3.7,1.5c-1,1-1.6,2.5-1.7,4.5H908.1z M913.6,62.5
		c0,0.6-0.1,1.3-0.2,2.1h-15.8c0.1,2.2,0.6,3.8,1.6,4.8c1,1,2.2,1.5,3.6,1.5c1.3,0,2.3-0.4,3.2-1.1c0.8-0.7,1.4-1.7,1.6-2.8h5.8
		c-0.3,1.7-0.9,3.2-1.8,4.6c-0.9,1.3-2.1,2.4-3.6,3.2c-1.5,0.8-3.1,1.1-4.9,1.1c-2.1,0-4-0.5-5.6-1.5c-1.6-1-2.9-2.4-3.8-4.3
		c-0.9-1.9-1.4-4.1-1.4-6.6c0-2.5,0.5-4.8,1.4-6.6c0.9-1.9,2.2-3.3,3.8-4.3c1.6-1,3.5-1.5,5.6-1.5c2.1,0,4,0.5,5.6,1.5
		c1.6,1,2.8,2.4,3.7,4.1C913.2,58.3,913.6,60.3,913.6,62.5z M888.3,51.3v24.3h-5.5v-4.9c-0.6,1.6-1.5,2.9-2.8,3.8
		c-1.3,0.9-2.8,1.4-4.5,1.4c-2.5,0-4.5-0.9-6-2.8c-1.5-1.8-2.2-4.4-2.2-7.7V51.3h5.5v13.4c0,1.9,0.4,3.4,1.3,4.5
		c0.9,1.1,2.1,1.6,3.6,1.6c1.6,0,2.8-0.6,3.8-1.7c0.9-1.1,1.4-2.8,1.4-4.9V51.3H888.3z M851.5,56.4c-1.7,0-3.1,0.6-4.1,1.9
		c-1,1.3-1.6,3-1.6,5.2c0,2.2,0.5,3.9,1.6,5.1c1,1.2,2.4,1.9,4.1,1.9c1.7,0,3-0.6,4.1-1.9c1.1-1.3,1.6-3,1.6-5.1
		c0-2.2-0.5-3.9-1.6-5.1C854.5,57,853.1,56.4,851.5,56.4z M849.8,51c1.8,0,3.4,0.5,4.7,1.4c1.3,1,2.2,2.3,2.8,3.9v-5h5.5v24.4
		c0,2.2-0.4,4.3-1.2,6.1c-0.8,1.8-2,3.2-3.5,4.2c-1.6,1-3.5,1.5-5.7,1.5c-3.1,0-5.6-0.8-7.6-2.5c-1.9-1.7-3.1-3.9-3.5-6.8h5.4
		c0.3,1.2,0.9,2.2,1.8,2.9c0.9,0.7,2,1,3.5,1c1.6,0,2.9-0.5,3.9-1.6c1-1.1,1.5-2.7,1.5-4.8v-5.2c-0.5,1.6-1.5,2.9-2.8,3.9
		c-1.3,1-2.9,1.5-4.7,1.5c-1.8,0-3.5-0.5-4.9-1.5c-1.5-1-2.6-2.4-3.4-4.3c-0.8-1.9-1.2-4.1-1.2-6.6c0-2.5,0.4-4.8,1.2-6.6
		c0.8-1.9,2-3.3,3.4-4.3C846.3,51.5,847.9,51,849.8,51z M836.3,51.3v24.3h-5.5v-4.9c-0.6,1.6-1.5,2.9-2.8,3.8
		c-1.3,0.9-2.8,1.4-4.5,1.4c-2.5,0-4.5-0.9-6-2.8c-1.5-1.8-2.2-4.4-2.2-7.7V51.3h5.5v13.4c0,1.9,0.4,3.4,1.3,4.5
		c0.9,1.1,2.1,1.6,3.6,1.6c1.6,0,2.8-0.6,3.8-1.7c0.9-1.1,1.4-2.8,1.4-4.9V51.3H836.3z M811.7,70.3v5.3h-2.9c-2.4,0-4.3-0.7-5.6-2
		c-1.3-1.3-1.9-3.5-1.9-6.6V56.5h-3v-5.2h3v-6h5.5v6h4.8v5.2h-4.8v10.6c0,1.2,0.2,2,0.6,2.5c0.4,0.5,1.1,0.7,2.1,0.7H811.7z
		 M789.5,55.9c0.8-1.5,1.9-2.8,3.2-3.7c1.3-0.9,2.8-1.3,4.4-1.3v6.6h-1.6c-4,0-6,2.1-6,6.3v11.7H784V51.3h5.5V55.9z M769,56.3
		c-1.5,0-2.8,0.6-3.9,1.8c-1.1,1.2-1.6,3-1.6,5.3c0,2.3,0.5,4.1,1.6,5.3c1.1,1.2,2.4,1.8,3.9,1.8c1.5,0,2.8-0.6,3.9-1.8
		c1.1-1.2,1.6-3,1.6-5.3c0-2.3-0.5-4.1-1.6-5.3C771.8,57,770.5,56.3,769,56.3z M769,51c2.1,0,4,0.5,5.7,1.5c1.7,1,3,2.4,4,4.3
		c1,1.9,1.4,4.1,1.4,6.6c0,2.5-0.5,4.7-1.4,6.6c-1,1.9-2.3,3.3-4,4.3c-1.7,1-3.6,1.5-5.7,1.5c-2.1,0-4-0.5-5.7-1.5
		c-1.7-1-3-2.4-4-4.3c-1-1.9-1.4-4.1-1.4-6.6c0-2.5,0.5-4.8,1.4-6.6c1-1.9,2.3-3.3,4-4.3C765,51.5,766.9,51,769,51z M743.8,56.4
		c-1.7,0-3,0.6-4.1,1.9c-1.1,1.3-1.6,3-1.6,5.1c0,2.1,0.5,3.8,1.6,5.1c1.1,1.3,2.5,1.9,4.1,1.9c1.7,0,3.1-0.6,4.1-1.9
		c1-1.2,1.6-3,1.6-5.1c0-2.2-0.5-3.9-1.6-5.2C746.9,57,745.5,56.4,743.8,56.4z M745.5,51c1.8,0,3.5,0.5,4.9,1.5
		c1.5,1,2.6,2.4,3.4,4.3c0.8,1.9,1.2,4.1,1.2,6.6c0,2.5-0.4,4.8-1.2,6.6c-0.8,1.9-2,3.3-3.4,4.3c-1.5,1-3.1,1.5-4.9,1.5
		c-1.8,0-3.4-0.5-4.7-1.5c-1.3-1-2.2-2.3-2.8-3.9v16.7h-5.5V51.3h5.5v5c0.5-1.6,1.5-2.9,2.8-3.9C742.2,51.5,743.7,51,745.5,51z"/>
	<path class="st4" d="M945.6,122.4c0.1-3.5-0.7-6.2-2.5-8c-1.8-1.8-4-2.7-6.7-2.7c-2.7,0-5,0.9-6.8,2.7c-1.8,1.8-2.9,4.5-3,8H945.6z
		 M955.7,123.5c0,1.1-0.1,2.3-0.4,3.7h-28.7c0.1,3.8,1.1,6.6,2.8,8.4c1.7,1.8,3.9,2.7,6.5,2.7c2.3,0,4.2-0.6,5.8-1.9
		c1.5-1.2,2.5-2.9,2.9-5h10.5c-0.5,3-1.6,5.7-3.3,8c-1.7,2.4-3.9,4.2-6.5,5.6c-2.7,1.3-5.6,2-8.9,2c-3.8,0-7.2-0.9-10.2-2.7
		c-3-1.8-5.3-4.3-6.9-7.6c-1.7-3.3-2.5-7.2-2.5-11.7c0-4.5,0.8-8.4,2.5-11.7c1.7-3.3,4-5.9,6.9-7.6c3-1.8,6.4-2.6,10.2-2.6
		c3.9,0,7.3,0.9,10.2,2.6c2.9,1.8,5.1,4.2,6.7,7.2C954.9,116.1,955.7,119.5,955.7,123.5z M911.6,137.2v9.4h-5.2
		c-4.4,0-7.8-1.2-10.1-3.5c-2.3-2.3-3.5-6.2-3.5-11.6v-18.6h-5.5v-9.2h5.5V93.1h10v10.6h8.8v9.2h-8.8v18.7c0,2.1,0.4,3.5,1.1,4.3
		c0.8,0.8,2,1.2,3.8,1.2H911.6z M867.1,103c4.5,0,8.1,1.6,10.8,4.9c2.7,3.2,4,7.8,4,13.7v24.9H872v-23.7c0-3.4-0.8-6.1-2.4-7.9
		c-1.6-1.9-3.8-2.8-6.6-2.8c-2.8,0-5.1,1-6.8,3c-1.7,2-2.5,4.9-2.5,8.7v22.8h-10v-42.9h10v8.6c1-2.9,2.7-5.1,5.1-6.8
		C861.2,103.9,863.9,103,867.1,103z M826.6,122.4c0.1-3.5-0.7-6.2-2.5-8c-1.8-1.8-4-2.7-6.7-2.7c-2.7,0-5,0.9-6.8,2.7
		c-1.8,1.8-2.9,4.5-3,8H826.6z M836.6,123.5c0,1.1-0.1,2.3-0.4,3.7h-28.7c0.1,3.8,1.1,6.6,2.8,8.4c1.7,1.8,3.9,2.7,6.5,2.7
		c2.3,0,4.2-0.6,5.8-1.9c1.5-1.2,2.5-2.9,2.9-5h10.5c-0.5,3-1.6,5.7-3.3,8c-1.7,2.4-3.9,4.2-6.5,5.6c-2.7,1.3-5.6,2-8.9,2
		c-3.8,0-7.2-0.9-10.2-2.7c-3-1.8-5.3-4.3-6.9-7.6c-1.7-3.3-2.5-7.2-2.5-11.7c0-4.5,0.8-8.4,2.5-11.7c1.7-3.3,4-5.9,6.9-7.6
		c3-1.8,6.4-2.6,10.2-2.6c3.9,0,7.3,0.9,10.2,2.6c2.9,1.8,5.1,4.2,6.7,7.2C835.8,116.1,836.6,119.5,836.6,123.5z M790.7,103.7v42.9
		h-10v-42.9H790.7z M779.6,91.4c0-1.8,0.6-3.2,1.7-4.3c1.1-1.1,2.6-1.7,4.5-1.7c1.8,0,3.3,0.6,4.5,1.7c1.1,1.1,1.7,2.5,1.7,4.3
		c0,1.7-0.6,3.1-1.7,4.2c-1.1,1.1-2.6,1.7-4.5,1.7c-1.8,0-3.3-0.6-4.5-1.7C780.1,94.5,779.6,93.1,779.6,91.4z M753.2,112.6
		c-3,0-5.5,1.1-7.5,3.4c-2,2.2-2.9,5.3-2.9,9.1c0,3.8,1,6.8,2.9,9c2,2.2,4.4,3.4,7.5,3.4c3.1,0,5.6-1.1,7.5-3.3
		c1.9-2.2,2.8-5.2,2.8-9.1c0-3.9-0.9-6.9-2.8-9.1C758.8,113.7,756.3,112.6,753.2,112.6z M756.3,103.1c3.3,0,6.3,0.9,8.9,2.6
		c2.6,1.8,4.7,4.3,6.2,7.6c1.5,3.3,2.2,7.2,2.2,11.7c0,4.5-0.7,8.4-2.2,11.7c-1.5,3.3-3.6,5.9-6.2,7.6c-2.6,1.8-5.6,2.6-8.9,2.6
		c-3.3,0-6.1-0.9-8.5-2.6c-2.3-1.7-4-4-5-6.9v9h-10V89.3h10v23.3c1-2.9,2.7-5.2,5-6.9C750.1,104,753,103.1,756.3,103.1z M708.6,103
		c4.8,0,8.5,1.6,11.3,4.8c2.8,3.2,4.1,7.8,4.1,13.7v24.9h-9.9v-23.7c0-3.3-0.8-5.8-2.3-7.6c-1.5-1.8-3.6-2.7-6.3-2.7
		c-2.8,0-5,1-6.7,2.9c-1.7,1.9-2.5,4.7-2.5,8.4v22.8h-9.9v-23.7c0-3.3-0.8-5.8-2.3-7.6c-1.5-1.8-3.6-2.7-6.3-2.7c-2.8,0-5,1-6.7,2.9
		c-1.7,1.9-2.5,4.7-2.5,8.4v22.8h-10v-42.9h10v8.1c1-2.8,2.7-4.9,4.9-6.5c2.2-1.5,4.8-2.3,7.8-2.3c3.2,0,5.9,0.8,8.2,2.5
		c2.3,1.7,4.1,4,5.3,7.1c1.2-2.9,3.1-5.3,5.5-7C702.9,103.9,705.6,103,708.6,103z M629.4,112.6c-3.1,0-5.6,1.1-7.5,3.3
		c-1.9,2.2-2.8,5.3-2.8,9.1c0,3.9,0.9,6.9,2.8,9.1c1.9,2.2,4.4,3.3,7.5,3.3c3,0,5.5-1.1,7.5-3.4c2-2.2,2.9-5.2,2.9-9
		c0-3.8-1-6.9-2.9-9.1C634.9,113.8,632.4,112.6,629.4,112.6z M626.2,103.1c3.3,0,6.1,0.8,8.5,2.6c2.4,1.7,4,4,5,6.9v-8.9h9.9v42.9
		h-9.9v-9c-1,2.9-2.7,5.2-5,6.9c-2.4,1.7-5.2,2.6-8.5,2.6c-3.3,0-6.3-0.9-8.9-2.6c-2.6-1.8-4.7-4.3-6.2-7.6
		c-1.5-3.3-2.2-7.2-2.2-11.7c0-4.5,0.7-8.4,2.2-11.7c1.5-3.3,3.6-5.9,6.2-7.6C620,104,622.9,103.1,626.2,103.1z"/>
	<path class="st3" d="M584.9,115.5c-1.3,0-2.4,0.5-3.3,1.5c-0.9,1-1.3,2.5-1.3,4.4c0,1.9,0.4,3.4,1.3,4.4c0.9,1,2,1.5,3.3,1.5
		c1.3,0,2.4-0.5,3.3-1.5c0.9-1,1.4-2.5,1.4-4.4c0-1.9-0.5-3.4-1.4-4.4C587.3,116,586.2,115.5,584.9,115.5 M584.9,111
		c1.8,0,3.4,0.4,4.8,1.2c1.4,0.8,2.5,2,3.3,3.6c0.8,1.6,1.2,3.4,1.2,5.5c0,2.1-0.4,4-1.2,5.5c-0.8,1.6-1.9,2.8-3.3,3.6
		c-1.4,0.8-3,1.3-4.8,1.3c-1.8,0-3.4-0.4-4.8-1.3c-1.4-0.8-2.5-2-3.3-3.6c-0.8-1.6-1.2-3.4-1.2-5.5c0-2.1,0.4-4,1.2-5.5
		c0.8-1.6,1.9-2.8,3.3-3.6C581.5,111.4,583.1,111,584.9,111z M562.8,115.5c-1.4,0-2.6,0.5-3.5,1.6c-0.9,1-1.3,2.5-1.3,4.3
		c0,1.8,0.4,3.3,1.3,4.3c0.9,1,2,1.6,3.5,1.6c1.4,0,2.6-0.5,3.5-1.6c0.9-1.1,1.4-2.5,1.4-4.3c0-1.8-0.5-3.2-1.4-4.3
		C565.4,116.1,564.2,115.5,562.8,115.5z M561.4,111c1.5,0,2.8,0.4,3.9,1.2c1.1,0.8,1.9,1.9,2.4,3.3v-11h4.6v27.1h-4.6v-4.2
		c-0.5,1.4-1.3,2.5-2.4,3.3c-1.1,0.8-2.4,1.2-3.9,1.2c-1.5,0-2.9-0.4-4.1-1.2c-1.2-0.8-2.2-2-2.9-3.6c-0.7-1.6-1-3.4-1-5.5
		c0-2.1,0.3-4,1-5.5c0.7-1.6,1.7-2.8,2.9-3.6C558.5,111.4,559.8,111,561.4,111z"/>
</g>
</svg>
