<?xml version="1.0" encoding="utf-8"?>
<svg version="1.1" xmlns="http://www.w3.org/2000/svg" xmlns:xlink="http://www.w3.org/1999/xlink" x="0px" y="0px"
	 viewBox="0 0 606.6 367" style="enable-background:new 0 0 606.6 367;" xml:space="preserve">
<style type="text/css">
	.st0{fill:#2c2a29;}
</style>
<g id="Layer_1">
</g>
<g id="Layer_2">
	<g>
		<g>
			<g>
				<path class="st0" d="M155.8,85.9c-1.4-0.4-3.1-0.6-4.7-0.6c-8.1,0-12.3,5.6-12.3,11.8v24h-16.3V71.3h15.9v9.5h0.2
					c2.4-6.3,8-9.7,15-9.7c0.7,0,1.5,0,2.3,0.1L155.8,85.9z"/>
				<path class="st0" d="M18.1,98.4c0.4,8.2,5.5,10.8,13.1,10.8c5.5,0,11.1-1.9,11.1-7.1c0-6.1-9.9-7.3-20-10.1
					c-9.9-2.8-20.4-7.3-20.4-20.1c0-15.2,15.3-21.1,28.3-21.1c15,0,27.8,6.7,27.9,22.4H40.1c0.3-6.3-5.3-8.4-11.2-8.4
					c-3.9,0-8.8,1.4-8.8,5.9c0,5.1,10,6.3,20.2,9.2c10,2.8,20.2,7.5,20.2,20.1c0,17.6-15,23.3-30.3,23.3c-16,0-30.1-7-30.2-24.8
					H18.1z"/>
				<path class="st0" d="M114.8,121.1H98.9v-6.8h-0.2c-3.1,5.1-9.4,8.1-15.2,8.3c-14.3,0.4-18.5-8.3-18.5-21.3v-30h16.3v28.9
					c0,6.6,2.9,8.9,8.1,8.9c3.6,0,8.9-2.3,8.9-11.2V71.3h16.3V121.1z"/>
				<path class="st0" d="M193.4,121.1h-18.8L158,71.3h17l9.1,33h0.2l9.2-33h16.6L193.4,121.1z"/>
				<path class="st0" d="M213.3,71.3h16.3v49.9h-16.3V71.3z M229.6,65h-16.3V52.5h16.3V65z"/>
				<path class="st0" d="M268.2,121.1h-18.8l-16.6-49.9h17l9.1,33h0.2l9.2-33h16.6L268.2,121.1z"/>
				<path class="st0" d="M299.1,106.8c0-3.9,3.1-5.5,6.7-6.3c3.6-1,7.8-1.3,10.1-2.7c0.4,10.3-2.4,14.7-10,14.7
					C302.3,112.5,299.1,110.9,299.1,106.8z M300.1,86.6c0.4-4.3,3.7-6.2,8.2-6.2c3.7,0,7.9,1.3,7.9,5c0,3.1-1.5,4.2-4.3,4.8
					c-11.3,2.3-29,1.1-29,17.3c0,10.3,7.5,15.1,17,15.1c6,0,12.2-1.7,16.4-6.1c0.2,1.6,0.4,3.2,1,4.7h16.4
					c-1.9-3.9-1.9-8.6-1.9-12.8V86.5c0-14.1-11.4-16.7-23.3-16.7c-5.7,0-11.4,1-15.9,3.5c-4.4,2.6-7.5,6.8-7.8,13.4H300.1z"/>
				<path class="st0" d="M339.1,52.5h16.3v12.1v34.8v21.8h-16.3V92.5V71.5V52.5z"/>
			</g>
		</g>
		<g>
			<path class="st0" d="M410.8,323.1c0.3,0,0.5-0.2,0.8,0.1c0.3,0.5,0.4,1,0.7,1.6c0.1,0.3-1.1,2.9-1.5,3.1c-0.2,0-0.5,0-0.7,0.1
				c-0.9-0.5-0.7-3.3-0.1-4.2C410.2,323.5,410.6,323.4,410.8,323.1L410.8,323.1z"/>
			<path class="st0" d="M420.3,330.4c1,0,1.5,0.2,2.1,0.4c0.1,0.6,0.3,1,0,1.5c-1.2,1.1-2.4,0.8-3.5-0.3c0-0.2,0-0.5,0-0.7
				c0.2-0.2,0.3-0.4,0.5-0.6C419.7,330.6,420,330.5,420.3,330.4L420.3,330.4z"/>
			<path class="st0" d="M414.7,335.9c0.4-0.3,0.7,0.1,1,0.2c0.6,0.9,1.3,1.8,0.9,3c-1.3,1.7-3.6-1.1-3-2.1
				C413.7,336.5,414.3,336.2,414.7,335.9L414.7,335.9z"/>
			<path class="st0" d="M406.2,347c1,1.1,0,1.9-0.9,2.7c-0.9,0.1-1.2-0.1-1.6-0.6c0-0.9,0.1-1.7,0.7-2.2
				C404.8,346.6,405.7,346.6,406.2,347L406.2,347z"/>
			<path class="st0" d="M397.2,350.6c0.5,0.3,0.8,0.4,0.8,1.2c-0.2,0.3-0.2,0.7-0.4,0.9c-0.4,0.4-2.2,1-2.7,0.7
				c-0.5-0.2-1.2-1.4-0.9-1.9C394.9,350.3,395.9,351.2,397.2,350.6L397.2,350.6z"/>
			<g>
				<path class="st0" d="M573.4,35.4c0.3-0.1,1.9,0.1,1.9,0.1c1.3,0.6,2.5,0.7,3.7,1.6c0.3,0,0.6-0.1,0.9,0c0.5-0.2,0.8-1.4,0.6-1.9
					c-0.1-0.1-0.3-0.2-0.4-0.3c0-0.2,0.1-0.4,0.1-0.5c-0.2-0.4-1.1-0.8-1.5-1c-0.9-0.4-2.3,0.2-3.3-0.4c-0.1,0-0.9,0.1-1-0.1
					c-0.4-0.4-1-0.6-1.6-0.2c-0.2,0.2-0.8,0.5-0.9,0.5c-0.3,0.4-0.4,0.6-0.3,0.9C571.4,34.8,572.4,35.6,573.4,35.4z"/>
				<path class="st0" d="M359.3,363.6c0.5,0.1,1.4,0.2,1.7,0.8c0.6,0.7,0.2,2.6-1.1,2.6c-0.8,0.5-2.1-0.1-2.3-0.7
					c-0.2-0.3-0.4-1-0.2-1.4c0.3-0.6,1-0.8,1.4-1.2C359,363.7,359.1,363.6,359.3,363.6L359.3,363.6z"/>
			</g>
			<path class="st0" d="M373.7,351.7c-0.2-0.8-0.3-1.1-0.4-2.4c0-0.4,0.1-0.6,0.5-1c0.4-0.4,0.8,0,1.1-0.3c1.4,0.3,2,1.4,3.5,0.2
				c0.2,0,0.3,0,0.5,0c1.9-0.6,2.3,0.5,3.6,0.9c0.5,0.2,1.5,0.3,1.9-0.1c0.4-0.4,0.7-1,1.1-1.3c0.5-0.4,1.2-0.2,1.7-0.7
				c1-1,0-2.7,0.8-3.7c0.4-0.6,0.9-1.8,1.3-2.1c0.2,0,0.3,0,0.4-0.1c0.6-0.3,1.1-1,1.6-1.4c0.1-0.1,2.1-0.9,2.3-0.9
				c0.2,0,0.3,0,0.5,0.1c0.8-0.2,2.8-1.2,3.7-0.8c1.3,0.1,1.4,1.6,2,2.4c0.2,0.4,0.8,0.5,1.1,0.9c0.5,0,1,0.1,1.4,0.1
				c0.4-0.1,0.9-0.1,1.3-0.3c0.6,0.2,1.3,0.6,2.4,0.3c0.1-0.3,0.1-0.7,0.2-1c-0.1-0.2-0.4-0.7-0.3-1.1c0.5-2.6,1.4-5.3,3.2-6.8
				c0.5-0.9,0.8-2.8,0.2-3c-1.9-0.4-1.9,1.3-3,2.2c-0.3,0.2-0.7,0.2-1,0.4c-0.3,0.2-0.7,0.7-1.1,0.9c-0.1,0-0.3,0-0.4-0.1
				c-0.6,0.2-1.4,0.6-2,0.3c-0.5,0-0.7-0.4-1-0.7c-0.9-0.9-0.9-1.8-1.2-3.4c0-0.3,0-0.5,0.1-0.8c-0.2-0.4-0.4-0.9-0.6-1.3
				c0-0.2,0-0.4,0-0.6c0-0.8,2-1.8,2.5-2.4c0.1-0.1,0.7-0.5,0.7-0.6c1.5-0.6,2.8-1.9,3.8-3c0.4-0.4,0.9-1.9,1-2.5c0-0.4,0-0.7,0-1.1
				c0.1-0.6,0.5-1.2,0.6-1.8c0-0.5,0-1,0-1.4c0.1-0.1,0.2-0.3,0.3-0.4c0-0.5-0.2-1.2-0.3-1.8c0.1-0.2,0.1-0.4,0.2-0.6
				c-0.1-0.5-0.2-0.9-0.3-1.4c0.6-2.9,1.1-4.5,2.7-6.6c0.3-0.5,1.2-1.1,1.7-1.7c0.6-0.8,0.8-1.4,1.7-1.8c0.2-0.6,0.9-1.9,0.6-2.8
				c-0.2-0.5-0.6-0.9-0.8-1.4c-0.2-0.5-0.2-0.8-0.6-0.9c0-1.1,0-1.8-0.2-2.8c-0.1-0.4,0.2-0.9,0.1-1.3c-0.1-0.3-0.3-1-0.3-1.3
				c0.1-0.8,0.8-1,1-1.5c0.4-1.2,0.1-2.6,0.5-3.7c-0.1-0.2-0.3-0.3-0.2-0.6c0.2-0.7,2.3-3.4,2.6-3.7c-0.2-0.1,0.4-1.1,0.4-1.3
				c-0.1-0.9,0.8-3.3,1.3-4.2c0.3-0.6,0.7-1.7,1.3-2c0.6-0.4,0.4-2.2,1.1-2.8c-0.1-0.2-0.1-0.6,0-0.8c0.1-0.1,0.8-1,1-1.7
				c0.3-0.9,1-1.8,1.5-2.7c0.1,0,0.8-0.4,1-0.5c-0.2-1,0.5-1.3,1-2.1c0.1-0.3,0.2-0.7,0.3-1c0.3-0.4,0.7-0.8,1-1.2
				c0.7-1.1,0.7-2.4,1.5-3.4c0.3-0.4,0.1-1.3,0.3-1.8c0.4-0.9,0.7-0.4,1.1-1.3c0.3-0.7,0.3-1.5,0.7-2.3c0.5-1,1.9-1.5,2.4-2.6
				c0.2-0.5,0-1.1,0.1-1.6c0-0.3,0.4-0.6,0.4-0.8c0.1-0.2,0-0.7,0-1c0.2-0.2,0.4-0.5,0.5-0.8c0.1-0.2,0.1-0.7,0.2-1
				c0.4-0.7,1.1-1.4,1.5-2.2c0.7-1.6,0.1-1.6,0.6-3.3c0.4-1.4,1.7-3.2,3-3.7c0.4-0.2,0.6-1,0.4-1.3c-0.1-1.4-0.4-2.1-0.1-4.1
				c0.3-1.6,0.8-3.3,1.6-4.4c0.3-0.4,1-0.8,1.1-1.3c0-0.4,0-0.8,0-1.1c0.2-0.7,0.4-1.7,0.4-2.5c0-0.4,0.4-2.6,0.4-3
				c0.3-0.5-0.9-0.9-0.6-1.4c0.4-1-0.8-3.5-0.9-4c-0.6-4.2,0.3-9.9-0.3-10.8c-0.3-0.4-0.2-0.8-0.4-1.3c-0.3-0.4-0.5-0.8-0.8-1.3
				c-0.6-1.5-1.1-3-1.3-4.7c-0.2-1.4,0.6-2.6,0.4-3.9c-0.2-0.8,0.3-3.2,0-3.8c0-0.2-0.1-0.5-0.1-0.7c-0.2-0.2-0.3-0.3-0.5-0.5
				c-0.4-1.1,0.3-2.1-0.1-3.2c-0.1-0.4,0.2-0.4,0.3-0.6c0.1-0.5-0.1-3.2-0.1-3.7c0.2-0.7,1-2.1,0.9-2.3c-0.1-0.3-0.2-0.7-0.3-1.1
				c-0.3-1.4-0.1-2.4-0.4-3.9c-0.1-0.3-0.1-0.7-0.2-1c0.2-1,0.2-1.8,0.5-2.7c0.3-0.8,0.3-1.4,0.4-2.3c0.1-0.4-0.3-0.7-0.3-1
				c0-0.2,0-0.4,0.1-0.6c-0.2-0.8,0.9-1.5,0.5-2.1c-0.1-0.2,0.2-2,0.2-2.5c0-0.5-0.1-1.1,0.1-1.5c0.1-0.4,0.4-3.8,0.3-4.2
				c-0.3-0.8-0.1-2-0.4-2.9c0-0.5-0.1-1-0.1-1.5c-0.1-0.1-0.1-0.2-0.2-0.3c-0.3-0.5-0.4-1-0.6-1.6c-0.2-0.6-0.6-1.4-0.8-2.1
				c-0.5-2.2-0.7-3.9-1.5-5.9c-0.4-0.9-0.8-2-1.2-3c-0.4-0.9-0.4-1.8-0.9-2.6c-0.3-0.5-0.7-0.8-1-1.3c-0.1-0.3-0.2-0.8-0.3-1
				c-0.1-0.2-0.5-0.6-0.7-0.9c-0.4-0.8-0.5-1.8-0.8-2.6c-0.2-0.6-0.6-1.2-0.8-1.8c-0.3-0.9-0.2-1.4-0.5-2.5
				c-0.1-0.3-0.5-0.5-0.6-0.8c0-0.2,0-0.3-0.1-0.5c-0.2-0.5-0.6-1.1-0.8-1.6c-0.1-0.4-0.1-0.7-0.2-1.1c-0.2-0.2-0.3-0.3-0.5-0.5
				c-0.3-0.5-0.2-1.2-0.4-1.8c-0.2-0.5-0.7-0.9-0.9-1.5c0-0.4-0.3-0.9-0.4-1.3c-0.2-1.7-1.2-2.5-1.7-4c-0.8-0.9-1-2.3-1.6-3.5
				c-0.2-0.7-0.3-1.4-0.5-2.1c-0.2-0.1-0.3-0.3-0.4-0.4c-0.1-0.4-0.2-0.8-0.3-1.1c-0.2-0.2-0.2-0.2-0.4-0.4
				c-0.4-0.2-0.2-0.7-0.5-0.9c-0.7-0.4,0.1-0.8-0.3-1.5c-0.5-0.7-1.5-2.5-1.2-3.8c0.1-0.4-0.9-0.9-0.7-1.3c0-0.3-0.1-0.7,0-1
				c0.3-0.5-0.5-0.9-0.2-1.4c0.5-1.1,0.8-2.4,1.6-3.3c0.2-0.1,0.6-0.1,0.8-0.3c0.1-0.1,0.2-0.7,0.4-1c0.4-0.3,1.6-0.4,1.9-0.7
				c0.2-0.2,2.2-0.2,3.6-0.1c0.5,0,0.5,0.2,1.1,0.4c0.2,0.1,0.3,0.2,0.5,0.3c0.1,0,0,0.2,0.2,0.2c0.6,0.3,2,1.9,2.3,2.5
				c0.7,1.1,1.3,2.5,2,3.6c0.1,0.6,0.7,1.2,0.8,1.8c0.2,0.6,0.7,1,0.9,1.6c0.1,0.3,0,0.8,0.1,1.1c0.2,0.5,0.6,1,0.8,1.6
				c0.3,0.9,1.3,2.1,1.5,3.1c0.2,0.8,0.3,1.3,0.6,2.1c0.2,0.7,0.9,1.4,1.3,2c0.8,1.2,1.5,2.5,1.9,3.9c0.2,0.4-0.2,0.7,0,1.1
				c0.3,1.1,1.5,2.7,2.1,3.8c0.4,0.6,1.1,0.9,1.5,1.6c2,3.8,1.2,4.2,1.5,4.5c0.3,0.3,0.3,0.9,0.6,1.7c0.4,0.8,1.7,1.5,2.1,2.2
				c0.2,0.4,0,0.3,0.2,0.8c0.2,0.3,0.2,0.5,0.5,0.6c0.2,0.4,0.5,0.8,0.7,1.3c0.5,0.8,1,2.4,1.7,3.1c0.6,0.6-0.1,0.9,0.6,1.5
				c0.5,0.4,0.2,1.3,0.7,1.6c0.5,0.3,0.9,0.9,1.4,1.3c0.5,0.3,0.7,0.5,0.8,1.1c0.2,0.7,0.5,0.5,1,1c0.3,0.2,0.7,0.3,0.9,0.4
				c0.3,0.1,0.5,0.2,0.8,0.3c0.4,0.1,0.5,0.2,0.8,0.1c2.4-0.7,3-0.1,4.5-1.8c0.4-0.4,1.3-2.4,1.3-3c0-0.3,0.1-0.8,0.1-1.1
				c0-0.3,0.5-0.6,0.4-0.9c-0.1-0.4,0-0.3-0.3-0.6c-0.3-0.3-0.3-1.9-0.3-2.4c-0.1-3-0.8-4.2-0.3-6.4c0.2-0.8,0-1-0.3-1.5
				c-0.2-0.4-0.5-3.1-0.7-3.6c-0.2-0.3-0.2-0.7-0.5-1c-0.1-0.3,0.3-0.9,0.3-1.1c-0.4-1.5-0.1-2.5-0.4-4.1c-0.5-2.8-1.2-5.6-1-8.7
				c0-0.3,0.2-0.6,0.3-0.9c-0.2-0.7-0.6-1.4-0.8-2.2c-0.5-2.3-0.9-5.4-0.5-8c0.1-0.8-0.3-2.8-0.7-3.2c-0.4-0.4-0.2-2-0.1-2.6
				c0.1-0.3,0.1-0.5,0.2-0.8c0.2-0.7,0-2.1-0.1-2.7c-0.2-0.8-0.6-1.9-0.9-2.7c-0.5-1-0.2-2.1-0.6-3.3c-0.4-1.2,0.4-2.2,0-3.5
				c-0.2-0.5-0.3-1-0.5-1.5c-0.4-1.2,0-2.3-0.3-3.5c0-0.6-0.2-1.2-0.1-1.8c-0.1-0.5-0.5-1.8-0.3-2.5c0.3-1-0.6-2.7-0.2-4.3
				c0.3-1.3,0.7-2.3,1.1-3.3c0.2-0.6,1.7-1,2-1.6c0.2-0.4,0.3-0.8,0.6-1.1c0.8-0.7,3.9-1.3,5-1.2c1.3,0.2,2.5,0.6,3.1,1
				c0.4,0.3,1,0.4,1.2,0.8c0.1,0.2,0.1,0.4,0.3,0.6c0.5,0.3,1.3,0.6,1.6,1.1c0.2,0.4,0.1,0.8,0.3,1.1c0.3,0.5,0.4,1.3,0.6,1.8
				c0.4,1.3,0.8,2.5,1.1,3.8c0.2,0.5,0.4,3,0.2,3.8c-0.1,0.6-0.1,2.2,0,2.9c0.2,1.3,1.1,2.9,1.4,4.3c0.4,1.5-0.4,2.5,0,4.1
				c0.5,2,0.5,4.5,1.1,6.7c0.1,0.3,0.4,0.5,0.4,0.8c0.1,0.6-0.2,1.2-0.1,1.8c0.2,0.6,0.1,1.2,0.3,1.7c0.1,0.7,0.1,1.4,0.2,2.1
				c0.1,0.4,0.4,0.7,0.5,1.2c0.2,0.9-0.4,1.1-0.2,2c0.2,0.7,0.5,1.3,0.7,2c0,0.4,0,0.9,0.1,1.3c0.1,0.2,0.4,0.5,0.4,0.8
				c0.1,0.5-0.2,1.2-0.1,1.7c0.8,2.9,1.5,5.3,1,8.2c-0.1,0.7,0.6,1.5,0.3,2.2c0.1,0.3,0.2,0.2,0.3,0.4c0,0.2,0,0.3-0.1,0.5
				c0.2,0.8,0.2,1.7,0.4,2.5c0.1,0.1,0.2,0.2,0.3,0.4c0.1,0.4-0.1,1,0.1,1.5c0.4,1,0.3,2.2,0.6,3.4c0,0.4,0.3,3.1,0.3,3.5
				c0.3,1,0.7,4.9,1,6.1c0,0.4,0.4,0.8,0.4,1.2c0.3,1.1,0.4,2.2,1,3.1c0.2,0.5,1.2,0.5,1.1,1c0.7,0.6,0.4,1.2,2.2,1.3
				c0.2-0.1,1.3,0.5,1.5,0.4c0.6,0.1,1-0.2,1.6-0.4c2.6-0.7,2.4-1.3,3.3-2.7c0.5-0.9,1.3-3.1,1.4-4.2c0-0.3,0.6-2.5,0.6-2.8
				c-0.1-2.9,1.8-6.2,1.6-8.3c-0.2-1.8,0.9-4.5,1.1-6.1c0-0.6-0.1-1.3,0-1.9c0.1-0.7,1.1-3.1,1.5-5c0-0.3-0.1-0.6-0.1-0.9
				c0-1.1-0.1-2.8,0.1-3.6c0.3-1.2,1-2.2,1.3-3.3c0.3-1.1,0.1-2.4,0.3-3.4c0.2-0.8,0.7-1.8,0.8-2.6c0-0.4,0-0.7-0.1-1.1
				c0.3-1.5,0.1-2.9,0.5-4.4c0.2-0.5-0.3-0.9-0.1-1.4c0.2-0.3,0.3-0.7,0.5-1c0-0.3,0.1-0.7,0.1-1c0.2-0.5,0.6-1,0.8-1.5
				c0.3-1.4,1-3.7,0.9-5c0-0.2-0.2-0.4-0.2-0.6c0.1-0.7,0-1.7,0.1-2.3c-0.1-0.3,0.2-1.2,0.3-1.5c0.2-0.6,0-1.2,0.3-1.8
				c0.6-1.5,0.9-2.9,1.5-4.4c0.5-1.1-0.4-2.2,0.3-3.9c0.4-0.8,0.7-4.1,0.9-5c0.2-1.1,0.9-3,0.8-4c-0.1-0.2,0.5-1.4,0.5-1.8
				c0.7-2.2,3.5-4.8,7.7-5.5c0.6-0.1,1.2-0.2,1.7,0.1c0.4,0.2,1,0.4,1.3,0.6c0.4,0.5,0.7-0.1,1,0.1c0.3,0.1,0.6,0.2,0.9,0.3
				c0.4,0.2,0.8,1.2,1.2,1.6c0.3,0.1,0.8,0.3,0.9,0.4c0.2,0.1,0.5,0.8,0.7,0.9c0.5,0.6,0.5,1.7,0.8,2.5c0.2,0.5,0.5,1,0.6,1.5
				c0.4,1.2-1.1,5.9-1.3,7c-0.2,0.8,0.4,1.7,0.1,2.6c-0.6,1.3,0.1,2.6-0.5,3.9c-0.5,0.7-0.4,1.2-0.8,2.1c-0.4,1,0.1,2-0.2,3
				c-0.2,0.7,0.5,1.4,0.3,2c-0.3,0.8-0.3,1.8-0.7,2.6c-0.2,0.4-0.6,0.8-0.7,1.2c-0.3,0.8-0.2,1.7-0.5,2.3c0.7,2.1-0.1,5.5-0.7,7
				c-0.2,0.5-0.7,1.3-0.6,2.1c0.1,0.9-0.3,2.1,0,2.9c0.1,0.3,0.2,1.2,0.1,1.6c-0.4,1.9-0.1,3.5-0.9,5c0.2,0.3,0,1.1-0.2,1.5
				c-0.4,1-0.8,2.6-1.1,3.5c0.1,0.4,0.2,2.3,0,2.8c-0.2,0.5-0.4,1.2-0.3,1.8c0.3,1.8-1,4.9-1,6.9c-0.1,2-0.5,3.2-0.8,4.3
				c-0.3,1.2,0,2.9-0.2,4.2c-0.4,2.4-0.8,2.2-0.5,4.6c0.1,0.9-0.6,1.6-0.7,2.1c-0.1,0.4,0.1,2.6,0.1,2.7c0.1,0.6-0.3,1.6-0.1,2.1
				c0.2,0.4,0,1.5,0.3,1.9c0.4,0.4,0.9,1.5,1.1,2.2c0.1,0.3,0.8,0.4,1.2,0.6c0.6,0.5,1.7,0.5,2.5,0.8c0.8,0.3,2.5,0,3.2-1.1
				c0.2-0.2,1.1-0.4,1.4-0.6c0.4-0.3,0.5-1,0.7-1.2c0.4-0.5,1-1.1,1.3-1.3c0.5-0.8,0.2-1.7,1-2.2c0.8-0.5,1-0.7,1.4-1.5
				c0.4-0.9,0.8-1.3,1.2-2.4c0.3-0.9,0.3-1.4,0.7-2.1c0.3-0.5,1.1-1.3,1.3-1.7c0.2-0.3,0.4-0.6,0.6-0.9c0.3-0.8,0.6-1.7,1.1-2.4
				c0.6-0.8,0.8-1.5,1.3-2.2c0.4-0.6,0-1.4,0.4-2c0.6-0.7,2-4.2,2.7-4.8c0.6-0.4,0.9-1.3,1.2-1.9c0.5-0.9,2.4-4.5,2.6-5.7
				c0.1-0.5,0.8-2.6,1-3.1c0.1-0.4,0.5-0.7,0.6-1.1c0.7-1.6,2.1-2.6,2.9-4c0.5-0.8,0.1-1.3,0.4-2.3c0.1-0.3,1.4-3.3,1.5-3.5
				c0.4-1,1.8-2.6,1.8-3.6c0.2-1.8,1.4-2.8,2.5-4c0.7-0.8,0.6-1.6,1-2.8c1-2.8,3.5-6.2,6-6.8c0.8-0.2,1.8-1.1,4.4-1.1
				c0.7,0,1.8,0.2,2.3,0.6c0.2,0.2,0.3,0,0.6,0.2c0.3,0.1,0.7,0.4,1.1,0.5c0.4,0.1,0.5,0.6,0.8,0.8c0.8,0.5,1.1,0.8,1.5,1.8
				c0.2,0.7,1.1,1.3,1.3,2c0.3,1,0.5,1.9,0.3,2.7c-0.2,0.6,0.2,1,0.1,1.6c-0.2,1.1-0.4,2.4-0.9,3.3c-0.2,0.4,0,1-0.2,1.5
				c-0.2,0.4-0.5,0.9-0.7,1.3c-0.3,0.6-0.9,1.9-1.1,2.6c0,0.2-0.4,0.5-0.4,0.7c-0.1,0.3-0.8,0.7-0.8,1c-0.3,1.3-1.8,4.7-2.1,5.7
				c-0.2,0.5-0.7,0.9-0.9,1.3c-0.1,0.3,0.3,0.6,0.2,1c-0.2,0.3-0.5,1-0.9,1.2c-0.1,0.2-0.3,0.4-0.4,0.6c-0.5,0.4,0,1-0.3,1.2
				c-0.5,0.3-0.3,0.4-0.8,1c-1.1,1.6-3.1,8.6-3.9,10.3c-0.6,1.3-1.8,1.9-2.3,2.9c-0.2,0.4-0.6,1.1-0.6,1.5c0,0.2,0.1,0.4,0.1,0.6
				c0.1,0.6-1.9,5.3-2.2,5.7c-0.2,0.3-0.3,0.4-0.5,0.6c-0.3,0.6-1.4,4-1.7,4.5c-0.2,0.3-0.5,1.3-0.8,1.9c-0.5,0.9-0.3,1.2-0.9,2
				c-0.5,0.7-1.2,1.1-1.6,1.9c0,0.2,0,0.4-0.1,0.6c-0.1,0.3-0.3,0.6-0.4,0.9c0,0.4-0.3,0.8-0.3,1.1c-0.2,0.6-0.6,1.2-0.7,1.8
				c0,0.3,0,0.7,0.1,1c-0.1,0.6-1.2,1.1-1.3,1.7c0,0.2-0.7,0.9-0.7,1.3c-0.3,1-0.6,2.1-1,3.1c-0.2,0.6-0.2,1.1-0.3,1.9
				c0,0.3-0.5,0.6-0.5,0.9c-0.2,0.7-2.1,2.7-2.1,3.1c-0.1,0.5,0.3,0.6,0,1.7c-0.3,1.1-0.2,2.1-0.8,3.2c-0.6,1.3-1.5,2.1-2.2,3.4
				c-0.4,0.8-0.3,2-0.8,2.8c-0.9,1.5-0.9,2.2-1.5,3.3c-0.6,1.1-0.1,2-0.7,3.2c-0.7,1.4-0.8,2.4-1.6,2.9c-0.4,0.3-0.4,0.9-0.5,1.4
				c-0.1,0.4-0.1,0.7-0.1,0.8c0.1,0.4-0.2,1.4-0.5,2.2c-0.3,1.2-0.9,1.6-1.5,2.6c-0.6,1,0.4,1.9-0.2,2.8c-0.3,0.4-0.1,0.9-0.5,1.1
				c-0.4,0.3-0.4,1-0.4,1.2c0,0.9,0,1.2-0.1,1.8c-0.1,0.8,0.3,1-0.1,2.8c-0.1,0.5,0.3,1,0.4,1.3c0.1,0.4,0.8,0.7,0.6,1.3
				c-0.1,0.4,0.2,0.6,0.5,0.8c1.7,0.3,0.7,1,1.7,1.6c0.3,0.1,0.6,0.3,0.9,0.4c0.3,0.3,0.6-0.2,0.9,0.1c1.1,0.6,0.2,0.4,1.8,0.6
				c0.7,0,0.7-0.5,1.4-0.5c1,0.3,1.8-0.3,2.8-0.4c1.6-0.3,1.7-0.6,2.5-0.9c0.4-0.2,0.8-0.2,1.1-0.4c0.1-0.2,0.3-0.5,0.6-0.6
				c0.3,0,3.6-1.3,5.6-2.4c0.1-0.1,0.9-0.1,1.5-0.1c0.5-0.2,1.1-0.7,1.4-1c0.7-0.7,1.2-1.1,2.2-1.6c0.1-0.1,2.2-0.6,2.6-0.7
				c0.8-0.1,1.5-0.6,2.3-0.7c1.2-0.5,0.9-1.2,1.4-1.4c1-0.1,1.5-0.1,1.8-0.9c0.2-0.4,1.4,0,1.5-0.2c0.5-0.3,2.6-0.4,4.1-1.3
				c0.4-0.2,0.3-0.8,0.9-0.9c0.8-0.3,1.7-0.6,2.8-0.9c0.7-0.1,1.5-0.1,2-0.4c1-0.6,1.5,0.4,2.9,0c0.3-0.1,0.9,0,1.2-0.1
				c0.7-0.4,2.7,0.3,3.5,0.7c0.1,0,0.3,0.2,0.6,0.3c0.5,0.4,1.2-0.3,1.7,0.1c0.3,0.2,0.4,0.6,0.7,0.8c0,0.3,1.1,0.9,1.5,1.2
				c0.2,0.2,0.8,1.3,1.1,1.6c0.4,0.5,0.4,0.5,0.5,1.2c0.9,5.4-1.7,6.5-3.3,7.9c-0.3,0.3-0.8,0.3-1.2,0.5c-0.4,0.5-0.9,0.9-1.3,1.4
				c-0.6,0.4-0.9,0.4-1.3,1c-1.9-0.2-4.3,2.3-6.1,3.1c-1.7,0.8-3,2.7-5.3,3.2c-2.2,0.5-2.5,2.5-4.5,3c-1.9,0.5-4.8,2.4-5.5,3.6
				c-0.5,1-4,2.6-4.1,2.8c-0.1,0.2-1.7,0.8-2.6,1.3c-1.1,0.3-1.7,1-2.3,1.5c-0.2,0.1-0.6,0.2-0.7,0.5c-0.2,0.9-1.4,0.1-1.7,1.2
				c-0.6,1.9-2,1.2-3.4,2.3c-0.6,0.5-1.6,1.4-2.2,1.9c-0.5,0.3-1.1,0.1-1.6,0.4c0,0.1-0.1,0.2-0.1,0.3c-0.4,0.4-1.1,0.5-1.6,0.8
				c-0.7,0.4-1.2,1.4-2.1,1.9c-1.7,0.8-3.3,1.1-4.9,2.3c-0.7,0.5-0.8,1.6-1.6,2.1c-0.8,0.5-2.2,0.7-2.7,1.5
				c-0.4,0.5-1.4,0.7-1.8,1.1c-0.6,0.7-1.3,1.2-1.7,1.5c-0.2,0.2-0.3,0-0.4,0.2c-0.4,0.2-0.6-0.1-1,0.2c-0.8,0.5-1.2,2.1-2.2,2.4
				c-0.6,0-1.3,0.1-1.9,0.1c-0.7,0.2-1.2,0.6-1.5,0.8c-0.3,0.2-1.5,1.8-2.8,1.7c-1.7,0.7-2.9,1.7-4.4,3.4c-0.3,0.4-0.9,0.7-1,1.1
				c-0.1,0.3,0,0.6-0.1,0.8c-0.2,0.7-1.8,2-2,2.1c-0.3,0.4-0.4,0.9-0.8,1.2c-0.3,0.2-0.6,0.3-0.9,0.5c-0.1,0.1-0.9,0.6-1.3,0.8
				c-0.6,0.4-1.3,1.1-2,1.4c-0.8,0.2-2.4,5.9-3,6.3c-0.1,0.4,0.1,1-0.1,1.5c-0.2,0.2-0.3,0.3-0.5,0.5c-0.2,0.3-1.1,0.8-1.2,1
				c-0.1,0.7-0.2,1.6-0.4,2c-0.1,0.4-0.7,1.1-0.9,1.6c-0.2,0.5-0.6,0.5-0.7,0.9c-0.1,0.4-0.7,2.7-0.9,3.1c-0.6,1.2-2.3,2.5-2.5,3.3
				c-0.1,0.4,0,1.1,0,1.6c-0.1,0.4-0.4,1.2-0.6,1.6c-0.3,0.6-1,1-1.5,1.5c-0.8,0.8-0.9,1.7-1.4,2.7c-0.1,0.3-0.3,0.5-0.3,0.8
				c-0.3,0.5-0.4,1-0.5,1.2c-0.2,0.3-0.3,1.3-0.2,1.7c0.1,0.5,0.6,0.9,0.8,1.1c1.3-0.4,2.7,1.1,4.2,1.1c0.8,0,1.6,0,2.5,0
				c0.3-0.1,0.5-0.3,0.7-0.3c0.4-0.1,1.3,0.2,1.7,0.3c0.5-0.2,1.8,0.1,2.3,0.2c0.4,0.1,0.8-0.1,1-0.1c0.3,0,1.1,0.1,1.3,0.2
				c0.6,0,1.3-0.2,1.6-0.1c0.3,0.1,0.6,0.4,0.9,0.4c0.2,0,0.5,0,0.7-0.1c0.3,0.1,0.9,0.4,1.2,0.4c0.7,0,1.5,0,2.5,0
				c0.7,0.2,1.4,0.6,2.1,0.8c1.1,0.3,2,0.2,3,0.1c0.3,0,0.6,0.1,0.9,0.2c0.3,0,1.5-0.1,1.8-0.1c0.3-0.1,0.8-0.1,1.4-0.2
				c0.4,0,0.9,0.1,1.3,0.1c0.9,0.2,2.1-0.2,2.7-0.4c1.2-0.5,2.4-1.4,3.7-1.8c1.6-0.6,3.1-0.7,4.4-1.6c0.9-0.6,2-3.1,2.6-4.1
				c0.7-1.1,2.4-1.2,3.2-2.2c0.3-0.4,0.4-1,0.7-1.4c0.3-0.5,0.8-1,1.2-1.5c0.4-0.5,0.5-1.2,1-1.6c0.8-0.7,2.9-1.3,4.4-0.9
				c0.5,0.1,1.7,0.8,2.3,0.5c0.7-0.3,1.6-0.8,2.2-1.3c0.4-0.2,0.6-0.7,1-0.9c0.8-0.4,1.7-0.3,2.5-0.6c0.8-0.3,1.7-1.5,2.5-2
				c0.3-0.1,0.6-0.2,0.9-0.3c0.3-0.2,0.7-0.5,1.1-0.7c1.8-1.1,3-2.8,5.4-3.3c0.9-0.2,2.8-0.2,3.5,0.1c0.7,0.3,1.9,1,2.2,0.8
				c0.8-0.7,3.2-1.9,4.5-1.8c0.4,0.1,0.7,0,1,0.1c0.6,0.3,1.5,0.5,2,0.4c0.2,0,0.7-0.3,0.8-0.6c0.1-0.3,0.1-0.8-0.1-1.1
				c-0.6-0.8-2.3-0.7-3.3-1.1c-0.5-0.2-0.7-0.5-1-0.9c-0.9-1.2-2.1-1.9-2.4-3.7c-0.3-2,1.5-5.7,2.5-6.5c0.8-0.6,1.6-1,2.4-1.5
				c0.2-0.2,0.4-0.4,0.6-0.6c0.4-0.1,0.7-0.1,1.1-0.2c0.3-0.1,0.5-0.4,0.7-0.5c0.3-0.1,2.4,0.3,2.5,0.4c1,0.7,0.8,1.4,1.3,2.2
				c0,0.4,0.1,0.6,0.3,0.9c0,0,0.4,0,0.4-0.1c0.9-0.2,0.1-1.8,0.5-2.5c0.7-1.2,1.8-1.9,2.5-3.1c0.6-1,0.9-2.1,1.6-3
				c1.1-1.5,3.3-1.8,4.9-2.9c0.6-0.6,1.2-1.3,1.8-1.9c0.1-0.1,1.1-0.2,1.7-0.3c0.8-0.2,1.6-0.7,2.2-1.1c0.2-0.1,0.5-0.2,0.7-0.3
				c0.4-0.4,0.4-1.1,0.8-1.6c0.6-0.7,1.2-1.6,1.5-2.7c0.2-0.7,0-1.7,0.3-2.6c0.4-1.3,1.3-2.3,1.7-3.5c0.4-1.3-0.7-2.6-0.4-4
				c0.4-2,2-2.6,2.6-4.2c0.7-1.4-1.1-3.7-0.4-5.3c0.2-0.6,0.7-1.3,0.9-2c0-0.2,0.1-0.4,0.1-0.6c0.3-0.5,0.9-0.9,1.1-1.3
				c0.1-0.2,0.2-0.7,0.3-0.9c1-1.3,3.6-2.4,2.4-3.8c-1.1-1.3,0.1-2.9-0.3-3.9c-0.6-1.6-1.4-2.4-2.1-3.7c-0.4-0.8-0.8-1.7-1.1-2.6
				c0-0.2,0-0.5-0.1-0.7c-0.3-0.7,1.1-1.4,0.8-2.2c-0.3-0.7-0.7-1.2-0.9-2.1c-0.2-0.7-1.6-5.1-1.3-5.7c0.4-0.9,0.7-1.2,0.9-2.5
				c0.1-0.5-0.4-3-0.6-3.6c-0.4-1.2-0.3-2.3-0.6-3.4c-0.4-1.3-1.6-3.2-1.4-3.4c0.2-0.2,0.6-0.9,0.4-1.3c-0.1-1.2-1.6-2.2-1.2-4.1
				c0.1-0.5,0.3-1.6,0.6-2c0.7-1.2,2-2,2.3-3.6c0.2-1.1-0.7-2.9-1-3.9c-0.3-0.9,0.2-2.1,0.4-2.8c0-0.5,0-1.1,0.1-1.4
				c0.1-0.3,0.2-0.7,0.4-1c0-0.3,0-0.5,0.1-0.8c0.4-0.7,1.3-1.2,1.6-2c0.3-0.7-0.1-1.9,0.1-2.7c0.3-0.4,0.5-0.9,0.8-1.3
				c0.3-0.8,0.5-1.4,0.6-2.1c0.2-1-0.2-1.8-0.3-2.5c-0.3-1.4-0.3-3.1-0.6-4.5c-0.3-1.7,1.3-3.6,1-5c-0.2-0.9-0.7-1.6-0.8-2.3
				c-0.3-1.3-0.3-3.4-0.4-5.1c0.2-1.6-0.2-3.7,0.4-5.4c0.3-0.8,1.2-1.5,1.5-2.4c0.3-1.3-0.1-2.6-0.3-3.8c-0.2-1.6,0.2-3.5-0.5-4.8
				c-0.6-1.2-0.4-3.3-0.8-4.6c-0.2-0.6,0.4-1,0.2-1.7c-0.2-1-0.3-2.3-0.5-3.3c0-0.8,0.1-2.1-0.1-2.5c-0.1-0.3-0.4-0.5-0.6-0.7
				c-0.3-0.5-0.8-1.6-0.9-2.1c-0.2-0.7-0.8-2-0.7-2.8c0.1-0.8,0.7-2.3,0.4-3.3c-0.4-1.8-1.4-3.7-1.9-5.5c-0.1-0.4,0-1.3,0-2
				c0-1.7,0-3.5-0.6-4.9c-0.6-1.4-1.3-2.8-2.6-3.5c-0.3-0.2-0.7-0.7-1.3-0.4c-0.2,0-1.4,0.9-1.5,1c-1.1,0-2.1-0.1-2-1.1
				c0.1-1,0.7-1.3,0.9-2.2c0.4-1.3-0.7-2.7-0.9-3.6c-0.1-0.5-0.2-2.4-0.1-3c0-0.4,0.1-0.8,0.1-1.3c-0.1-0.6-0.7-0.7-1-1.1
				c-0.8-1-2-2.2-3.2-2.8c-0.3-0.2-1.4,0-1.8,0.1c-0.6,0.1-1.2-0.2-1.6-0.1c-0.8,0.1-1.8,0.5-2.7,0.3c-1.2-0.3-1.7-1.4-3.2-1.3
				c-1.5,1.5-1.6,3.3-3.7,4.3c-0.9,0.4-2.1,0.2-2.7-0.3c-2.3-1.4-2.4-3.4-3.1-6.2c-0.2-0.7-0.1-2.2-0.3-2.6
				c-0.5-1.2-1.4-2.2-1.8-3.6c-0.4-1.5-0.1-4-0.8-4.4c-4.6-1-4.6,3.3-8.3,2.8c-3.3-0.5-3.1-2.7-4.6-4.9c-0.6-0.9-2-1.6-2.3-2.8
				c-0.3-1.2-0.5-3.4-0.4-4.5c0.1-0.4,0.1-0.7,0.2-1.1c-0.1-1.2-1.7-2.3-0.9-3.1c0.3-0.3,1-0.6,1.2-0.9c0.5-0.7,0.4-2.6,0.5-3.7
				c0.1-0.8,1.7-1.8,2.5-1.9c0.1,0,1.8,0.4,1.6,1.6c-0.2,1.1-0.3,2-0.7,2.3c-0.1,0.1-0.2,0.5-0.1,0.7c0.1,0.1,0.3,0.3,0.5,0.3
				c0.3,0,1-0.8,1.4-1.4c0.5-0.8,1.9-1.5,2.5-1.7c0.8-0.4,2.8,0.3,3.3-0.2c0.3-0.1,0.3-0.2,0.4-0.4c-0.1-0.6-0.2-2.3-0.8-2.9
				c-0.1,0-0.8-1-0.9-1.2c-0.3-0.6-1.2-0.8-1.6-1.3c-0.2,0-0.4,0.1-0.6,0.1c-1,0-2.3,1.8-2.7,2.5c-0.3,0.1-0.6,0.1-0.9,0.2
				c-0.1,0-1.4-0.4-2.7,0c-0.5,0.3-1.2,0.8-2,1.3c-1.6,1.2-1.7,2.7-4.6,1.6c-1.1-0.4-1.8-2-3.2-2c-1.1,0-1.8,0.8-2.6,1.2
				c-1.3,0.6-2.2-0.2-3.2-0.6c-0.4-0.1-0.6,0-0.9-0.2c-1.5-1-0.7-2.4-1.4-4.1c-0.2-0.4-0.3-1.1-0.9-1.1c-3.1,0.1-2.9,1.3-4.6,2.5
				c-0.3,0.1-0.7,0.3-1,0.4c-0.8-0.1-0.9-0.6-1.4-1c-0.4-0.3-0.7-0.4-1.1-0.6c-0.7-0.4-1.1-1.5-1.8-2c-0.6-0.4-1.5-0.6-2.5-0.6
				c-0.3,0-0.6,0.1-0.8,0.1c-1.3-0.3-2.1-1.1-3-1.8c-1.2,0-1.2,0.8-1.6,1.5c-0.1,0-0.2,0.1-0.4,0.1c-0.5-0.1-1-0.3-1.3-0.6
				c-0.5-2.3-3.3-6.1-5.5-6.6c-1.2-0.3-1.8,0.4-2.6,0.6c-1.1,0.2-2.1-1-3.5-0.3c-0.9,0.5-1,2-1.8,2.7c-1,0.8-2.4,1-3.4,1.7
				c-0.5,0.4-1.2,0.8-1.6,1.2c-0.4,0.4-0.7,0.7-1.1,1.1c-0.6,0.1-1.2,0.3-1.8,0.4c-0.6,0.3-0.6,1.1-1.3,1.5
				c-0.7,0.4-1.5-0.2-1.9-0.6c-0.2-0.2-0.2-1.4-0.4-1.8c-0.6-1.1-4.4-1.5-5.8-2c-0.7-0.2-1.3,0-2-0.3c-1-0.4-1.3-1.9-1.9-2.7
				c-0.2-0.3-0.3-0.7-0.7-0.7c-1.7-0.1-3,0.1-4.2-0.7c-1.1-0.7-3-3.1-4.9-2.6c-1.5,0.4-3,1.6-4.4,2.1c-0.8,0.2-2.3,0.5-2.4,0.6
				c-0.3,0.2-0.6,0.5-0.9,0.8c-0.2,0.1-0.5,0.2-0.7,0.3c-0.5,0.4-0.7,1.1-1.1,1.6c-0.5,0.5-1.2,0.7-1.7,1.1
				c-0.1,0.2-0.3,0.4-0.4,0.6c-0.3,0.3-0.7,0.2-1,0.4c-1.5,1-2.8,2.4-4.5,3.2c-0.8,0.4-1.8,0.3-2.7,0.6c-0.5,0.2-1.3,0-1.7,0.6
				c-0.3,0.6-1,1.8-1.7,2.1c-0.8,0.3-2.2,0.4-2.7,1c-1.1,1.5-1.8,3.2-3,4.7c-1.2,1.6-3.2,2.6-4.4,4.2c-0.3,0.2-0.5,0.3-0.8,0.5
				c-0.5,0.6-0.7,2.9-1.2,3.3c-1.1,0.9-2.5,1.4-3.7,2.2c-0.7,0.5-1.3,1.2-2,1.7c-0.6,0.4-1.3,0.6-1.6,1.1c-0.8,1.2,0,3.2-0.8,4.2
				c-0.7,0.9-2.3,1.5-3.3,2.1c-0.1,0.2-0.3,0.3-0.4,0.5c-0.2,0-0.4,0-0.6,0.1c-1.2,0.7-1.9,2-2.7,3.1c-0.2,0.2-0.6,0.5-0.6,0.7
				c-0.6,1.8,0.8,2.5,1.2,3.6c0,0.4,0.1,0.8,0.1,1.3c0.1,0.2,0.2,0.6,0.1,1c-0.1,0.4-0.5,0.7-0.7,1c-1.4,0.1-2.6-1.6-3-0.3
				c-0.2,1.2,0.5,2.7,0.5,2.8c0.6,2,0,5.9-1.4,7.3c-0.4,0.2-0.7,0.5-1.1,0.7c-0.3,0.3-0.6,0.7-0.9,1c-0.6,0.4-1.1,0.5-1.6,1.1
				c-0.3,0.6-0.3,1.4-0.6,2.1c-0.2,0.2-0.4,0.4-0.5,0.6c-0.2,0.4-0.3,1-0.5,1.6c-0.1,0.1-0.3,0.3-0.4,0.4c-0.1,0.1-0.9,1.8-0.9,1.9
				c0,0.1,0,0.2,0.1,0.3c-0.2,0.4-0.8,1-0.9,1.5c-0.2,0.6-0.1,1.3-0.4,1.8c-0.5,0.8-1.1,1.5-1.6,2.3c-0.2,0.3-0.8,0.4-1,0.8
				c-0.2,0.4-0.1,0.7-0.2,1.1c-0.1,0.4-0.4,0.6-0.6,0.9c-0.4,0.9-0.2,1.8-1.1,2.1c-0.6,0.3-1.8,0.3-2.4,0c-1.8,0-2.6,2.9-3.7,3.7
				c-0.2,0.1-0.4,0.1-0.6,0.2c-1.3,0.8-2.5,1.9-4.2,2.3c-1.6,0.4-4,0.6-4.9,1.5c-0.5,0.5-0.7,1.4-1,2.1c-0.1,0.2-0.4,0.4-0.5,0.6
				c-0.2,0.5,0,1-0.2,1.5c-0.6,1.4-0.8,2.6-1.6,3.7c0,0-0.2,0.2-0.2,0.2c-0.7,0.3-2.3,2.1-2.6,2.8c-0.4,0.9-0.4,2-0.9,2.8
				c-0.6,0.8-1.7,1.5-2.1,2.3c-0.2,0.3-0.1,0.6-0.3,1c-0.2,0.3-0.5,0.5-0.7,0.8c-0.1,0.2-0.2,0.9-0.3,1.1c-0.2,0.4-0.6,0.6-0.8,0.9
				c-0.6,0.8-0.8,1.7-1.3,2.5c-0.2,0.3-0.6,0.6-0.8,0.9c-0.2,0.4-0.1,0.7-0.4,1.1c-0.5,0.8-1.2,1.5-1.8,2.2
				c-0.1,0.3-0.3,0.5-0.4,0.8c-0.5,0.4-1.6,0.6-1.7,1.4c-1.1-0.2-2.5,2.1-2.7,3c-0.1,0.4,0.2,2.6,0,2.6c-0.9,0-0.5,1-1,1.4
				c-0.1,0.1-0.2-0.1-0.2,0l-0.6,0.9c-0.2,0.3-0.1,0.6-0.2,0.8c-0.5,0.7-1.2,1.4-1.6,2.2c-0.5,1-0.5,2.7-1.1,3.2
				c0,0.1,0.2,0.2,0.3,0.2c-0.4,0.4-1,0.7-1.3,1.1c-0.4,0.7-0.5,1.8-1.1,2.3c-0.1,0.1-0.2-0.1-0.2-0.1c-0.3,0.2-0.2,0.4-0.4,0.6
				c-0.1,0-0.3,0.1-0.4,0.1c-0.2,0.3-0.1,0.7-0.3,0.9c-0.1,0.1-0.7,0.8-0.8,0.9c-0.1,0.1-0.2,0-0.3,0.1c-0.1,0.2-0.2,0.5-0.4,0.7
				c-0.6,0.4-1.3,0.5-2.1,0.8c-0.1,0.1-2.4,1.6-2.4,1.6c-0.2,0.1-0.2,0.5-0.3,0.8c-0.1,0-0.3,0.2-0.4,0.2c0,0.2,0,0.4,0.1,0.6
				c-0.1,0.3,0,0.2-0.3,0.3c0,2-1,2.1-2.3,2.8c-0.2,0.1-0.4,0.5-0.6,0.7c-1.4,1.1-3.2,2.3-5.1,1.5c-0.1,0.1-0.2,0.2-0.3,0.3
				c-0.3-0.1-0.4-0.1-0.5-0.3c-0.2,0.1-0.3,0.3-0.4,0.4c-0.6,0.2-2.2,0-3-0.2c-0.5-0.1-1.2-0.6-1.9-0.9c-0.3-0.1-0.7-0.2-1-0.3
				c-0.2-0.1-0.3-0.5-0.5-0.6c-0.7-0.4-1.3-0.5-2-0.9c-0.5-0.3-0.9-1.1-1.5-1.5c-1.6-0.9-4.4-0.8-5.3-2.1c-2.4,0.6-3.4-1.1-5.2-2
				c-0.8-0.4-2.7,0.1-3.3,0.3c-0.5,0.1-1.7,0-2.5,0c-0.2,0.1-0.4,0.2-0.6,0.3c-0.4,0.1-1,0.1-1.4,0.3c-0.2,0.1-0.4,0.3-0.6,0.4
				c-0.4,0.1-0.9,0-1.3,0.3c-0.7,0-0.9,0.1-1.1,0.6c-1.7-0.3-3.3,0.9-4.8,0.7c-0.4,0-0.8,0-1.2,0.1c-0.1-0.1-0.2-0.3-0.4-0.4
				c-0.2,0-0.4,0-0.6,0.1c-0.4-0.1-0.9-0.2-1.3-0.3c-0.6,0-0.6,0.3-0.9,0.6c-1.3,0.2-2.7,0.4-4,0.6c-1.7-0.2-3.7-0.6-5.5-1.1
				c-0.8-0.2-2.2-0.9-3.2-0.7c-1.3,0.2-2.6,1-3.3,2.1c-0.2,0.3,1,1.8,0.8,2.6c-0.3,1.5-0.8,3.6-1.2,4c-0.1,0.1-0.2,0.2-0.4,0.3
				c-0.3,0.3-0.6,0.8-0.7,1.3c-0.3,0.1-0.7,0-0.9,0.2c-0.2,0.2-0.6,0.5-0.7,0.8c-1.6,0.4-3.4-0.4-4.2-1.3c-0.4-0.5-0.8-1.6-1.4-1.9
				c-0.5-0.3-0.9,0.2-1.3,0.3c-0.7,0-1.4,0-2.1,0.1c-0.2,0-0.3,0.3-0.2,0.4c0,0.6,0.3,0.9,0.4,1.4c0.1,0.5-0.1,2.3-0.3,2.3
				c-1.1-0.1-2.8,0-3.7,0.4c-1.5,0.7-2.6,2.1-3.5,3.3c-0.4,0.5-1,0.7-1.5,1c-0.4,0.3-0.5,0.6-0.8,1c-0.3,0.4-1,0.7-1.4,1.1
				c-0.6,0.5-0.7,1.6-1.1,2.2c-0.2,0.3-0.8,0.5-1.1,0.8c-0.2,0.3-0.4,0.5-0.6,0.8c-0.1,0-0.2,0-0.3,0c-0.3,0.2-0.3,0.7-0.6,0.9
				c-0.2,0.2-0.6,0.1-0.9,0.3c-0.2,0.2-0.4,0.5-0.6,0.7c-0.2,0-0.5,0.1-0.8,0.1c-1.2,0.6-2.5,1.1-3.7,1.7c-0.7,0.4-1,1.3-1.5,1.9
				c0.3,1.3,0,2.3-1,3c-0.2,0.1-0.1,0.9-0.1,1.1c0,0.5-0.5,0.6-0.8,0.8c-0.8,0-2.1-0.1-2.5-0.6c-0.7,0.1-2.2,1.7-2.5,2.2
				c-0.1,0.2-0.2,0.5-0.3,0.7c-0.3,0.2-0.8,0.1-1,0.4c0,0.1,0,0.3-0.1,0.4c-0.3,0.4-1,0.8-1.4,1.1c-0.2,0.2-0.3,0.4-0.4,0.6
				c-0.8,0.6-1.4,1.3-2.1,2c0,0.1,0,0.2,0,0.3c-0.7,0.1-2.4,2.5-3.1,3c-0.2,0.1-0.4,0.1-0.6,0.2c-0.3,0.3-0.4,0.8-0.8,1.1
				c-0.3,0.1-0.5,0.3-0.8,0.4c-0.2,0.3-0.4,0.7-0.6,1c-1.4,0.9-2.7,2.3-3.7,3.7c-0.2,0.3-1.4,1.3-1.8,1.6c-0.2,0.1-0.3,0.1-0.4,0.2
				c-0.2,0.2-0.1,0.5-0.3,0.6c-0.2,0.1-0.4,0.2-0.6,0.3c-0.7,0.5-1.3,2-2.3,2.1c0,0.2,0,0.8-0.1,1c-0.2,0.2-0.5,0.4-0.7,0.6
				c-0.2,0.4-0.1,0.7-0.3,1c-0.1,0.1-0.3,0.2-0.4,0.3c-0.2,0.4-0.1,1-0.3,1.3c-0.2,0.6-0.8,1.1-1,1.7c0,0.3,0,0.6-0.1,0.9
				c-0.1,0.4-0.4,1-0.5,1.4c0,0.2,0,0.4,0,0.6c-0.1,0.1-0.3,0.3-0.3,0.6c-0.1,0.8,0.1,1.9-0.4,2.7c-0.2,0.3-0.7,0.7-0.9,1.1
				c-0.2,0.3,0,0.5-0.2,0.8c-0.1,0.1-0.3,0.1-0.4,0.2c-0.2,0.2-0.5,0.8-0.6,1.1c-0.6,1.8,0.2,3.3,0.5,4.9c0.1,0.6-0.9,4.8-1.2,5.4
				c-0.9,1.6-2.1,2.7-3.6,3.7c-0.6,0.4-1,1.3-1.6,1.6c-1.2,0.6-2.3,1.5-2.8,2.8c-0.5,1.3,0.6,5.3,0.9,6.7c0.2,0.7-0.6,2.7-0.8,3.4
				c-0.2,1,0.6,2.3,0.6,3.3c0,1-0.8,1.7-1,2.4c0,0.3,0,0.6,0,0.9c-0.1,0.5-0.3,1.1-0.4,1.6c-0.1,0.4-0.6,0.6-0.8,0.9
				c-0.1,0.2-0.3,0.5-0.4,0.7c-1.1,1-3.1,0-3.9-0.7c-1.5,0.1-2.3,1.2-3.3,1.8c-0.7,0.4-1.9,0.1-2.1,1.1c0,0.4,0.1,0.8,0.3,1
				c0.1,0.2,0,0,0.1,0.1c0.1,0.1,0.1,0.1,0.2,0.3c0.3,0.4,0.9,0.4,1.3,0.6c0.4,0.3,0.8,0.5,1.3,0.8c1,0.3,1.9,0.2,2.5,0.8
				c0.3,0.3,1.5,2.5,1.2,3.3c-0.2,0.5-0.5,1.5-0.4,2c0.4,1.3,2.4,1.7,2.9,3.1c0.5,1.2-0.3,2.5-0.1,3.3c0.1,0.3,0,0.9,0.2,1.6
				c0.1,0.2,0.2,0.5,0.3,0.7c0,0.2,0,0.5-0.1,0.7c0.7,2.2,0.4,4.6-0.6,6.5c-0.4,0.9,0,2.4-0.4,3.2c0.3,0.8,1.1,1.6,1.5,2.3
				c0.5,0.7,0.6,1.3,1.1,2c0.1,0.2,0.5,0.3,0.6,0.5c0.3,0.7,0.5,1.8,0.9,2.5c0.1,0.3,0.5,0.4,0.7,0.6c0,0.2,0,0.5,0,0.7
				c0.2,0.2,0.3,0.3,0.5,0.5c0.1,0.3,0.2,0.8,0.4,1.2c0.3,0.5,0.8,0.7,1.2,1.1c0.4,0.5,0.7,1.3,1,1.8c1,1.5,0.3,5.1-1,5.9
				c-0.2,1.1,0.6,2,1.3,2.3c0.4,0.2,0.7,0,0.9,0.3c0.5,0.3,1.2,2.1,1.4,2.8c0.3,1.1-0.2,1.9-0.4,2.7c-0.1,0.5,0.1,1-0.1,1.5
				c-0.2,0.6-0.8,1.2-0.8,2c-0.7,0.3-0.8,0.8-1.4,1.2c-0.6,0.4-1.3,0.5-2,0.8c-0.3,0.3-0.8,0.3-1,0.8c-0.2,1.3,1.5,1.5,2.7,2.3
				c0.2,0.2,0.3,0.4,0.5,0.6c0.2,0.1,0.6,0.2,0.7,0.4c0,0.1,0,0.2-0.1,0.3c0.2,0.3,0.6,0.7,0.8,1.1c0,0.1,0,0.3,0,0.4
				c0.2,0.5,0.8,1.1,1,1.6c0.1,0.3,0.1,0.7,0.3,0.9c0.1,0.2,0.5,0.7,0.6,0.8c0.3,0.2,1,0.4,1.2,0.7c0.3,0.5,0.4,1.3,0.8,1.7
				c0.2,0.2,0.7,0.4,0.9,0.7c0.1,0.3,0.4,0.7,0.5,1c0.7,0.9,2.4,1.5,2.4,3c0,0.3,0.5,0,0.6,0.3c0,0.5,0.7,0.9,0.8,1.6
				c1.2,0.3,1.5,0.9,2.1,1.8c0.2,0.1,0.5,0.1,0.6,0.2c0.4,0.2,0.2,0.6,0.5,0.8c0.6,0.5,2.1,1.4,2.5,2c0.3,0.5,1.1,1.7,1.4,2.3
				c0.6,0.2,1.9,1.2,2.5,1.4c0.3,0.2,1.1,1,1.4,1.3c0.2,0.1,0.4,0.3,0.6,0.4c0.3-0.1,0.7-0.2,0.7-0.2c0,0,0.3-0.4,0.4-0.5
				c0,0,0.2-1.1,0.5-1.5c0.5-0.8,1.3-1.7,1.8-2.4c0.4-0.6,0.5-1.3,1-1.9c0.6-0.8,1.6-1.1,2.2-2c0.2-0.4,0.2-1,0.3-1.4
				c0.1-0.2,0.4-0.4,0.5-0.6c0.1-0.3,0.1-0.6,0.2-0.9c0.2-0.2,0.4-0.4,0.6-0.6c0.1-0.3,0.2-0.6,0.3-0.9c0.4-0.6,1.4-1.1,1.8-1.7
				c0.8-1.3,0.7-3.3,1.4-4.8c0.6-1.1,0.1-1.5,1.3-1.7c0.4-0.1,0-0.7,0.5-0.7c0.2-0.1,0.4-0.4,0.5-0.9c0.1-1.2,0.8-3.7,1.2-5.3
				c0.3-1.4,0.8-2.4,1.7-3.3c0.3-0.4,0.9-0.7,1.1-1.1c0.1-0.3,0.1-0.7,0.2-1c0.3-0.6,0.6-1.5,0.8-2.1c0.1-0.4,0.1-0.7,0.2-1.1
				c0.3-0.4-0.7-1-0.3-1.3c0.5-0.8-0.1-3.2-0.1-3.7c0.1-3.8,2.4-8.6,2-9.6c-0.2-0.4-0.1-0.8-0.2-1.2c-0.2-0.4-0.5-0.8-0.7-1.2
				c-0.3-1.4,0.3-2.8,0.3-4.3c0-1.3,0.4-2.2,0.4-3.3c0-0.7,0-1.2-0.2-1.8c0-0.2,0.4-0.4,0.4-0.6c-0.1-0.2-0.2-0.3-0.4-0.5
				c-0.2-1,0.6-1.8,0.4-2.9c0-0.3,0.2-0.4,0.3-0.5c0.1-0.4,0.3-0.8,0.4-1.3c0.3-0.6-0.5-1.2-0.3-1.9c0-0.3-0.4-0.7-0.4-1
				c-0.1-1.3,1.2-2.1,1.1-3.5c0-0.3-0.3-0.6-0.2-0.9c0.2-0.8,0.4-1.6,0.9-2.3c0.4-0.6,0.3-1.1,0.6-1.9c0.1-0.4,0.3-0.7,0.3-0.9
				c0-0.2,0.1-0.3,0.1-0.5c0-0.8,0.1-1.4-0.1-2c-0.1-0.2-0.1-1.8,0-2.2c0.1-0.4,0.7-0.9,0.9-1.2c0.2-0.4,0.5-2.8,0.4-3.2
				c-0.1-0.8,0.3-3.2,0.2-4.1c0-0.4-0.4-1.6-0.3-2c-0.1-0.1,0.2-1.2,0.2-1.8c0-0.6-0.3-1.4-0.2-2c0.1-2-0.4-3.4-0.6-5.3
				c-0.1-0.9-0.3-2-0.4-2.9c-0.1-0.9,0.1-1.1-0.1-1.8c-0.1-0.5-0.3-0.9-0.4-1.4c0-0.3-0.6-1.6-0.7-1.9c-0.2-0.8,0.4-1.6,0.3-2.4
				c0-0.5-0.2-0.6-0.2-1.2c0-0.8-0.8-1.6-0.8-2.6c0-0.3-0.6-1.1-0.6-2.1c0-0.3,0.2-0.5,0.2-0.8c-0.1-0.2-0.3-0.6-0.4-0.7
				c-0.1-0.5-0.1-1.1-0.2-1.6c-0.1-0.5-0.3-0.7-0.3-1.2c0.1-0.4,0.1-0.8,0.1-1.2c0.1-0.7-0.9-1.9-0.7-3.3c0.3-1.4-1.2-2.7-1-3.5
				c0.1-0.8-0.1-2.3-0.1-2.6c0-0.3,0-0.9-0.2-1.3c-0.2-0.5-0.1-1.4-0.6-2.1c-0.1-0.1-0.5-2.7-0.4-3c0.2-0.4-0.2-1,0-1.3
				c0.1-0.3,0.1-0.6,0.2-0.9c0.4-0.3,0-0.9,0.4-1.2c0.7-0.9,0.5-1.5,1.4-2.1c0.2,0,0.4-0.2,0.5-0.2c0.2-0.2,1.1-0.5,1.3-0.7
				c0.5-0.2,0.9,0,1.3-0.3c1.3,0.4,2-0.2,3.2,0.3c0.4,0.2,1.1,1.1,1.6,1.4c0.1,0.1,0.2,0.3,0.4,0.4c0.1,0,0.3,0.1,0.4,0.1
				c0.4,0.4,0.9,2,1.1,2.7c0.3,1.1,0.7,2.5,1,3.6c-0.1,0.5-0.1,1.1-0.1,1.6c0,0.6,0.9,1.1,0.9,1.7c0,0.4-0.1,0.7,0,1
				c0.1,0.5,0.3,1,0.2,1.6c0,0.9,0.5,0.8,0.5,1.8c0,0.7,0.7,1,0.8,1.7c0,0.6-0.3,1.6-0.1,2.2c0.4,1.2,0.7,2,0.8,3.2
				c0.1,0.4,1,1.4,1,1.7c0,1-0.2,2,0.1,3.1c0.2,0.6,1,1.1,1.1,1.8c0.1,0.5,0,1.7-0.2,2.2c0.3,0.6,0.7,0.8,0.8,1.6
				c0.1,0.8,0.3,1.2,0.5,1.9c0.1,0.4,0.1,1.2,0.4,1.3c0.1,0.4,0,0.9,0.1,1.3c0.2,0.8,1.2,4.2,1.6,4.9c0.4,0.7-0.1,0.8,0.3,1.4
				c0.3,0.4,0.2,1,0.5,1.5c0.3,0.4,0.3,0.6,0.7,1c0.3,0.4,0.6,0.5,0.6,1c0,0.7,1,0.6,1.4,1c0.2,0.3,0.6,0.1,1,0.2
				c0.5,0.2,0.7,0.2,1,0.2c0.5,0,0.6,0,0.7-0.1c2.9-1.1,2-1.2,3.1-2.4c0.6-0.7,0.8-1,0.9-1.5c0-0.3,0-0.5,0.1-0.8
				c0.1-0.3,0.3-0.4,0.3-0.8c0-0.4,0.2-0.8,0.3-1.3c0.7-2.7,1-5.8,1.9-7.7c0.4-0.7,0-0.9-0.1-1.3c-0.1-0.4,0.7-1.9,0.6-2.2
				c0-0.3-0.3-0.8-0.3-1c0-1.3,0.8-2.2,0.9-3.6c0.2-2.5,1.2-5.1,1.5-7.6c0.1-0.3,0.2-0.5,0.3-0.8c0-0.6-0.4-1.4-0.4-2.1
				c0.1-2.1,1-5,2-7.1c0.3-0.7,0.1-2.6-0.2-3c0.1,0,0.9-1.9,1.1-2.4c0.2-0.2,0.5-0.8,0.7-1c0.3-0.5-0.3-2.2-0.4-2.7
				c0-0.8,0.9-2.3,0.8-3c-0.2-1,0.1-1.5,0.1-2.6c0-1.1,1.4-4,1.4-5.1c0.2-0.5,0-1,0.1-1.5c0-0.5-0.4-2.4,0-3c0.6-1,0.6-2.5,1.2-3.5
				c0.6-1.1,1-1.8,1.6-2.5c0.3-0.4,1.4-0.6,1.8-1c0.3-0.3,0.9-0.6,1.2-0.8c0.9-0.4,3.2,0,4.3,0c1.1,0,2.5,0.9,2.9,1.4
				c0.3,0.3,0.7,0.6,0.8,1c0.1,0.2,0,0.4,0.1,0.6c0.4,0.4,1.2,0.8,1.3,1.3c0.1,0.4-0.1,1.3,0,1.6c0.1,0.5,0.2,1,0.3,1.5
				c0,1.2-0.5,2.2-0.4,3.3c0.1,0.4-0.3,2.8-0.6,3.4c-0.2,0.4-0.3,1.8-0.4,2.4c-0.1,1.2-0.4,2-0.4,3.2c0,1.4-0.2,2.1-0.2,3.6
				c0,1.8-1,4.1-1,6.1c0,0.2-0.3,0.6-0.3,0.8c0,0.5-0.4,1-0.5,1.5c0,0.5-0.3,1.1-0.3,1.6c-0.1,0.6,0.5,1.3,0.4,1.9
				c0,0.4,0.2,0.7,0.2,1.2c0,0.8-1,0.9-1.1,1.7c0,0.6,0.1,1.3,0.1,1.9c-0.1,0.4-0.2,0.8-0.2,1.2c0,0.2,0.2,0.4,0.2,0.6
				c0,0.5-0.8,1.1-0.8,1.7c0,2.7,0.6,4.7-0.9,7.4c-0.3,0.6,0.1,1.5-0.3,2c0,0.3,0.2,0.2,0.2,0.4c-0.1,0.1-0.1,0.3-0.2,0.4
				c0,0.7-0.3,1.5-0.3,2.2c0.1,0.1,0.1,0.3,0.2,0.4c0,0.4-0.4,0.8-0.3,1.3c0.1,1-0.1,2.1-0.2,3.2c-0.1,0.3-0.5,0.6-0.6,1
				c0,0.9-0.3,3.1-0.3,3.7c0,0.6-0.1,1.4-0.1,2c0,0.6-0.3,1.9-0.3,2c0,1,0.6,1.5,0.6,2c0,0.6,0.7,1.3,0.8,1.8
				c0.3,0.4,0.3,0.8,0.6,0.8c0.5,0,0.7,0.5,1.4,0.4c0.2,0,1,0.7,1.2,0.7c0.3,0.1,0.6-0.3,1-0.2c0.3,0.1,0.9-0.4,1.3-0.4
				c0.9,0,1.3-0.9,2-1.8c0.1-0.2,0.8-0.6,1-1.3c0.2-0.7,0.9-1.9,1.1-2.4c0-0.3,1.2-3.8,1.2-4.1c0.6-1.7,1.4-3.7,2.1-5.3
				c0.7-1.5,0.8-3.6,1.2-5c0.1-0.6,0.1-1.4,0.2-1.7c0.8-1.3,2-2.5,2.6-4.1c0-0.3,0.3-0.6,0.3-0.9c0.2-1,0.3-2.5,0.6-3.1
				c0.5-1,0.2-1.8,0.7-2.7c0.5-0.9,0.1-2.1,0.5-2.9c0.3-0.7,1.2-1.5,1.4-2.1c0-0.3,0.2-0.6,0.3-0.9c0.5-1.3,0.7-2.4,1.3-3.7
				c0.3-0.5-0.1-0.9,0.2-1.2c0.2-0.3,0.5-0.5,0.7-0.8c0.1-0.3-0.1-0.6,0-0.9c0.2-0.4,1.1-0.8,1.3-1.2c0.5-1.2,0.6-3.2,0.7-4.4
				c0-0.2,0-0.3,0-0.5c0.2-0.6,0.3-1.4,0.6-1.9c0-0.2,0.6-1,0.7-1.2c0.2-0.5,0.3-1.9,0.6-2.4c0.8-1.2,1-2.4,1.8-3.6
				c0.6-0.9-0.2-2,0.7-3.3c0.4-0.6,0.3-1.6,0.6-2.4c0.4-1,1.2-2.2,1.2-3.1c0-0.2,0.9-1.2,1-1.5c0.9-1.8,3.9-4.6,7.3-3.9
				c0.5,0.1,2.1-0.2,2.5,0.2c0.3,0.2,0.7,0.3,1,0.4c0.3,0.2,0.5,0.3,0.8,0.6c0.2,0.2,0.4,0.2,0.7,0.4c0.3,0.3,0.5,1.1,0.8,1.4
				c0.3,0.2,0.7,0.5,1,0.6c0.1,0.1,0.4,0.8,0.4,0.9c0.3,0.6,0.1,1.6,0.3,2.3c0.1,0.4,0,1,0.1,1.5c0.1,1.1-1.2,3.1-1.5,4
				c-0.3,0.7,0.1,1.5-0.2,2.3c-0.8,1.1,0.4,2.3-0.4,3.3c-0.6,0.7-0.5,1.8-1,2.5c-0.5,0.8-1.3,1.7-1.7,2.5c-0.3,0.6,0.5,1.4,0.2,1.9
				c-0.4,0.7-0.8,1.5-1.2,2.2c-0.2,0.3-0.1,0.6-0.3,1c-0.3,0.6-0.6,1.4-0.9,2c0.3,1.9-0.7,4.9-1.4,6c-0.3,0.4-1,1-1,1.7
				c0,0.8-0.4,1.8-0.3,2.6c0,0.3,0.2,1.1,0.1,1.4c-0.7,1.6-1.1,2.8-2.1,4c-0.1,0.1-0.3,1-0.4,1.2c-0.5,0.8-0.7,2.2-1.1,3
				c0,0.4,0.1,2-0.2,2.4c-0.2,0.4-0.6,1-0.6,1.6c0,1.6-1,3.9-1.4,5.6c-0.4,1.8-1.9,3.3-2.3,4.1c-0.5,1,0.2,0.8-0.2,1.9
				c-0.7,2.1-1.7,5.1-1.8,7.3c0,0.8-0.8,1.2-0.9,1.7c-0.1,0.4,0,1.1,0,1.2c0,0.5-0.3,1.8-0.2,2.2c0.1,0.4-0.4,1-0.3,1.5
				c0.1,0.4,0.1,0.5,0.2,0.7c0.2,0.3,0,0.5,0.1,1c0,0.3,0.6,0.6,0.9,0.8c0.5,0.6,1,0.8,1.6,1.3c0.2,0.2,1.3,0.3,1.9,0.3
				c0.6,0,1.2,0.3,2.1-0.5c0.8-0.8,0.8-0.3,1.3-0.6c0.5-0.3,0.5-0.9,0.9-1.3c0.3-0.2,0.8-0.5,1.1-0.7c0.6-0.6,1.5-2.5,2.3-2.8
				c0.8-0.4,1-0.4,1.5-1c0.5-0.7,0.8-0.9,1.3-1.8c0.4-0.7,0.5-1.2,1-1.8c0.3-0.4,1.4-1,1.6-1.3c0.2-0.2,0.4-0.5,0.6-0.7
				c0.4-0.7,0.1-1.1,0.6-1.6c0.6-0.6,1.3-1.5,1.8-2.1c0.4-0.5,1-1.7,1.4-2.1c0.6-0.5,0.5-0.8,1.3-1.2c0.5-0.3,0.1-1,0.5-1.5
				c0.3-0.3,1.7-2.1,3.2-4c0.3-0.4,0.6-1.1,0.9-1.5c0.7-0.9,1.5-1.5,2-2.2c0.6-0.8,1.1-1.5,1.1-1.7c0.2-0.5,0.4-0.9,0.6-1.2
				c0.1-0.3,0.6-0.6,0.7-0.9c0.8-1.3,1.8-1.4,2.7-2.5c0.5-0.6,0.4-1.6,0.8-2.2c0.1-0.2,0.5-0.4,0.7-0.6c0.5-0.8,1.6-1.5,2-2.3
				c0.6-1.3,1.8-2.5,2.8-4c0.5-0.8,0.9-0.4,1.5-1.4c1.4-2.3,3.3-4.9,5.6-5.2c0.7-0.1,1.7-1.2,5.1-0.3c0.6,0.1,1.2,0.4,1.6,0.8
				c0.2,0.2,0.4,0.3,0.6,0.4c0.3,0.2,0.4,0.2,0.8,0.4c0.3,0.2,0.4,0.6,0.6,0.8c0.6,0.6,1.1,0.9,1.2,1.9c0.1,0.7,0.5,1.3,0.5,2
				c0.1,0.9,0.2,1.7-0.1,2.3c-0.2,0.5,0,0.9-0.2,1.4c-0.4,0.9-1.2,2-1.7,2.8c-0.2,0.3-0.3,0.8-0.6,1.3c-0.2,0.3-0.8,0.7-1.1,1.1
				c-0.3,0.5-0.9,0.9-1.2,1.5c0,0.2,0,0.4-0.1,0.6c-0.2,0.3-0.3,0.6-0.5,0.8c-0.4,0.9-0.6,1.7-1.1,2.5c-0.2,0.4-0.6,0.7-0.8,1.1
				c-0.1,0.3-0.7,0.5-0.8,0.8c-0.2,0.2-0.9,0.6-1.3,0.8c-0.2,0.1-0.3,0.3-0.5,0.4c-0.3,0.3,0.2,1-0.3,1.2c-0.4,0.2-1,1-1.5,1.5
				c-0.4,0.5-1.1,2.4-2.3,4.4c-0.4,0.7-1.2,1-1.7,1.7c-1.8,3-3.6,6-4.1,6.8c-0.7,1-1.7,1.3-2.3,2.2c-0.3,0.3-1.1,1.9-1.2,2.3
				c0,0.2-0.3,0.6-0.8,1.2c0,0.2-0.6,0.6-0.6,0.7c-0.2,0.2-0.4,0.5-0.5,0.7c-0.1,0.3-0.1,0.7-0.2,1c-0.2,0.5-0.7,0.9-0.9,1.5
				c0,0.3-0.7,0.3-0.8,0.6c-0.2,0.5-1.2,1.2-1.4,1.7c-0.1,0.4-0.9,0.6-0.9,0.9c-0.4,0.8-1,1.8-1.5,2.6c-0.3,0.5-0.7,1-1,1.6
				c-0.3,0.8-1.7,2-1.9,2.8c-0.2,0.9-2.4,3.8-3.1,4.7c-0.8,1-1.3,1.3-2.1,2.3c-0.5,0.6-0.3,1.8-0.8,2.3c-1,1.2-0.2,2-1.6,2.6
				c-0.2,0.1-1.3,2-2,3c-0.8,1.1-0.2,1.3-1,1.7c-0.4,0.2-0.6,0.7-0.7,1.2c-0.2,1.5-1.3,1.8-1.6,3.1c-0.1,0.6-0.4,1.2-0.7,1.8
				c-0.1,0.2-0.8,0.5-0.9,0.8l0,0c-0.1,0.2-0.6,0.8-0.5,1.1c-0.1,1.2-0.1,1.7-1,2c-0.6,1.3-0.5,2-1.1,3.6c-0.2,0.4,0.3,1.8,0.1,2.2
				c-0.2,0.4,0.9,1.7,1.1,2.3c0.1,0.3,0.4,0.3,0.3,0.6c-0.1,0.3,0.2-0.1,1.1,0.6c0.2,0.2,0.1,0.3,0.3,0.5c0.4,0.2,0.5,0,1.8,0.4
				c0.6,0.1,2.7-0.1,3.3,0c0.8,0.4,1.4-0.9,2.4-1c1.7-0.2,1.4-0.1,2.1-0.4c0.4-0.2,4.6-2.2,5.8-2.4c0.5,0,1.8-0.1,2.3-0.1
				c0.5-0.1,0.6-0.8,0.9-1.1c0.2-0.3,0.5-0.4,1.3-0.9c0.2-0.1,0.7,0.2,1.3,0c0.7-0.2,2.9-1.6,3.7-1.9c0.8-0.3,2.7,0.2,3.1-0.5
				c0.3-0.5,1-0.9,1.3-1c1.9-0.2,1.3-0.6,2.9-0.9c1.4-0.3,1.3-0.2,2.4-0.8c0.6-0.3,2.3,0.2,2.8-0.1c0.8-0.5,2.7-0.7,3.2-0.5
				c1.1,0.4,2.4-0.1,4.3,0.9c0.3,0.2,0.3,0.1,0.5,0.3c0.5,0.3,1.1,0.1,1.5,0.5c0.2,0.2,0.4,0.6,0.6,0.8c0.2,0.2,1,0.5,1.3,0.8
				c0.2,0.1,0.5,1.3,0.7,1.6c0.4,0.4,0.3,0.5,0.4,1.1c0.7,3.1-1.4,5.5-1.9,5.8c-0.4,0.2-0.9,0.6-1.2,0.7c-0.4,0.4-0.8,0.5-1.2,0.9
				c-0.5,0.4-0.9,0.7-1.2,0.7c-1.8,0.2-3.6,2.1-5.2,2.9c-1.5,0.8-3.2,1-4.7,1.7c-1.9,0.9-2.7,1.9-4.4,2.9c-1.5,0.9-3.7,1.4-4.7,2.8
				c-0.3,0-1,0.1-1,0.2c-0.8,0.4-1.9,0.3-2.7,0.7c-1,0.3-5.7,2.8-6.4,3.3c-0.2,0.1-0.2,0.1-0.3,0.2c-0.3,0.2-0.4,0.9-1.3,1.5
				c-1.7,1.1-2.3,0.7-3.7,1.5c-0.6,0.3-1.1,0.9-1.8,1.2c-0.5,0.2-0.3,0.9-1,1.2c-0.4,0.1-2.2,0.2-3,0.7c-0.8,0.4-2.7,1.9-3.7,2.2
				c-1.7,0.4-3.9,2-5.5,2.8c-0.7,0.4-1.3,2-2.1,2.2c-1.1,0.3-1.4,0.7-3.7,2.2c-1.2,0.8-2.6,0.6-3.3,0.9c-0.9,0.4-1.8,2.3-2.7,2.3
				c-2.3,0.1-1.7,1.5-4.8,1.9c-0.9,0.1-1.7,0.8-2.4,2.2c-0.1,0.2-1.1,0.9-1.3,1.1c-1.2,1-2.2,1.9-2.6,2.1c-0.5,0.3-1.9,0.9-2.2,1.1
				c-0.6,0.3-1.3,0.7-1.9,0.9c-0.7,0-2.1,0.7-2.4,1.1c-0.3,0.3-1.2,1.5-1.3,1.6c-0.2,0.2-1.1,0.5-1.2,0.7c-0.2,0.6-5.8,7.1-5.9,7.5
				c-0.1,0.4-0.5,1.1-0.5,1.1c-0.8,1.6-3.8,3.8-3.9,5.3c0.1,1.1,1.7,1.6,2.2,2c0.4,0.5,2.6,0.3,3.4,0.4c0.4,0.1,0.8-0.1,1.2,0
				c0.5,0.2,1.1,0.6,1.5,0.8c0.4,0.2,2.7-0.5,3.3-0.4c0.3,0.1,0.6,0.5,0.9,0.6c0.1,0,0.3-0.2,0.5-0.1c0.7,0.3,1.5,0.7,2.2,0.4
				c1-0.2,1.6-1.4,2.3-1.9c1-0.7,2.9-0.7,3.2-0.5c0.3,0.2,0.7,0.6,1,0.7c0.2,0.2,0.7,0.4,1,0.3c0.9-0.1,1.1-1.1,1.7-1.6
				c0.2-0.1,0.4-0.2,0.6-0.3c1.2,0.1,2.7,0.3,3.8-0.1c0.8-0.3,1.7-1,2.5-1.3c0.2-0.1,0.5,0.1,0.9-0.1c0.8-0.3,3-1.2,3.3-1.2
				c0.7-0.2,1.6-0.9,2.3-1.2c0.8-0.4,5-0.4,5.8-0.2c0.3,0.1,0.5,0.4,0.8,0.6c0.7,0.4,1.3,0.5,2,0.9c0.2,0.1,0.3,0.5,0.5,0.6
				c1.7,1.2,3.1,1.8,2.7,4.8c-0.1,0.3,0.6,0.9,0.8,0.8c0.8-0.1,2-1.6,2.5-2.1c0.3-0.2,0.6-0.3,0.9-0.5c0.3-0.3,0.3-0.7,0.6-1
				c0.2-0.2,1.6-1.5,2-1.9c0.3-0.2,0.7-0.4,1-0.6c0-0.1,0.1-0.3,0.1-0.4c0.2-0.2,1-0.7,1.2-0.8c0.2,0,0.3,0,0.5,0
				c2.7-0.9,4.4,1.1,6.1,2.3c0.5,0.4,1.6,1.3,2.8,1c1-0.3,2.3-1.9,3-2.6c0.3-0.3,1.3-0.4,1.8-0.6c0.5-0.3,0.9-0.9,1.4-1.2
				c0.2-0.2,0.2-0.4,0.4-0.6c0.3-0.5,1.8-1.3,2.4-1.2c0.5,0.1,1.6,0.7,1.9,1.1c0.3,0.5,0.9,1.2,1.1,1.8c0.2,0.5,0.1,0.9,0.4,1.2
				c0.9,0.7,2.6,0.5,3-0.6c0.2-0.4,0-0.7-0.1-1.2c-0.6-0.3-1.5-1-1.9-1.5c-0.4-0.5-0.4-1.1-0.8-1.5c-0.3-0.2-0.9-1-1.4-1
				C375.4,351.6,374,352.4,373.7,351.7z"/>
		</g>
	</g>
</g>
</svg>
