<svg viewBox="0 0 343 90" version="1.1" xmlns="http://www.w3.org/2000/svg"><g stroke="none" stroke-width="1" fill="none" fill-rule="evenodd"><g><path d="M70.428 50.66c-4.236-1.175-7.705-1.698-11.247-1.698-9.694 0-14.656 3.615-16.085 11.72l-2.95 16.653a13.01 13.01 0 0 0-.24 2.413c0 6.238 4.784 9.963 12.797 9.963 4 0 8.4-.57 11.77-1.524a.537.537 0 0 0 .384-.433l1.136-7.27a.537.537 0 0 0-.642-.607c-3.59.78-8.847 1.07-11.317 1.07-3.502 0-4.206-1.189-4.206-3.108 0-.386.057-1.112.163-1.7l2.372-13.422c.648-3.777 2.094-4.99 5.95-4.99 2.085 0 5.528.52 10.523 1.592a.533.533 0 0 0 .64-.432l1.337-7.619a.535.535 0 0 0-.385-.608m31.001-12.118c3.183 1.531 8.895 2.597 12.031 2.597 11.463 0 14.255-3.966 15.623-11.773.325-1.757.47-3.054.47-4.205 0-4.472-2.497-6.681-9.596-8.458-4.62-1.184-5.21-1.414-5.21-2.762 0-.378.074-.9.157-1.503l.068-.49c.453-2.673.898-3.198 4.966-3.198 2.652 0 7.372.47 10.682 1.255a.537.537 0 0 0 .653-.437l1.11-7.054a.536.536 0 0 0-.398-.602c-3.411-.868-8.292-1.521-11.353-1.521-10.596 0-13.257 1.905-14.986 10.733-.321 1.74-.471 3.093-.471 4.261 0 4.802 2.492 7.216 9.191 8.906 4.677 1.213 5.44 1.619 5.44 2.894 0 .406-.037 1.067-.223 1.934-.52 3.018-1.234 3.777-5.602 3.777-3.737 0-7.576-1.14-10.964-2.145a.538.538 0 0 0-.68.42l-1.203 6.795a.536.536 0 0 0 .295.576m73.925 2.268l16.08-38.52a.537.537 0 0 0-.495-.743h-8.502a.537.537 0 0 0-.493.33l-10.925 25.97-1.755-25.8a.536.536 0 0 0-.534-.5h-9.717c-.215 0-.41.13-.494.327l-11.05 26.018-1.919-25.848a.537.537 0 0 0-.534-.497h-8.328a.54.54 0 0 0-.535.579l3.065 38.52a.537.537 0 0 0 .534.494h10.585c.217 0 .412-.13.495-.33l10.972-26.386 1.648 26.213a.536.536 0 0 0 .535.503h10.873c.216 0 .41-.13.494-.33m12.803.138c.1.121.25.192.41.192h24.235c.262 0 .484-.19.527-.447l1.273-7.518a.534.534 0 0 0-.53-.626h-15.09l1.37-7.605h14.069c.26 0 .482-.185.527-.441l1.33-7.46a.538.538 0 0 0-.527-.63h-13.88l1.086-6.275h15.28c.26 0 .483-.186.528-.442l1.331-7.52a.535.535 0 0 0-.528-.628h-24.234a.535.535 0 0 0-.528.443l-6.767 38.52a.53.53 0 0 0 .118.437m56.855-26.638l-2.43 13.885c-.502 2.96-1.196 4.354-5.37 4.354h-5.26l3.974-22.41h4.929c3.799 0 4.322 1.298 4.322 2.703 0 .424-.054.915-.165 1.468m-23.533 26.83h15.733c11.208 0 13.604-4.996 14.523-10.392l3.01-17.009c.118-.712.18-1.482.18-2.228 0-6.24-4.46-9.963-11.93-9.963h-14.691a.535.535 0 0 0-.527.442l-6.825 38.52a.54.54 0 0 0 .527.63m36.006 0h8.502a.535.535 0 0 0 .528-.444l6.765-38.52a.537.537 0 0 0-.527-.628h-8.5a.535.535 0 0 0-.528.443l-6.768 38.52a.529.529 0 0 0 .118.437.533.533 0 0 0 .41.192m16.802-2.598c3.184 1.531 8.895 2.597 12.03 2.597 11.463 0 14.256-3.966 15.623-11.773.326-1.757.472-3.054.472-4.205 0-4.472-2.498-6.681-9.597-8.458-4.621-1.184-5.21-1.414-5.21-2.762 0-.378.072-.9.157-1.503l.068-.49c.453-2.673.896-3.198 4.966-3.198 2.651 0 7.371.47 10.68 1.255a.537.537 0 0 0 .654-.437l1.11-7.054a.536.536 0 0 0-.397-.602C301.43 1.044 296.55.391 293.49.391c-10.596 0-13.258 1.905-14.986 10.733-.322 1.74-.471 3.093-.471 4.261 0 4.802 2.492 7.216 9.191 8.906 4.676 1.213 5.44 1.619 5.44 2.894 0 .406-.038 1.067-.224 1.934-.52 3.018-1.233 3.777-5.601 3.777-3.738 0-7.577-1.14-10.965-2.145a.535.535 0 0 0-.679.42l-1.204 6.795a.54.54 0 0 0 .296.576M342.539 1.74a.539.539 0 0 0-.411-.192h-8.5a.536.536 0 0 0-.528.442l-2.641 15.001h-11.232l2.608-14.814a.53.53 0 0 0-.118-.438.533.533 0 0 0-.41-.191h-8.501a.535.535 0 0 0-.527.443l-6.767 38.52a.54.54 0 0 0 .116.437.54.54 0 0 0 .412.191h8.5a.534.534 0 0 0 .528-.443l2.643-15.173h11.23l-2.607 14.99a.543.543 0 0 0 .115.435.54.54 0 0 0 .41.191h8.503a.535.535 0 0 0 .528-.442l6.765-38.52a.532.532 0 0 0-.116-.438M95.323 81.12H80.519l5.383-30.371a.535.535 0 0 0-.528-.63h-8.502a.536.536 0 0 0-.528.443l-6.767 38.521a.535.535 0 0 0 .529.628H94.05a.536.536 0 0 0 .528-.446l1.272-7.519a.535.535 0 0 0-.528-.626m30.365-16.136h-13.882l1.088-6.274h15.28c.26 0 .483-.187.528-.444l1.33-7.518a.533.533 0 0 0-.527-.629H105.27a.535.535 0 0 0-.528.444l-6.768 38.52a.534.534 0 0 0 .528.627h24.235a.536.536 0 0 0 .528-.445l1.273-7.518a.539.539 0 0 0-.528-.626h-15.092l1.368-7.605h14.07c.26 0 .482-.187.527-.442l1.33-7.46a.53.53 0 0 0-.116-.438.531.531 0 0 0-.41-.192m25.662 9.022h-7.777l6.409-14.182 1.368 14.182zm6.268-23.427a.537.537 0 0 0-.532-.46h-11.624a.537.537 0 0 0-.483.304l-18.508 38.52a.539.539 0 0 0 .03.518c.098.155.27.25.452.25h9.196c.21 0 .401-.122.488-.313l3.328-7.264h12.302l.76 7.099c.03.272.259.477.533.477h9.042a.535.535 0 0 0 .49-.756l-5.474-38.375zm47.82-.459h-8.271a.535.535 0 0 0-.528.443l-4.526 25.72-7.794-25.784a.536.536 0 0 0-.512-.38h-10.353a.535.535 0 0 0-.527.444l-6.769 38.52a.534.534 0 0 0 .529.627h8.329a.537.537 0 0 0 .53-.444l4.2-24.303 7.947 24.378a.54.54 0 0 0 .51.37h10.469c.26 0 .483-.187.528-.443l6.766-38.521a.529.529 0 0 0-.118-.436.533.533 0 0 0-.41-.192m32.973 8.148l1.331-7.52a.535.535 0 0 0-.527-.628h-29.383a.535.535 0 0 0-.527.443l-1.328 7.518a.533.533 0 0 0 .527.629h9.772l-5.327 30.374a.535.535 0 0 0 .528.628h8.56c.26 0 .483-.186.528-.442l5.358-30.56h9.962c.26 0 .482-.186.527-.442m29.843-7.957a.539.539 0 0 0-.412-.191H243.61a.536.536 0 0 0-.527.443l-6.769 38.521a.532.532 0 0 0 .529.627h24.232a.535.535 0 0 0 .53-.446l1.272-7.518a.532.532 0 0 0-.527-.625h-15.093l1.37-7.605h14.07a.535.535 0 0 0 .525-.442l1.331-7.46a.535.535 0 0 0-.527-.63h-13.88l1.086-6.275h15.283a.535.535 0 0 0 .527-.442l1.327-7.52a.523.523 0 0 0-.115-.436m30.031.349c-4.236-1.175-7.705-1.698-11.246-1.698-9.696 0-14.657 3.615-16.086 11.72l-2.95 16.653c-.16.86-.24 1.648-.24 2.413 0 6.238 4.785 9.963 12.797 9.963 4 0 8.401-.57 11.769-1.524a.533.533 0 0 0 .385-.433l1.136-7.27a.537.537 0 0 0-.641-.607c-3.592.78-8.848 1.07-11.318 1.07-3.503 0-4.206-1.189-4.206-3.108 0-.386.058-1.112.163-1.7l2.373-13.422c.647-3.777 2.093-4.99 5.95-4.99 2.086 0 5.528.52 10.523 1.592a.533.533 0 0 0 .639-.432l1.336-7.619a.534.534 0 0 0-.384-.608m35.775-.54h-8.503a.535.535 0 0 0-.527.442l-2.64 15h-11.231l2.608-14.814a.535.535 0 0 0-.528-.629h-8.503a.535.535 0 0 0-.527.444l-6.769 38.52a.535.535 0 0 0 .12.436.526.526 0 0 0 .407.191h8.504c.26 0 .483-.187.528-.443l2.642-15.173h11.23l-2.608 14.989a.537.537 0 0 0 .527.627h8.504a.535.535 0 0 0 .527-.442l6.767-38.521a.536.536 0 0 0-.527-.628" fill="#01538F"/><path d="M91.426 23.21H84.26c-.46 0-.87.277-1.04.702a10.626 10.626 0 0 1-9.921 6.731c-5.891 0-10.681-4.79-10.681-10.68s4.79-10.68 10.68-10.68c4.44 0 8.348 2.674 9.956 6.814.168.431.581.714 1.043.714h7.155a1.119 1.119 0 0 0 1.062-1.47 19.867 19.867 0 0 0-6.854-10.8A19.82 19.82 0 0 0 73.299.196c-5.87 0-11.44 2.635-15.18 7.114A19.785 19.785 0 0 0 42.778 0C31.877 0 23.01 8.866 23.01 19.766c0 .026 0 .06-.002.103-.076 3.676 1.354 7.86 4.134 12.097l.026.038c2.33 3.245 3.278 4.851 3.278 7.724 0 5.887-4.79 10.679-10.68 10.679-5.889 0-10.681-4.792-10.681-10.68 0-3.825 2.064-7.376 5.39-9.277l1.912-.871c.507-.231.768-.804.607-1.338l-1.968-6.554a1.124 1.124 0 0 0-.553-.672 1.122 1.122 0 0 0-.866-.07A19.721 19.721 0 0 0 0 39.727c0 10.897 8.866 19.764 19.766 19.764a19.71 19.71 0 0 0 13.29-5.135 19.724 19.724 0 0 0 6.37-12.58c.012-.087.038-.31.052-.668.045-1.187-.061-3.742-1.273-7.519-.516-1.56-1.526-3.268-2.595-5.076-1.658-2.805-3.538-5.985-3.514-8.739.05-5.895 4.843-10.69 10.68-10.69 5.888 0 10.68 4.791 10.68 10.68 0 4.578-2.904 8.633-7.231 10.108l-1.841.434c-.298.07-.553.259-.707.523a1.114 1.114 0 0 0-.112.873l1.89 6.635c.161.564.729.907 1.301.789a19.67 19.67 0 0 0 11.199-6.708 19.784 19.784 0 0 0 15.344 7.31c4.53 0 8.79-1.493 12.322-4.315a19.864 19.864 0 0 0 6.893-10.826 1.115 1.115 0 0 0-1.088-1.379" fill="#FECB00"/></g></g></svg>