<svg id="Layer_1" data-name="Layer 1" xmlns="http://www.w3.org/2000/svg" width="216.057" height="147.455" viewBox="0 0 216.057 147.455">
  <defs>
    <style>
      .cls-1 {
        fill: #323232;
      }

      .cls-2 {
        fill: #e75c52;
      }
    </style>
  </defs>
  <title>SCT_Logo_Claim_DE_RGB</title>
  <path class="cls-1" d="M148.843,47.045a28.966,28.966,0,1,1,28.966,28.961,28.966,28.966,0,0,1-28.966-28.961" transform="translate(-19.53 -18.075)"/>
  <g>
    <path class="cls-2" d="M157.752,47.046A20.057,20.057,0,1,1,177.808,67.1a20.055,20.055,0,0,1-20.056-20.053" transform="translate(-19.53 -18.075)"/>
    <path class="cls-1" d="M172.467,56.227a1.825,1.825,0,0,1-.913-1.577V38.1a1.825,1.825,0,0,1,2.736-1.582L188.627,44.8a1.828,1.828,0,0,1,0,3.164L174.29,56.227a1.812,1.812,0,0,1-1.823,0" transform="translate(-19.53 -18.075)"/>
  </g>
  <path class="cls-1" d="M29.331,94.342a29.109,29.109,0,0,1-7.859-1.328V87.568s4.782,1.516,7.389,1.516c2.887,0,4.637-.52,4.637-2.794,0-1.847-1.419-2.413-3.266-3.126l-2.417-.946c-3.03-1.185-6.151-3.029-6.151-7.388,0-6.772,5.444-7.955,10.318-7.955a17.106,17.106,0,0,1,7.2,1.374v5.162a22.006,22.006,0,0,0-6.723-1.469c-2.793,0-4.262.616-4.262,2.368,0,1.7,1.515,2.319,3.5,3.077l2.321.9c3.081,1.186,6.11,2.889,6.11,7.531,0,7.857-6.061,8.525-10.8,8.525" transform="translate(-19.53 -18.075)"/>
  <path class="cls-1" d="M75.918,93.867h-9L64.315,81.083c-.662-3.319-2.081-10.59-2.081-10.59S60.906,77.72,60.2,81.083L57.545,93.867h-9L43.056,67.35h7.481l1.515,13.258c.474,4.117.995,9.738.995,9.738s.9-5.475,1.8-9.738L57.592,67.35h9.28l2.843,13.258c.8,3.739,1.8,9.738,1.8,9.738s.661-6.091,1.04-9.738L73.928,67.35h7.48Z" transform="translate(-19.53 -18.075)"/>
  <rect class="cls-1" x="67.085" y="49.276" width="6.725" height="26.517"/>
  <path class="cls-1" d="M107.164,94.342A29.122,29.122,0,0,1,99.3,93.014V87.568s4.785,1.516,7.39,1.516c2.885,0,4.638-.52,4.638-2.794,0-1.847-1.419-2.413-3.269-3.126l-2.415-.946c-3.029-1.185-6.151-3.029-6.151-7.388,0-6.772,5.445-7.955,10.32-7.955a17.128,17.128,0,0,1,7.2,1.374v5.162a22.025,22.025,0,0,0-6.724-1.469c-2.792,0-4.263.616-4.263,2.368,0,1.7,1.515,2.319,3.5,3.077l2.319.9c3.081,1.186,6.111,2.889,6.111,7.531,0,7.857-6.061,8.525-10.8,8.525" transform="translate(-19.53 -18.075)"/>
  <path class="cls-1" d="M129.893,94.342a29.134,29.134,0,0,1-7.862-1.328V87.568s4.785,1.516,7.393,1.516c2.882,0,4.636-.52,4.636-2.794,0-1.847-1.42-2.413-3.269-3.126l-2.414-.946c-3.03-1.185-6.152-3.029-6.152-7.388,0-6.772,5.445-7.955,10.32-7.955a17.1,17.1,0,0,1,7.2,1.374v5.162a22,22,0,0,0-6.723-1.469c-2.793,0-4.262.616-4.262,2.368,0,1.7,1.514,2.319,3.5,3.077l2.319.9c3.08,1.186,6.111,2.889,6.111,7.531,0,7.857-6.06,8.525-10.8,8.525" transform="translate(-19.53 -18.075)"/>
  <path class="cls-1" d="M30.8,133.8c-4.879,0-11.269-1.7-11.269-13.728,0-12.123,8.429-13.734,12.124-13.734A14.538,14.538,0,0,1,38,107.518v5.207a22.152,22.152,0,0,0-6.156-1.136c-2.461,0-5.683,1.282-5.683,8.48,0,6.389,2.228,8.426,5.117,8.426A24.607,24.607,0,0,0,38,127.312v5.208a19.4,19.4,0,0,1-7.2,1.277" transform="translate(-19.53 -18.075)"/>
  <polygon class="cls-1" points="39.431 115.253 23.675 115.253 23.675 88.735 30.305 88.735 30.305 109.853 39.444 109.853 39.431 115.253"/>
  <polygon class="cls-1" points="61.699 94.038 50.097 94.038 50.097 99.149 60.038 99.149 60.038 104.03 50.097 104.03 50.097 109.948 61.932 109.948 61.932 115.252 43.466 115.252 43.466 88.734 62.169 88.734 61.699 94.038"/>
  <path class="cls-1" d="M103.575,133.328l-1.515-5.258h-9l-1.514,5.258H84.539L93.3,106.81h8.522l8.763,26.518Zm-4.213-16.481c-1.091-3.885-1.8-6.773-1.8-6.773s-.712,2.747-1.8,6.773l-1.752,6.344h7.106Z" transform="translate(-19.53 -18.075)"/>
  <path class="cls-1" d="M129.9,133.328,123.224,121.2c-1.464-2.7-3.217-6.771-3.217-6.771a68.582,68.582,0,0,1,.757,9v9.9h-6.631V106.81h6.818l6.157,10.936a69.343,69.343,0,0,1,3.409,7.247,80.92,80.92,0,0,1-.757-9V106.81h6.631v26.518Z" transform="translate(-19.53 -18.075)"/>
  <polygon class="cls-1" points="143.342 94.18 135.326 94.18 135.326 115.253 128.695 115.253 128.695 94.18 120.644 94.18 120.644 88.735 143.373 88.735 143.342 94.18"/>
  <polygon class="cls-1" points="165.152 94.038 153.552 94.038 153.552 99.149 163.496 99.149 163.496 104.03 153.552 104.03 153.552 109.948 165.391 109.948 165.391 115.252 146.924 115.252 146.924 88.734 165.627 88.734 165.152 94.038"/>
  <path class="cls-1" d="M200.453,133.8c-4.879,0-11.269-1.7-11.269-13.728,0-12.123,8.426-13.734,12.122-13.734a14.545,14.545,0,0,1,6.344,1.183v5.207a22.143,22.143,0,0,0-6.156-1.136c-2.461,0-5.683,1.282-5.683,8.48,0,6.389,2.228,8.426,5.116,8.426a24.609,24.609,0,0,0,6.723-1.183v5.208a19.387,19.387,0,0,1-7.2,1.277" transform="translate(-19.53 -18.075)"/>
  <polygon class="cls-1" points="209.426 115.253 209.426 104.029 199.955 104.029 199.955 115.253 193.327 115.253 193.327 88.735 199.955 88.735 199.955 99.15 209.426 99.15 209.426 88.735 216.057 88.735 216.057 115.253 209.426 115.253"/>
  <g>
    <path class="cls-2" d="M31.343,154.708a4.626,4.626,0,0,1,.468,1.584h.072a6.864,6.864,0,0,1,.378-1.638l1.981-5.617h3.187l-5.168,12.729h-.576l-2.7-5.977a5.01,5.01,0,0,1-.414-1.387H28.5a5.088,5.088,0,0,1-.432,1.387l-2.7,5.977h-.576l-5.168-12.729h3.205l1.963,5.617a6.84,6.84,0,0,1,.4,1.638h.072a4.626,4.626,0,0,1,.468-1.584l2.611-5.852h.378Z" transform="translate(-19.53 -18.075)"/>
    <path class="cls-2" d="M41.276,152.061H38.341v-3.024h2.935Zm-.126,9.579H38.432v-8.318H41.15Z" transform="translate(-19.53 -18.075)"/>
    <path class="cls-2" d="M48.693,153.106v2.664a7.835,7.835,0,0,0-.81-.035c-1.351,0-2.161.666-2.161,2.52v3.385H43v-8.318h2.575a14.3,14.3,0,0,1-.252,2.736l.072.019c.432-2.089,1.351-3.007,2.647-3.007A5.8,5.8,0,0,1,48.693,153.106Z" transform="translate(-19.53 -18.075)"/>
    <path class="cls-2" d="M53.192,152.692a1.391,1.391,0,0,1-.126.72l.036.036a1.572,1.572,0,0,1,.811-.126h.918v2.286h-.918a1.409,1.409,0,0,1-.811-.126l-.036.036a2.094,2.094,0,0,1,.126,1.026v5.1H50.473v-5.1a2.094,2.094,0,0,1,.126-1.026l-.036-.036a1.407,1.407,0,0,1-.81.126H49v-2.286h.756a1.57,1.57,0,0,1,.81.126l.036-.036a1.426,1.426,0,0,1-.126-.72v-2.161l2.449-1.657h.27Z" transform="translate(-19.53 -18.075)"/>
    <path class="cls-2" d="M55.152,161.046l1.009-2.143a5.265,5.265,0,0,0,2.862.883c.577,0,.811-.109.811-.4,0-.216-.108-.288-.558-.486l-1.5-.612a2.675,2.675,0,0,1-1.962-2.575c0-1.692,1.278-2.665,3.474-2.665a9.62,9.62,0,0,1,3.008.54l-.775,2.108a6.239,6.239,0,0,0-2.376-.576c-.486,0-.721.107-.721.359,0,.234.145.343.7.576l1.386.54c1.368.559,1.944,1.279,1.944,2.5,0,1.783-1.314,2.81-3.618,2.81A8.142,8.142,0,0,1,55.152,161.046Z" transform="translate(-19.53 -18.075)"/>
    <path class="cls-2" d="M63.2,157.481a4.327,4.327,0,0,1,4.627-4.43,5.624,5.624,0,0,1,3.007.811l-1.1,2.179a3.108,3.108,0,0,0-1.783-.5,1.945,1.945,0,1,0,0,3.888,3.108,3.108,0,0,0,1.783-.5l1.1,2.179a5.633,5.633,0,0,1-3.007.811A4.328,4.328,0,0,1,63.2,157.481Z" transform="translate(-19.53 -18.075)"/>
    <path class="cls-2" d="M74.684,152.6a12.19,12.19,0,0,1-.2,2.575l.073.036a3,3,0,0,1,2.952-2.161c1.855,0,3.007,1.135,3.007,3.386v5.2h-2.7v-4.447c0-1.315-.54-1.765-1.422-1.765-.954,0-1.71.613-1.71,2.2v4.016H71.965V148.766h2.719Z" transform="translate(-19.53 -18.075)"/>
    <path class="cls-2" d="M90.057,156.365v5.275H87.338a4.38,4.38,0,0,1,.288-1.656l-.09-.055a3.022,3.022,0,0,1-2.917,1.982,2.883,2.883,0,1,1,.036-5.762A3.073,3.073,0,0,1,87.5,157.7l.072-.036a4.113,4.113,0,0,1-.144-1.332c0-.666-.666-1.08-1.728-1.08a12.886,12.886,0,0,0-2.539.269l-.378-2.16a19.108,19.108,0,0,1,3.258-.307C88.905,153.051,90.057,154.006,90.057,156.365Zm-5.492,2.448a1.056,1.056,0,0,0,1.153,1.062,1.067,1.067,0,1,0,0-2.125A1.068,1.068,0,0,0,84.565,158.813Z" transform="translate(-19.53 -18.075)"/>
    <path class="cls-2" d="M97.2,151.323h-.216c-1.242,0-1.71.324-1.71,1.35v.126a1.206,1.206,0,0,1-.127.613l.037.036a1.57,1.57,0,0,1,.81-.126H97.2v2.286H96a1.407,1.407,0,0,1-.81-.126l-.037.036a2.118,2.118,0,0,1,.127,1.026v5.1H92.557v-5.1a2.133,2.133,0,0,1,.126-1.026l-.036-.036a1.411,1.411,0,0,1-.811.126h-.755v-2.286h.755a1.572,1.572,0,0,1,.811.126l.036-.036a1.216,1.216,0,0,1-.126-.613v-.126c0-2.682,1.422-3.817,4.087-3.817H97.2Z" transform="translate(-19.53 -18.075)"/>
    <path class="cls-2" d="M101.791,152.692a1.4,1.4,0,0,1-.125.72l.036.036a1.57,1.57,0,0,1,.81-.126h.918v2.286h-.918a1.407,1.407,0,0,1-.81-.126l-.036.036a2.109,2.109,0,0,1,.125,1.026v5.1H99.073v-5.1a2.094,2.094,0,0,1,.126-1.026l-.036-.036a1.407,1.407,0,0,1-.81.126H97.6v-2.286h.756a1.57,1.57,0,0,1,.81.126l.036-.036a1.426,1.426,0,0,1-.126-.72v-2.161l2.448-1.657h.27Z" transform="translate(-19.53 -18.075)"/>
    <path class="cls-2" d="M112.033,154.942a5.3,5.3,0,0,1-.306,2.035l.054.018,3.115-3.673h3.259l-2.863,3.1a2.181,2.181,0,0,1-.9.685v.071c.216.055.4.2.738.595l3.241,3.871h-3.439l-3.151-4.1-.054.036a4.414,4.414,0,0,1,.306,1.873v2.2h-2.719V148.766h2.719Z" transform="translate(-19.53 -18.075)"/>
    <path class="cls-2" d="M122.005,161.64h-2.719V148.766h2.719Z" transform="translate(-19.53 -18.075)"/>
    <path class="cls-2" d="M126.7,152.061h-2.935v-3.024H126.7Zm-.126,9.579h-2.719v-8.318h2.719Z" transform="translate(-19.53 -18.075)"/>
    <path class="cls-2" d="M128.43,153.322h2.664a6.693,6.693,0,0,1-.2,1.71l.072.036a2.881,2.881,0,0,1,2.863-2.017,2.425,2.425,0,0,1,2.611,2.053h.072a2.97,2.97,0,0,1,2.9-2.053c1.746,0,2.917,1.027,2.917,3.314v5.275h-2.719v-4.411c0-1.368-.559-1.783-1.368-1.783-.865,0-1.549.5-1.549,2.161v4.033h-2.612v-4.447c0-1.332-.557-1.747-1.368-1.747-.864,0-1.566.5-1.566,2.161v4.033H128.43Z" transform="translate(-19.53 -18.075)"/>
    <path class="cls-2" d="M151.85,156.365v5.275h-2.719a4.38,4.38,0,0,1,.288-1.656l-.09-.055a3.023,3.023,0,0,1-2.917,1.982,2.883,2.883,0,1,1,.036-5.762,3.071,3.071,0,0,1,2.844,1.548l.073-.036a4.113,4.113,0,0,1-.144-1.332c0-.666-.666-1.08-1.728-1.08a12.886,12.886,0,0,0-2.539.269l-.378-2.16a19.108,19.108,0,0,1,3.258-.307C150.7,153.051,151.85,154.006,151.85,156.365Zm-5.492,2.448a1.056,1.056,0,0,0,1.152,1.062,1.068,1.068,0,1,0,0-2.125A1.067,1.067,0,0,0,146.358,158.813Z" transform="translate(-19.53 -18.075)"/>
    <path class="cls-2" d="M157.069,152.692a1.381,1.381,0,0,1-.127.72l.036.036a1.576,1.576,0,0,1,.811-.126h.918v2.286h-.918a1.409,1.409,0,0,1-.811-.126l-.036.036a2.079,2.079,0,0,1,.127,1.026v5.1h-2.72v-5.1a2.079,2.079,0,0,1,.127-1.026l-.036-.036a1.411,1.411,0,0,1-.811.126h-.755v-2.286h.755a1.576,1.576,0,0,1,.811.126l.036-.036a1.416,1.416,0,0,1-.127-.72v-2.161l2.449-1.657h.271Z" transform="translate(-19.53 -18.075)"/>
    <path class="cls-2" d="M167.618,156.365v5.275H164.9a4.38,4.38,0,0,1,.288-1.656l-.091-.055a3.022,3.022,0,0,1-2.917,1.982,2.883,2.883,0,1,1,.036-5.762,3.073,3.073,0,0,1,2.845,1.548l.072-.036a4.147,4.147,0,0,1-.143-1.332c0-.666-.666-1.08-1.729-1.08a12.893,12.893,0,0,0-2.539.269l-.378-2.16a19.11,19.11,0,0,1,3.259-.307C166.465,153.051,167.618,154.006,167.618,156.365Zm-5.493,2.448a1.056,1.056,0,0,0,1.153,1.062,1.068,1.068,0,1,0,0-2.125A1.068,1.068,0,0,0,162.125,158.813Z" transform="translate(-19.53 -18.075)"/>
    <path class="cls-2" d="M177.715,161.64h-2.646a8.985,8.985,0,0,1,.269-2.089l-.071-.017c-.559,1.53-1.423,2.377-2.935,2.377-1.747,0-3.061-1.118-3.061-3.44v-5.149h2.791v4.339c0,1.26.558,1.783,1.386,1.783s1.549-.559,1.549-2.017v-4.1h2.718Z" transform="translate(-19.53 -18.075)"/>
    <path class="cls-2" d="M185.976,155.212l.072-.018a6.461,6.461,0,0,1-.234-1.872h2.719v7.6c0,3.385-1.981,4.61-4.772,4.61a8.189,8.189,0,0,1-4.249-1.063l1.153-2.215a5.9,5.9,0,0,0,2.9.775c1.422,0,2.322-.576,2.322-1.873v-.162a6.013,6.013,0,0,1,.162-1.224l-.072-.019a3.253,3.253,0,0,1-3.079,2c-2.269,0-3.816-1.622-3.816-4.25,0-2.737,1.6-4.448,3.835-4.448A3.2,3.2,0,0,1,185.976,155.212Zm-4.1,2.269a1.846,1.846,0,0,0,1.925,1.944,1.944,1.944,0,1,0,0-3.888A1.846,1.846,0,0,0,181.872,157.481Z" transform="translate(-19.53 -18.075)"/>
    <path class="cls-2" d="M193.085,161.64h-2.718V148.766h2.718Z" transform="translate(-19.53 -18.075)"/>
    <path class="cls-2" d="M197.784,152.061h-2.936v-3.024h2.936Zm-.126,9.579h-2.719v-8.318h2.719Z" transform="translate(-19.53 -18.075)"/>
    <path class="cls-2" d="M199.042,157.481a4.328,4.328,0,0,1,4.627-4.43,5.619,5.619,0,0,1,3.007.811l-1.1,2.179a3.111,3.111,0,0,0-1.784-.5,1.945,1.945,0,1,0,0,3.888,3.111,3.111,0,0,0,1.784-.5l1.1,2.179a5.628,5.628,0,0,1-3.007.811A4.328,4.328,0,0,1,199.042,157.481Z" transform="translate(-19.53 -18.075)"/>
    <path class="cls-2" d="M210.528,152.6a12.268,12.268,0,0,1-.2,2.575l.072.036a3,3,0,0,1,2.952-2.161c1.854,0,3.007,1.135,3.007,3.386v5.2h-2.7v-4.447c0-1.315-.54-1.765-1.423-1.765-.954,0-1.71.613-1.71,2.2v4.016h-2.719V148.766h2.719Z" transform="translate(-19.53 -18.075)"/>
    <path class="cls-2" d="M218.033,158.454h3.007v3.186h-3.007Z" transform="translate(-19.53 -18.075)"/>
  </g>
</svg>
