<?xml version="1.0" encoding="utf-8"?>
<!-- Svg Vector Icons : http://www.onlinewebfonts.com/icon -->
<!DOCTYPE svg PUBLIC "-//W3C//DTD SVG 1.1//EN" "http://www.w3.org/Graphics/SVG/1.1/DTD/svg11.dtd">
<svg version="1.1" xmlns="http://www.w3.org/2000/svg" xmlns:xlink="http://www.w3.org/1999/xlink" x="0px" y="0px" viewBox="0 0 1000 1000" enable-background="new 0 0 1000 1000" xml:space="preserve">
<metadata> Svg Vector Icons : http://www.onlinewebfonts.com/icon </metadata>
<g><path d="M78.7,500c0,168.2,98.6,313.3,241.1,380.9L116.5,325.3C92.2,378.5,78.7,437.7,78.7,500z"/><path d="M377.5,903.2c38.8,11.8,79.9,18.1,122.5,18.1c49.5,0,97-8.6,141.1-24.2L507.3,531.2L377.5,903.2z"/><path d="M300.8,271.4v25.2c0,2.3-1.8,4.2-4,4.2H248c-5.5,0-7.8,3.3-5.8,8.9l153,450.8l93.1-281.1l-61.9-169.3c-2.2-6.1-4.9-9.3-14.4-9.3h-42.8c-2.2,0-4-1.9-4-4.2v-25.2c0-2.3,1.8-4.3,4-4.2c79.7,3.6,159.8,3.5,240.5,0c2.2-0.1,4,1.9,4,4.2v25.2c0,2.3-1.8,4.2-4,4.2h-42.6c-8.4,0-11.2,3.9-8.8,10.8l150.6,443.7l55.3-168.3C831,383.4,706.9,361.9,710,260.7c1.5-50,38.2-71.9,75-70.9c-75-69-175.1-111.1-285-111.1c-148.2,0-278.5,76.6-353.6,192.3c47.9-0.5,99.2-1,150.4-3.8C299,267,300.8,269.1,300.8,271.4z"/><path d="M500,78.7L500,78.7L500,78.7L500,78.7z"/><path d="M500,10C229.4,10,10,229.4,10,500c0,270.6,219.4,490,490,490c270.6,0,490-219.4,490-490C990,229.4,770.6,10,500,10z M500,960.9C245.5,960.9,39.1,754.5,39.1,500C39.1,245.5,245.5,39.1,500,39.1c254.5,0,460.9,206.4,460.9,460.9C960.9,754.5,754.5,960.9,500,960.9z"/><path d="M870.6,299.4L870.6,299.4L870.6,299.4L870.6,299.4z"/><path d="M870.6,299.4c2.3,62.7-16.6,140.5-36.9,198.1L702.2,869.7C832.8,798.1,921.3,659.4,921.3,500C921.3,427.4,903,359,870.6,299.4z"/></g>
</svg>